<?xml version="1.0" encoding="UTF-8" standalone="no"?>
<!DOCTYPE svg PUBLIC "-//W3C//DTD SVG 1.1//EN"
 "http://www.w3.org/Graphics/SVG/1.1/DTD/svg11.dtd">
<!-- Generated by graphviz version 2.40.1 (20161225.0304)
 -->
<!-- Title: pr::aabb&lt; T, N &gt; Pages: 1 -->
<svg width="276pt" height="95pt"
 viewBox="0.00 0.00 276.00 95.00" xmlns="http://www.w3.org/2000/svg" xmlns:xlink="http://www.w3.org/1999/xlink">
<g id="graph0" class="graph" transform="scale(1 1) rotate(0) translate(4 91)">
<title>pr::aabb&lt; T, N &gt;</title>
<polygon fill="#ffffff" stroke="transparent" points="-4,4 -4,-91 272,-91 272,4 -4,4"/>
<!-- Node0 -->
<g id="node1" class="node">
<title>Node0</title>
<polygon fill="#bfbfbf" stroke="#000000" points="88.5,-67.5 88.5,-86.5 177.5,-86.5 177.5,-67.5 88.5,-67.5"/>
<text text-anchor="middle" x="133" y="-74.5" font-family="Helvetica,sans-Serif" font-size="10.00" fill="#000000">pr::aabb&lt; T, N &gt;</text>
</g>
<!-- Node1 -->
<g id="node2" class="node">
<title>Node1</title>
<g id="a_node2"><a xlink:href="classpr_1_1aabb.html" target="_top" xlink:title="pr::aabb\&lt; float_type, 3 \&gt;">
<polygon fill="#ffffff" stroke="#000000" points="0,-.5 0,-19.5 124,-19.5 124,-.5 0,-.5"/>
<text text-anchor="middle" x="62" y="-7.5" font-family="Helvetica,sans-Serif" font-size="10.00" fill="#000000">pr::aabb&lt; float_type, 3 &gt;</text>
</a>
</g>
</g>
<!-- Node0&#45;&gt;Node1 -->
<g id="edge1" class="edge">
<title>Node0&#45;&gt;Node1</title>
<path fill="none" stroke="#ffa500" stroke-dasharray="5,2" d="M115.4514,-60.44C101.832,-47.5879 83.4285,-30.2212 72.1537,-19.5817"/>
<polygon fill="#ffa500" stroke="#ffa500" points="113.1523,-63.0828 122.8274,-67.4005 117.9566,-57.9917 113.1523,-63.0828"/>
<text text-anchor="middle" x="140" y="-41" font-family="Helvetica,sans-Serif" font-size="10.00" fill="#000000"> &lt; float_type, 3 &gt;</text>
</g>
<!-- Node2 -->
<g id="node3" class="node">
<title>Node2</title>
<g id="a_node3"><a xlink:href="classpr_1_1aabb.html" target="_top" xlink:title="pr::aabb\&lt; float_type, N \&gt;">
<polygon fill="#ffffff" stroke="#000000" points="142,-.5 142,-19.5 268,-19.5 268,-.5 142,-.5"/>
<text text-anchor="middle" x="205" y="-7.5" font-family="Helvetica,sans-Serif" font-size="10.00" fill="#000000">pr::aabb&lt; float_type, N &gt;</text>
</a>
</g>
</g>
<!-- Node0&#45;&gt;Node2 -->
<g id="edge2" class="edge">
<title>Node0&#45;&gt;Node2</title>
<path fill="none" stroke="#ffa500" stroke-dasharray="5,2" d="M164.2812,-62.3721C170.5821,-58.5678 176.8447,-54.0851 182,-49 190.6182,-40.4991 197.1908,-28.1126 201.0602,-19.5917"/>
<polygon fill="#ffa500" stroke="#ffa500" points="162.1855,-59.5327 155.1468,-67.4515 165.5875,-65.6505 162.1855,-59.5327"/>
<text text-anchor="middle" x="229" y="-41" font-family="Helvetica,sans-Serif" font-size="10.00" fill="#000000"> &lt; float_type, N &gt;</text>
</g>
</g>
</svg>
