<?xml version="1.0" encoding="UTF-8" standalone="no"?>
<!DOCTYPE svg PUBLIC "-//W3C//DTD SVG 1.1//EN"
 "http://www.w3.org/Graphics/SVG/1.1/DTD/svg11.dtd">
<!-- Generated by graphviz version 2.43.0 (0)
 -->
<!-- Title: pre::normal_distribution&lt; T &gt; Pages: 1 -->
<svg width="185pt" height="163pt"
 viewBox="0.00 0.00 185.00 163.00" xmlns="http://www.w3.org/2000/svg" xmlns:xlink="http://www.w3.org/1999/xlink">
<g id="graph0" class="graph" transform="scale(1 1) rotate(0) translate(4 159)">
<title>pre::normal_distribution&lt; T &gt;</title>
<polygon fill="white" stroke="transparent" points="-4,4 -4,-159 181,-159 181,4 -4,4"/>
<!-- Node1 -->
<g id="node1" class="node">
<title>Node1</title>
<g id="a_node1"><a xlink:title="Normal distribution.">
<polygon fill="#bfbfbf" stroke="black" points="7.5,-135.5 7.5,-154.5 169.5,-154.5 169.5,-135.5 7.5,-135.5"/>
<text text-anchor="middle" x="88.5" y="-142.5" font-family="Helvetica,sans-Serif" font-size="10.00">pre::normal_distribution&lt; T &gt;</text>
</a>
</g>
</g>
<!-- Node2 -->
<g id="node2" class="node">
<title>Node2</title>
<g id="a_node2"><a xlink:href="classpre_1_1normal__distribution.html" target="_top" xlink:title=" ">
<polygon fill="white" stroke="black" points="21.5,-57.5 21.5,-87.5 155.5,-87.5 155.5,-57.5 21.5,-57.5"/>
<text text-anchor="start" x="29.5" y="-75.5" font-family="Helvetica,sans-Serif" font-size="10.00">pre::normal_distribution</text>
<text text-anchor="middle" x="88.5" y="-64.5" font-family="Helvetica,sans-Serif" font-size="10.00">&lt; double &gt;</text>
</a>
</g>
</g>
<!-- Node1&#45;&gt;Node2 -->
<g id="edge1" class="edge">
<title>Node1&#45;&gt;Node2</title>
<path fill="none" stroke="orange" stroke-dasharray="5,2" d="M88.5,-125.24C88.5,-113.41 88.5,-98.38 88.5,-87.58"/>
<polygon fill="orange" stroke="orange" points="85,-125.36 88.5,-135.36 92,-125.36 85,-125.36"/>
<text text-anchor="middle" x="118" y="-109" font-family="Helvetica,sans-Serif" font-size="10.00"> &lt; double &gt;</text>
</g>
<!-- Node3 -->
<g id="node3" class="node">
<title>Node3</title>
<g id="a_node3"><a xlink:href="classpre_1_1lognormal__distribution.html" target="_top" xlink:title="Log&#45;normal distribution.">
<polygon fill="white" stroke="black" points="0,-0.5 0,-19.5 177,-19.5 177,-0.5 0,-0.5"/>
<text text-anchor="middle" x="88.5" y="-7.5" font-family="Helvetica,sans-Serif" font-size="10.00">pre::lognormal_distribution&lt; T &gt;</text>
</a>
</g>
</g>
<!-- Node2&#45;&gt;Node3 -->
<g id="edge2" class="edge">
<title>Node2&#45;&gt;Node3</title>
<path fill="none" stroke="midnightblue" d="M88.5,-47.35C88.5,-37.51 88.5,-26.78 88.5,-19.54"/>
<polygon fill="midnightblue" stroke="midnightblue" points="85,-47.47 88.5,-57.47 92,-47.47 85,-47.47"/>
</g>
</g>
</svg>
