<?xml version="1.0" encoding="UTF-8" standalone="no"?>
<!DOCTYPE svg PUBLIC "-//W3C//DTD SVG 1.1//EN"
 "http://www.w3.org/Graphics/SVG/1.1/DTD/svg11.dtd">
<!-- Generated by graphviz version 2.40.1 (20161225.0304)
 -->
<!-- Title: pre::block_array3&lt; T, Talloc &gt; Pages: 1 -->
<svg width="515pt" height="84pt"
 viewBox="0.00 0.00 515.00 84.00" xmlns="http://www.w3.org/2000/svg" xmlns:xlink="http://www.w3.org/1999/xlink">
<g id="graph0" class="graph" transform="scale(1 1) rotate(0) translate(4 80)">
<title>pre::block_array3&lt; T, Talloc &gt;</title>
<polygon fill="#ffffff" stroke="transparent" points="-4,4 -4,-80 511,-80 511,4 -4,4"/>
<!-- Node0 -->
<g id="node1" class="node">
<title>Node0</title>
<polygon fill="#bfbfbf" stroke="#000000" points="0,-17 0,-47 98,-47 98,-17 0,-17"/>
<text text-anchor="start" x="8" y="-35" font-family="Helvetica,sans-Serif" font-size="10.00" fill="#000000">pre::block_array3&lt;</text>
<text text-anchor="middle" x="49" y="-24" font-family="Helvetica,sans-Serif" font-size="10.00" fill="#000000"> T, Talloc &gt;</text>
</g>
<!-- Node1 -->
<g id="node2" class="node">
<title>Node1</title>
<g id="a_node2"><a xlink:href="classpre_1_1block__array3.html" target="_top" xlink:title="pre::block_array3\&lt;\l multi\&lt; T, N \&gt;, std\l::allocator_traits\&lt; Talloc\l \&gt;::template rebind_alloc\l\&lt; multi\&lt; T, N \&gt; \&gt; \&gt;">
<polygon fill="#ffffff" stroke="#000000" points="242,-.5 242,-63.5 366,-63.5 366,-.5 242,-.5"/>
<text text-anchor="start" x="250" y="-51.5" font-family="Helvetica,sans-Serif" font-size="10.00" fill="#000000">pre::block_array3&lt;</text>
<text text-anchor="start" x="250" y="-40.5" font-family="Helvetica,sans-Serif" font-size="10.00" fill="#000000"> multi&lt; T, N &gt;, std</text>
<text text-anchor="start" x="250" y="-29.5" font-family="Helvetica,sans-Serif" font-size="10.00" fill="#000000">::allocator_traits&lt; Talloc</text>
<text text-anchor="start" x="250" y="-18.5" font-family="Helvetica,sans-Serif" font-size="10.00" fill="#000000"> &gt;::template rebind_alloc</text>
<text text-anchor="middle" x="304" y="-7.5" font-family="Helvetica,sans-Serif" font-size="10.00" fill="#000000">&lt; multi&lt; T, N &gt; &gt; &gt;</text>
</a>
</g>
</g>
<!-- Node0&#45;&gt;Node1 -->
<g id="edge1" class="edge">
<title>Node0&#45;&gt;Node1</title>
<path fill="none" stroke="#ffa500" stroke-dasharray="5,2" d="M108.3283,-32C148.4117,-32 201.2288,-32 241.885,-32"/>
<polygon fill="#ffa500" stroke="#ffa500" points="108.1666,-28.5001 98.1666,-32 108.1665,-35.5001 108.1666,-28.5001"/>
<text text-anchor="start" x="116" y="-68" font-family="Helvetica,sans-Serif" font-size="10.00" fill="#000000"> &lt; multi&lt; T, N &gt;, std</text>
<text text-anchor="start" x="116" y="-57" font-family="Helvetica,sans-Serif" font-size="10.00" fill="#000000">::allocator_traits&lt; Talloc</text>
<text text-anchor="start" x="116" y="-46" font-family="Helvetica,sans-Serif" font-size="10.00" fill="#000000"> &gt;::template rebind_alloc</text>
<text text-anchor="middle" x="170" y="-35" font-family="Helvetica,sans-Serif" font-size="10.00" fill="#000000">&lt; multi&lt; T, N &gt; &gt; &gt;</text>
</g>
<!-- Node2 -->
<g id="node3" class="node">
<title>Node2</title>
<g id="a_node3"><a xlink:href="classpre_1_1image3.html" target="_top" xlink:title="Image (3&#45;dimensional). ">
<polygon fill="#ffffff" stroke="#000000" points="403,-17 403,-47 507,-47 507,-17 403,-17"/>
<text text-anchor="start" x="411" y="-35" font-family="Helvetica,sans-Serif" font-size="10.00" fill="#000000">pre::image3&lt; Tfloat,</text>
<text text-anchor="middle" x="455" y="-24" font-family="Helvetica,sans-Serif" font-size="10.00" fill="#000000"> T, N, Talloc &gt;</text>
</a>
</g>
</g>
<!-- Node1&#45;&gt;Node2 -->
<g id="edge2" class="edge">
<title>Node1&#45;&gt;Node2</title>
<path fill="none" stroke="#191970" d="M376.3648,-32C385.335,-32 394.3644,-32 402.9452,-32"/>
<polygon fill="#191970" stroke="#191970" points="376.2893,-28.5001 366.2893,-32 376.2892,-35.5001 376.2893,-28.5001"/>
</g>
</g>
</svg>
