<?xml version="1.0" encoding="UTF-8" standalone="no"?>
<!DOCTYPE svg PUBLIC "-//W3C//DTD SVG 1.1//EN"
 "http://www.w3.org/Graphics/SVG/1.1/DTD/svg11.dtd">
<!-- Generated by graphviz version 2.43.0 (0)
 -->
<!-- Title: pre::block_array3&lt; T, Talloc &gt; Pages: 1 -->
<svg width="653pt" height="84pt"
 viewBox="0.00 0.00 653.00 84.00" xmlns="http://www.w3.org/2000/svg" xmlns:xlink="http://www.w3.org/1999/xlink">
<g id="graph0" class="graph" transform="scale(1 1) rotate(0) translate(4 80)">
<title>pre::block_array3&lt; T, Talloc &gt;</title>
<polygon fill="white" stroke="transparent" points="-4,4 -4,-80 649,-80 649,4 -4,4"/>
<!-- Node1 -->
<g id="node1" class="node">
<title>Node1</title>
<g id="a_node1"><a xlink:title="Block array (3&#45;dimensional).">
<polygon fill="#bfbfbf" stroke="black" points="0,-17 0,-47 110,-47 110,-17 0,-17"/>
<text text-anchor="start" x="8" y="-35" font-family="Helvetica,sans-Serif" font-size="10.00">pre::block_array3&lt;</text>
<text text-anchor="middle" x="55" y="-24" font-family="Helvetica,sans-Serif" font-size="10.00"> T, Talloc &gt;</text>
</a>
</g>
</g>
<!-- Node2 -->
<g id="node2" class="node">
<title>Node2</title>
<g id="a_node2"><a xlink:href="classpre_1_1block__array3.html" target="_top" xlink:title=" ">
<polygon fill="white" stroke="black" points="310,-0.5 310,-63.5 490,-63.5 490,-0.5 310,-0.5"/>
<text text-anchor="start" x="318" y="-51.5" font-family="Helvetica,sans-Serif" font-size="10.00">pre::block_array3&lt;</text>
<text text-anchor="start" x="318" y="-40.5" font-family="Helvetica,sans-Serif" font-size="10.00"> multi&lt; T, N &gt;, std</text>
<text text-anchor="start" x="318" y="-29.5" font-family="Helvetica,sans-Serif" font-size="10.00">::allocator_traits&lt; std</text>
<text text-anchor="start" x="318" y="-18.5" font-family="Helvetica,sans-Serif" font-size="10.00">::allocator&lt; T &gt; &gt;::template</text>
<text text-anchor="middle" x="400" y="-7.5" font-family="Helvetica,sans-Serif" font-size="10.00"> rebind_alloc&lt; multi&lt; T, N &gt; &gt; &gt;</text>
</a>
</g>
</g>
<!-- Node1&#45;&gt;Node2 -->
<g id="edge1" class="edge">
<title>Node1&#45;&gt;Node2</title>
<path fill="none" stroke="orange" stroke-dasharray="5,2" d="M120.39,-32C173.85,-32 250.47,-32 309.84,-32"/>
<polygon fill="orange" stroke="orange" points="120.35,-28.5 110.35,-32 120.35,-35.5 120.35,-28.5"/>
<text text-anchor="start" x="128" y="-68" font-family="Helvetica,sans-Serif" font-size="10.00"> &lt; multi&lt; T, N &gt;, std</text>
<text text-anchor="start" x="128" y="-57" font-family="Helvetica,sans-Serif" font-size="10.00">::allocator_traits&lt; std</text>
<text text-anchor="start" x="128" y="-46" font-family="Helvetica,sans-Serif" font-size="10.00">::allocator&lt; T &gt; &gt;::template</text>
<text text-anchor="middle" x="210" y="-35" font-family="Helvetica,sans-Serif" font-size="10.00"> rebind_alloc&lt; multi&lt; T, N &gt; &gt; &gt;</text>
</g>
<!-- Node3 -->
<g id="node3" class="node">
<title>Node3</title>
<g id="a_node3"><a xlink:href="classpre_1_1image3.html" target="_top" xlink:title="Image (3&#45;dimensional).">
<polygon fill="white" stroke="black" points="527,-17 527,-47 645,-47 645,-17 527,-17"/>
<text text-anchor="start" x="535" y="-35" font-family="Helvetica,sans-Serif" font-size="10.00">pre::image3&lt; Tfloat,</text>
<text text-anchor="middle" x="586" y="-24" font-family="Helvetica,sans-Serif" font-size="10.00"> T, N, Talloc &gt;</text>
</a>
</g>
</g>
<!-- Node2&#45;&gt;Node3 -->
<g id="edge2" class="edge">
<title>Node2&#45;&gt;Node3</title>
<path fill="none" stroke="midnightblue" d="M500.27,-32C509.31,-32 518.26,-32 526.76,-32"/>
<polygon fill="midnightblue" stroke="midnightblue" points="500.04,-28.5 490.04,-32 500.04,-35.5 500.04,-28.5"/>
</g>
</g>
</svg>
