<?xml version="1.0" encoding="UTF-8" standalone="no"?>
<!DOCTYPE svg PUBLIC "-//W3C//DTD SVG 1.1//EN"
 "http://www.w3.org/Graphics/SVG/1.1/DTD/svg11.dtd">
<!-- Generated by graphviz version 2.40.1 (20161225.0304)
 -->
<!-- Title: pr::block_array2&lt; T, Talloc &gt; Pages: 1 -->
<svg width="549pt" height="79pt"
 viewBox="0.00 0.00 549.00 78.50" xmlns="http://www.w3.org/2000/svg" xmlns:xlink="http://www.w3.org/1999/xlink">
<g id="graph0" class="graph" transform="scale(1 1) rotate(0) translate(4 74.5)">
<title>pr::block_array2&lt; T, Talloc &gt;</title>
<polygon fill="#ffffff" stroke="transparent" points="-4,4 -4,-74.5 545,-74.5 545,4 -4,4"/>
<!-- Node0 -->
<g id="node1" class="node">
<title>Node0</title>
<polygon fill="#bfbfbf" stroke="#000000" points="0,-11.5 0,-41.5 104,-41.5 104,-11.5 0,-11.5"/>
<text text-anchor="start" x="8" y="-29.5" font-family="Helvetica,sans-Serif" font-size="10.00" fill="#000000">pr::block_array2&lt; T,</text>
<text text-anchor="middle" x="52" y="-18.5" font-family="Helvetica,sans-Serif" font-size="10.00" fill="#000000"> Talloc &gt;</text>
</g>
<!-- Node1 -->
<g id="node2" class="node">
<title>Node1</title>
<g id="a_node2"><a xlink:href="classpr_1_1block__array2.html" target="_top" xlink:title="pr::block_array2\&lt; multi\l\&lt; T, N \&gt;, std::allocator\l_traits\&lt; Talloc \&gt;::template\l rebind_alloc\&lt; multi\&lt; T, N \&gt; \&gt; \&gt;">
<polygon fill="#ffffff" stroke="#000000" points="248,-.5 248,-52.5 405,-52.5 405,-.5 248,-.5"/>
<text text-anchor="start" x="256" y="-40.5" font-family="Helvetica,sans-Serif" font-size="10.00" fill="#000000">pr::block_array2&lt; multi</text>
<text text-anchor="start" x="256" y="-29.5" font-family="Helvetica,sans-Serif" font-size="10.00" fill="#000000">&lt; T, N &gt;, std::allocator</text>
<text text-anchor="start" x="256" y="-18.5" font-family="Helvetica,sans-Serif" font-size="10.00" fill="#000000">_traits&lt; Talloc &gt;::template</text>
<text text-anchor="middle" x="326.5" y="-7.5" font-family="Helvetica,sans-Serif" font-size="10.00" fill="#000000"> rebind_alloc&lt; multi&lt; T, N &gt; &gt; &gt;</text>
</a>
</g>
</g>
<!-- Node0&#45;&gt;Node1 -->
<g id="edge1" class="edge">
<title>Node0&#45;&gt;Node1</title>
<path fill="none" stroke="#ffa500" stroke-dasharray="5,2" d="M114.3315,-26.5C153.9289,-26.5 205.5214,-26.5 247.9154,-26.5"/>
<polygon fill="#ffa500" stroke="#ffa500" points="114.2775,-23.0001 104.2775,-26.5 114.2774,-30.0001 114.2775,-23.0001"/>
<text text-anchor="start" x="122" y="-62.5" font-family="Helvetica,sans-Serif" font-size="10.00" fill="#000000"> &lt; multi&lt; T, N &gt;, std</text>
<text text-anchor="start" x="122" y="-51.5" font-family="Helvetica,sans-Serif" font-size="10.00" fill="#000000">::allocator_traits&lt; Talloc</text>
<text text-anchor="start" x="122" y="-40.5" font-family="Helvetica,sans-Serif" font-size="10.00" fill="#000000"> &gt;::template rebind_alloc</text>
<text text-anchor="middle" x="176" y="-29.5" font-family="Helvetica,sans-Serif" font-size="10.00" fill="#000000">&lt; multi&lt; T, N &gt; &gt; &gt;</text>
</g>
<!-- Node2 -->
<g id="node3" class="node">
<title>Node2</title>
<g id="a_node3"><a xlink:href="classpr_1_1image2.html" target="_top" xlink:title="Image (2&#45;dimensional). ">
<polygon fill="#ffffff" stroke="#000000" points="442,-11.5 442,-41.5 541,-41.5 541,-11.5 442,-11.5"/>
<text text-anchor="start" x="450" y="-29.5" font-family="Helvetica,sans-Serif" font-size="10.00" fill="#000000">pr::image2&lt; Tfloat,</text>
<text text-anchor="middle" x="491.5" y="-18.5" font-family="Helvetica,sans-Serif" font-size="10.00" fill="#000000"> T, N, Talloc &gt;</text>
</a>
</g>
</g>
<!-- Node1&#45;&gt;Node2 -->
<g id="edge2" class="edge">
<title>Node1&#45;&gt;Node2</title>
<path fill="none" stroke="#191970" d="M415.3505,-26.5C424.3814,-26.5 433.3103,-26.5 441.7008,-26.5"/>
<polygon fill="#191970" stroke="#191970" points="415.1341,-23.0001 405.1341,-26.5 415.134,-30.0001 415.1341,-23.0001"/>
</g>
</g>
</svg>
