<?xml version="1.0" encoding="UTF-8" standalone="no"?>
<!DOCTYPE svg PUBLIC "-//W3C//DTD SVG 1.1//EN"
 "http://www.w3.org/Graphics/SVG/1.1/DTD/svg11.dtd">
<!-- Generated by graphviz version 2.43.0 (0)
 -->
<!-- Title: pre::memory_arena&lt; Tbyte_alloc &gt; Pages: 1 -->
<svg width="210pt" height="117pt"
 viewBox="0.00 0.00 210.00 117.00" xmlns="http://www.w3.org/2000/svg" xmlns:xlink="http://www.w3.org/1999/xlink">
<g id="graph0" class="graph" transform="scale(1 1) rotate(0) translate(4 113)">
<title>pre::memory_arena&lt; Tbyte_alloc &gt;</title>
<polygon fill="white" stroke="transparent" points="-4,4 -4,-113 206,-113 206,4 -4,4"/>
<!-- Node1 -->
<g id="node1" class="node">
<title>Node1</title>
<g id="a_node1"><a xlink:title="Memory arena.">
<polygon fill="#bfbfbf" stroke="black" points="8.5,-78.5 8.5,-108.5 129.5,-108.5 129.5,-78.5 8.5,-78.5"/>
<text text-anchor="start" x="16.5" y="-96.5" font-family="Helvetica,sans-Serif" font-size="10.00">pre::memory_arena&lt;</text>
<text text-anchor="middle" x="69" y="-85.5" font-family="Helvetica,sans-Serif" font-size="10.00"> Tbyte_alloc &gt;</text>
</a>
</g>
</g>
<!-- Node2 -->
<g id="node2" class="node">
<title>Node2</title>
<g id="a_node2"><a xlink:href="classpre_1_1memory__arena.html" target="_top" xlink:title=" ">
<polygon fill="white" stroke="black" points="0,-0.5 0,-30.5 138,-30.5 138,-0.5 0,-0.5"/>
<text text-anchor="start" x="8" y="-18.5" font-family="Helvetica,sans-Serif" font-size="10.00">pre::memory_arena&lt;</text>
<text text-anchor="middle" x="69" y="-7.5" font-family="Helvetica,sans-Serif" font-size="10.00"> std::allocator&lt; char &gt; &gt;</text>
</a>
</g>
</g>
<!-- Node1&#45;&gt;Node2 -->
<g id="edge1" class="edge">
<title>Node1&#45;&gt;Node2</title>
<path fill="none" stroke="orange" stroke-dasharray="5,2" d="M69,-68.09C69,-55.76 69,-41.22 69,-30.73"/>
<polygon fill="orange" stroke="orange" points="65.5,-68.2 69,-78.2 72.5,-68.21 65.5,-68.2"/>
<text text-anchor="middle" x="135.5" y="-52" font-family="Helvetica,sans-Serif" font-size="10.00"> &lt; std::allocator&lt; char &gt; &gt;</text>
</g>
</g>
</svg>
