<?xml version="1.0" encoding="UTF-8" standalone="no"?>
<!DOCTYPE svg PUBLIC "-//W3C//DTD SVG 1.1//EN"
 "http://www.w3.org/Graphics/SVG/1.1/DTD/svg11.dtd">
<!-- Generated by graphviz version 2.40.1 (20161225.0304)
 -->
<!-- Title: pr::aabb&lt; T, N &gt; Pages: 1 -->
<svg width="258pt" height="95pt"
 viewBox="0.00 0.00 258.00 95.00" xmlns="http://www.w3.org/2000/svg" xmlns:xlink="http://www.w3.org/1999/xlink">
<g id="graph0" class="graph" transform="scale(1 1) rotate(0) translate(4 91)">
<title>pr::aabb&lt; T, N &gt;</title>
<polygon fill="#ffffff" stroke="transparent" points="-4,4 -4,-91 254,-91 254,4 -4,4"/>
<!-- Node0 -->
<g id="node1" class="node">
<title>Node0</title>
<polygon fill="#bfbfbf" stroke="#000000" points="76.5,-67.5 76.5,-86.5 165.5,-86.5 165.5,-67.5 76.5,-67.5"/>
<text text-anchor="middle" x="121" y="-74.5" font-family="Helvetica,sans-Serif" font-size="10.00" fill="#000000">pr::aabb&lt; T, N &gt;</text>
</g>
<!-- Node1 -->
<g id="node2" class="node">
<title>Node1</title>
<g id="a_node2"><a xlink:href="classpr_1_1aabb.html" target="_top" xlink:title="pr::aabb\&lt; Tfloat, N \&gt;">
<polygon fill="#ffffff" stroke="#000000" points="0,-.5 0,-19.5 108,-19.5 108,-.5 0,-.5"/>
<text text-anchor="middle" x="54" y="-7.5" font-family="Helvetica,sans-Serif" font-size="10.00" fill="#000000">pr::aabb&lt; Tfloat, N &gt;</text>
</a>
</g>
</g>
<!-- Node0&#45;&gt;Node1 -->
<g id="edge1" class="edge">
<title>Node0&#45;&gt;Node1</title>
<path fill="none" stroke="#ffa500" stroke-dasharray="5,2" d="M104.0785,-60.0785C91.2639,-47.2639 74.1218,-30.1218 63.5817,-19.5817"/>
<polygon fill="#ffa500" stroke="#ffa500" points="101.8546,-62.8043 111.4005,-67.4005 106.8043,-57.8546 101.8546,-62.8043"/>
<text text-anchor="middle" x="122" y="-41" font-family="Helvetica,sans-Serif" font-size="10.00" fill="#000000"> &lt; Tfloat, N &gt;</text>
</g>
<!-- Node2 -->
<g id="node3" class="node">
<title>Node2</title>
<g id="a_node3"><a xlink:href="classpr_1_1aabb.html" target="_top" xlink:title="pr::aabb\&lt; float_type, 3 \&gt;">
<polygon fill="#ffffff" stroke="#000000" points="126,-.5 126,-19.5 250,-19.5 250,-.5 126,-.5"/>
<text text-anchor="middle" x="188" y="-7.5" font-family="Helvetica,sans-Serif" font-size="10.00" fill="#000000">pr::aabb&lt; float_type, 3 &gt;</text>
</a>
</g>
</g>
<!-- Node0&#45;&gt;Node2 -->
<g id="edge2" class="edge">
<title>Node0&#45;&gt;Node2</title>
<path fill="none" stroke="#ffa500" stroke-dasharray="5,2" d="M142.2908,-61.1392C146.9667,-57.3393 151.7785,-53.1695 156,-49 165.347,-39.7681 174.7268,-27.9652 180.8919,-19.7738"/>
<polygon fill="#ffa500" stroke="#ffa500" points="139.8881,-58.5755 134.1777,-67.4998 144.207,-64.0844 139.8881,-58.5755"/>
<text text-anchor="middle" x="203" y="-41" font-family="Helvetica,sans-Serif" font-size="10.00" fill="#000000"> &lt; float_type, 3 &gt;</text>
</g>
</g>
</svg>
