<?xml version="1.0" encoding="UTF-8" standalone="no"?>
<!DOCTYPE svg PUBLIC "-//W3C//DTD SVG 1.1//EN"
 "http://www.w3.org/Graphics/SVG/1.1/DTD/svg11.dtd">
<!-- Generated by graphviz version 2.43.0 (0)
 -->
<!-- Title: Graphical Class Hierarchy Pages: 1 -->
<svg width="342pt" height="72pt"
 viewBox="0.00 0.00 342.00 72.00" xmlns="http://www.w3.org/2000/svg" xmlns:xlink="http://www.w3.org/1999/xlink">
<g id="graph0" class="graph" transform="scale(1 1) rotate(0) translate(4 68)">
<title>Graphical Class Hierarchy</title>
<polygon fill="white" stroke="transparent" points="-4,4 -4,-68 338,-68 338,4 -4,4"/>
<!-- Node0 -->
<g id="node1" class="node">
<title>Node0</title>
<g id="a_node1"><a xlink:href="classpre_1_1block__array3.html" target="_top" xlink:title=" ">
<polygon fill="white" stroke="black" points="0,-0.5 0,-63.5 180,-63.5 180,-0.5 0,-0.5"/>
<text text-anchor="start" x="8" y="-51.5" font-family="Helvetica,sans-Serif" font-size="10.00">pre::block_array3&lt;</text>
<text text-anchor="start" x="8" y="-40.5" font-family="Helvetica,sans-Serif" font-size="10.00"> multi&lt; T, N &gt;, std</text>
<text text-anchor="start" x="8" y="-29.5" font-family="Helvetica,sans-Serif" font-size="10.00">::allocator_traits&lt; std</text>
<text text-anchor="start" x="8" y="-18.5" font-family="Helvetica,sans-Serif" font-size="10.00">::allocator&lt; T &gt; &gt;::template</text>
<text text-anchor="middle" x="90" y="-7.5" font-family="Helvetica,sans-Serif" font-size="10.00"> rebind_alloc&lt; multi&lt; T, N &gt; &gt; &gt;</text>
</a>
</g>
</g>
<!-- Node1 -->
<g id="node2" class="node">
<title>Node1</title>
<g id="a_node2"><a xlink:href="classpre_1_1image3.html" target="_top" xlink:title="Image (3&#45;dimensional).">
<polygon fill="white" stroke="black" points="216,-17 216,-47 334,-47 334,-17 216,-17"/>
<text text-anchor="start" x="224" y="-35" font-family="Helvetica,sans-Serif" font-size="10.00">pre::image3&lt; Tfloat,</text>
<text text-anchor="middle" x="275" y="-24" font-family="Helvetica,sans-Serif" font-size="10.00"> T, N, Talloc &gt;</text>
</a>
</g>
</g>
<!-- Node0&#45;&gt;Node1 -->
<g id="edge1" class="edge">
<title>Node0&#45;&gt;Node1</title>
<path fill="none" stroke="midnightblue" d="M190.36,-32C199.09,-32 207.72,-32 215.94,-32"/>
<polygon fill="midnightblue" stroke="midnightblue" points="190.09,-28.5 180.09,-32 190.09,-35.5 190.09,-28.5"/>
</g>
</g>
</svg>
