<?xml version="1.0" encoding="UTF-8" standalone="no"?>
<!DOCTYPE svg PUBLIC "-//W3C//DTD SVG 1.1//EN"
 "http://www.w3.org/Graphics/SVG/1.1/DTD/svg11.dtd">
<!-- Generated by graphviz version 2.40.1 (20161225.0304)
 -->
<!-- Title: Graphical Class Hierarchy Pages: 1 -->
<svg width="327pt" height="61pt"
 viewBox="0.00 0.00 327.00 61.00" xmlns="http://www.w3.org/2000/svg" xmlns:xlink="http://www.w3.org/1999/xlink">
<g id="graph0" class="graph" transform="scale(1 1) rotate(0) translate(4 57)">
<title>Graphical Class Hierarchy</title>
<polygon fill="#ffffff" stroke="transparent" points="-4,4 -4,-57 323,-57 323,4 -4,4"/>
<!-- Node0 -->
<g id="node1" class="node">
<title>Node0</title>
<g id="a_node1"><a xlink:href="structpre_1_1microsurface.html" target="_top" xlink:title="pre::microsurface\&lt;\l microsurface_conductive\l_brdf\&lt; Tfloat, Tslope,\l Theight \&gt;, true \&gt;">
<polygon fill="#ffffff" stroke="#000000" points="0,-.5 0,-52.5 128,-52.5 128,-.5 0,-.5"/>
<text text-anchor="start" x="8" y="-40.5" font-family="Helvetica,sans-Serif" font-size="10.00" fill="#000000">pre::microsurface&lt;</text>
<text text-anchor="start" x="8" y="-29.5" font-family="Helvetica,sans-Serif" font-size="10.00" fill="#000000"> microsurface_conductive</text>
<text text-anchor="start" x="8" y="-18.5" font-family="Helvetica,sans-Serif" font-size="10.00" fill="#000000">_brdf&lt; Tfloat, Tslope,</text>
<text text-anchor="middle" x="64" y="-7.5" font-family="Helvetica,sans-Serif" font-size="10.00" fill="#000000"> Theight &gt;, true &gt;</text>
</a>
</g>
</g>
<!-- Node1 -->
<g id="node2" class="node">
<title>Node1</title>
<g id="a_node2"><a xlink:href="structpre_1_1microsurface__conductive__brdf.html" target="_top" xlink:title="Microsurface from conductive BRDF. ">
<polygon fill="#ffffff" stroke="#000000" points="164,-11.5 164,-41.5 319,-41.5 319,-11.5 164,-11.5"/>
<text text-anchor="start" x="172" y="-29.5" font-family="Helvetica,sans-Serif" font-size="10.00" fill="#000000">pre::microsurface_conductive</text>
<text text-anchor="middle" x="241.5" y="-18.5" font-family="Helvetica,sans-Serif" font-size="10.00" fill="#000000">_brdf&lt; Tfloat, Tslope, Theight &gt;</text>
</a>
</g>
</g>
<!-- Node0&#45;&gt;Node1 -->
<g id="edge1" class="edge">
<title>Node0&#45;&gt;Node1</title>
<path fill="none" stroke="#191970" d="M138.289,-26.5C146.7481,-26.5 155.3873,-26.5 163.888,-26.5"/>
<polygon fill="#191970" stroke="#191970" points="138.0816,-23.0001 128.0816,-26.5 138.0815,-30.0001 138.0816,-23.0001"/>
</g>
</g>
</svg>
