<?xml version="1.0" encoding="UTF-8" standalone="no"?>
<!DOCTYPE svg PUBLIC "-//W3C//DTD SVG 1.1//EN"
 "http://www.w3.org/Graphics/SVG/1.1/DTD/svg11.dtd">
<!-- Generated by graphviz version 2.40.1 (20161225.0304)
 -->
<!-- Title: Graphical Class Hierarchy Pages: 1 -->
<svg width="289pt" height="137pt"
 viewBox="0.00 0.00 289.00 137.00" xmlns="http://www.w3.org/2000/svg" xmlns:xlink="http://www.w3.org/1999/xlink">
<g id="graph0" class="graph" transform="scale(1 1) rotate(0) translate(4 133)">
<title>Graphical Class Hierarchy</title>
<polygon fill="#ffffff" stroke="transparent" points="-4,4 -4,-133 285,-133 285,4 -4,4"/>
<!-- Node0 -->
<g id="node1" class="node">
<title>Node0</title>
<g id="a_node1"><a xlink:href="structpr_1_1microsurface.html" target="_top" xlink:title="Microsurface. ">
<polygon fill="#ffffff" stroke="#000000" points="0,-49.5 0,-79.5 105,-79.5 105,-49.5 0,-49.5"/>
<text text-anchor="start" x="8" y="-67.5" font-family="Helvetica,sans-Serif" font-size="10.00" fill="#000000">pr::microsurface&lt; T,</text>
<text text-anchor="middle" x="52.5" y="-56.5" font-family="Helvetica,sans-Serif" font-size="10.00" fill="#000000"> Tslope, Theight &gt;</text>
</a>
</g>
</g>
<!-- Node1 -->
<g id="node2" class="node">
<title>Node1</title>
<g id="a_node2"><a xlink:href="structpr_1_1microsurface__conductive__brdf.html" target="_top" xlink:title="Microsurface conductive BRDF. ">
<polygon fill="#ffffff" stroke="#000000" points="141,-98.5 141,-128.5 281,-128.5 281,-98.5 141,-98.5"/>
<text text-anchor="start" x="149" y="-116.5" font-family="Helvetica,sans-Serif" font-size="10.00" fill="#000000">pr::microsurface_conductive</text>
<text text-anchor="middle" x="211" y="-105.5" font-family="Helvetica,sans-Serif" font-size="10.00" fill="#000000">_brdf&lt; T, Tslope, Theight &gt;</text>
</a>
</g>
</g>
<!-- Node0&#45;&gt;Node1 -->
<g id="edge1" class="edge">
<title>Node0&#45;&gt;Node1</title>
<path fill="none" stroke="#191970" d="M111.0897,-82.6129C127.9402,-87.8222 146.1304,-93.4457 162.3128,-98.4484"/>
<polygon fill="#191970" stroke="#191970" points="111.9362,-79.2112 101.3485,-79.6014 109.8686,-85.8989 111.9362,-79.2112"/>
</g>
<!-- Node2 -->
<g id="node3" class="node">
<title>Node2</title>
<g id="a_node3"><a xlink:href="structpr_1_1microsurface__dielectric__bsdf.html" target="_top" xlink:title="Microsurface dielectric BSDF. ">
<polygon fill="#ffffff" stroke="#000000" points="142,-49.5 142,-79.5 280,-79.5 280,-49.5 142,-49.5"/>
<text text-anchor="start" x="150" y="-67.5" font-family="Helvetica,sans-Serif" font-size="10.00" fill="#000000">pr::microsurface_dielectric</text>
<text text-anchor="middle" x="211" y="-56.5" font-family="Helvetica,sans-Serif" font-size="10.00" fill="#000000">_bsdf&lt; T, Tslope, Theight &gt;</text>
</a>
</g>
</g>
<!-- Node0&#45;&gt;Node2 -->
<g id="edge2" class="edge">
<title>Node0&#45;&gt;Node2</title>
<path fill="none" stroke="#191970" d="M115.336,-64.5C124.0344,-64.5 133.0088,-64.5 141.8146,-64.5"/>
<polygon fill="#191970" stroke="#191970" points="115.2782,-61.0001 105.2782,-64.5 115.2782,-68.0001 115.2782,-61.0001"/>
</g>
<!-- Node3 -->
<g id="node4" class="node">
<title>Node3</title>
<g id="a_node4"><a xlink:href="structpr_1_1microsurface__lambertian__brdf.html" target="_top" xlink:title="Microsurface Lambertian BRDF. ">
<polygon fill="#ffffff" stroke="#000000" points="142.5,-.5 142.5,-30.5 279.5,-30.5 279.5,-.5 142.5,-.5"/>
<text text-anchor="start" x="150.5" y="-18.5" font-family="Helvetica,sans-Serif" font-size="10.00" fill="#000000">pr::microsurface_lambertian</text>
<text text-anchor="middle" x="211" y="-7.5" font-family="Helvetica,sans-Serif" font-size="10.00" fill="#000000">_brdf&lt; T, Tslope, Theight &gt;</text>
</a>
</g>
</g>
<!-- Node0&#45;&gt;Node3 -->
<g id="edge3" class="edge">
<title>Node0&#45;&gt;Node3</title>
<path fill="none" stroke="#191970" d="M111.0897,-46.3871C127.9402,-41.1778 146.1304,-35.5543 162.3128,-30.5516"/>
<polygon fill="#191970" stroke="#191970" points="109.8686,-43.1011 101.3485,-49.3986 111.9362,-49.7888 109.8686,-43.1011"/>
</g>
</g>
</svg>
