<?xml version="1.0" encoding="UTF-8" standalone="no"?>
<!DOCTYPE svg PUBLIC "-//W3C//DTD SVG 1.1//EN"
 "http://www.w3.org/Graphics/SVG/1.1/DTD/svg11.dtd">
<!-- Generated by graphviz version 2.43.0 (0)
 -->
<!-- Title: Graphical Class Hierarchy Pages: 1 -->
<svg width="359pt" height="61pt"
 viewBox="0.00 0.00 359.00 61.00" xmlns="http://www.w3.org/2000/svg" xmlns:xlink="http://www.w3.org/1999/xlink">
<g id="graph0" class="graph" transform="scale(1 1) rotate(0) translate(4 57)">
<title>Graphical Class Hierarchy</title>
<polygon fill="white" stroke="transparent" points="-4,4 -4,-57 355,-57 355,4 -4,4"/>
<!-- Node0 -->
<g id="node1" class="node">
<title>Node0</title>
<g id="a_node1"><a xlink:href="structpre_1_1microsurface.html" target="_top" xlink:title=" ">
<polygon fill="white" stroke="black" points="0,-0.5 0,-52.5 142,-52.5 142,-0.5 0,-0.5"/>
<text text-anchor="start" x="8" y="-40.5" font-family="Helvetica,sans-Serif" font-size="10.00">pre::microsurface&lt;</text>
<text text-anchor="start" x="8" y="-29.5" font-family="Helvetica,sans-Serif" font-size="10.00"> microsurface_lambertian</text>
<text text-anchor="start" x="8" y="-18.5" font-family="Helvetica,sans-Serif" font-size="10.00">_bsdf&lt; Tfloat, Tslope,</text>
<text text-anchor="middle" x="71" y="-7.5" font-family="Helvetica,sans-Serif" font-size="10.00"> Theight &gt;, false &gt;</text>
</a>
</g>
</g>
<!-- Node1 -->
<g id="node2" class="node">
<title>Node1</title>
<g id="a_node2"><a xlink:href="structpre_1_1microsurface__lambertian__bsdf.html" target="_top" xlink:title="Microsurface from Lambertian BSDF.">
<polygon fill="white" stroke="black" points="178,-11.5 178,-41.5 351,-41.5 351,-11.5 178,-11.5"/>
<text text-anchor="start" x="186" y="-29.5" font-family="Helvetica,sans-Serif" font-size="10.00">pre::microsurface_lambertian</text>
<text text-anchor="middle" x="264.5" y="-18.5" font-family="Helvetica,sans-Serif" font-size="10.00">_bsdf&lt; Tfloat, Tslope, Theight &gt;</text>
</a>
</g>
</g>
<!-- Node0&#45;&gt;Node1 -->
<g id="edge1" class="edge">
<title>Node0&#45;&gt;Node1</title>
<path fill="none" stroke="midnightblue" d="M152.43,-26.5C160.88,-26.5 169.49,-26.5 178,-26.5"/>
<polygon fill="midnightblue" stroke="midnightblue" points="152.22,-23 142.22,-26.5 152.22,-30 152.22,-23"/>
</g>
</g>
</svg>
