<?xml version="1.0" encoding="UTF-8" standalone="no"?>
<!DOCTYPE svg PUBLIC "-//W3C//DTD SVG 1.1//EN"
 "http://www.w3.org/Graphics/SVG/1.1/DTD/svg11.dtd">
<!-- Generated by graphviz version 2.40.1 (20161225.0304)
 -->
<!-- Title: Graphical Class Hierarchy Pages: 1 -->
<svg width="295pt" height="88pt"
 viewBox="0.00 0.00 295.00 88.00" xmlns="http://www.w3.org/2000/svg" xmlns:xlink="http://www.w3.org/1999/xlink">
<g id="graph0" class="graph" transform="scale(1 1) rotate(0) translate(4 84)">
<title>Graphical Class Hierarchy</title>
<polygon fill="#ffffff" stroke="transparent" points="-4,4 -4,-84 291,-84 291,4 -4,4"/>
<!-- Node0 -->
<g id="node1" class="node">
<title>Node0</title>
<g id="a_node1"><a xlink:href="structpr_1_1microvolume__sggx.html" target="_top" xlink:title="Microvolume with SGGX distribution. ">
<polygon fill="#ffffff" stroke="#000000" points="0,-30 0,-49 137,-49 137,-30 0,-30"/>
<text text-anchor="middle" x="68.5" y="-37" font-family="Helvetica,sans-Serif" font-size="10.00" fill="#000000">pr::microvolume_sggx&lt; T &gt;</text>
</a>
</g>
</g>
<!-- Node1 -->
<g id="node2" class="node">
<title>Node1</title>
<g id="a_node2"><a xlink:href="structpr_1_1microvolume__sggx__diffuse__phase.html" target="_top" xlink:title="Microvolume SGGX diffuse (reflection) phase. ">
<polygon fill="#ffffff" stroke="#000000" points="173.5,-49.5 173.5,-79.5 286.5,-79.5 286.5,-49.5 173.5,-49.5"/>
<text text-anchor="start" x="181.5" y="-67.5" font-family="Helvetica,sans-Serif" font-size="10.00" fill="#000000">pr::microvolume_sggx</text>
<text text-anchor="middle" x="230" y="-56.5" font-family="Helvetica,sans-Serif" font-size="10.00" fill="#000000">_diffuse_phase&lt; T &gt;</text>
</a>
</g>
</g>
<!-- Node0&#45;&gt;Node1 -->
<g id="edge1" class="edge">
<title>Node0&#45;&gt;Node1</title>
<path fill="none" stroke="#191970" d="M140.1605,-50.593C151.3043,-52.318 162.682,-54.0793 173.4301,-55.743"/>
<polygon fill="#191970" stroke="#191970" points="140.4347,-47.0938 130.0169,-49.0227 139.3638,-54.0114 140.4347,-47.0938"/>
</g>
<!-- Node2 -->
<g id="node3" class="node">
<title>Node2</title>
<g id="a_node3"><a xlink:href="structpr_1_1microvolume__sggx__specular__phase.html" target="_top" xlink:title="Microvolume SGGX specular (reflection) phase. ">
<polygon fill="#ffffff" stroke="#000000" points="173,-.5 173,-30.5 287,-30.5 287,-.5 173,-.5"/>
<text text-anchor="start" x="181" y="-18.5" font-family="Helvetica,sans-Serif" font-size="10.00" fill="#000000">pr::microvolume_sggx</text>
<text text-anchor="middle" x="230" y="-7.5" font-family="Helvetica,sans-Serif" font-size="10.00" fill="#000000">_specular_phase&lt; T &gt;</text>
</a>
</g>
</g>
<!-- Node0&#45;&gt;Node2 -->
<g id="edge2" class="edge">
<title>Node0&#45;&gt;Node2</title>
<path fill="none" stroke="#191970" d="M142.8475,-28.4515C152.9707,-26.9471 163.2289,-25.4226 172.9804,-23.9735"/>
<polygon fill="#191970" stroke="#191970" points="142.17,-25.0136 132.7931,-29.9456 143.199,-31.9376 142.17,-25.0136"/>
</g>
</g>
</svg>
