<?xml version="1.0" encoding="UTF-8" standalone="no"?>
<!DOCTYPE svg PUBLIC "-//W3C//DTD SVG 1.1//EN"
 "http://www.w3.org/Graphics/SVG/1.1/DTD/svg11.dtd">
<!-- Generated by graphviz version 2.40.1 (20161225.0304)
 -->
<!-- Title: Graphical Class Hierarchy Pages: 1 -->
<svg width="272pt" height="72pt"
 viewBox="0.00 0.00 272.00 72.00" xmlns="http://www.w3.org/2000/svg" xmlns:xlink="http://www.w3.org/1999/xlink">
<g id="graph0" class="graph" transform="scale(1 1) rotate(0) translate(4 68)">
<title>Graphical Class Hierarchy</title>
<polygon fill="#ffffff" stroke="transparent" points="-4,4 -4,-68 268,-68 268,4 -4,4"/>
<!-- Node0 -->
<g id="node1" class="node">
<title>Node0</title>
<g id="a_node1"><a xlink:href="classpre_1_1block__array2.html" target="_top" xlink:title="pre::block_array2\&lt;\l multi\&lt; T, N \&gt;, std\l::allocator_traits\&lt; Talloc\l \&gt;::template rebind_alloc\l\&lt; multi\&lt; T, N \&gt; \&gt; \&gt;">
<polygon fill="#ffffff" stroke="#000000" points="0,-.5 0,-63.5 124,-63.5 124,-.5 0,-.5"/>
<text text-anchor="start" x="8" y="-51.5" font-family="Helvetica,sans-Serif" font-size="10.00" fill="#000000">pre::block_array2&lt;</text>
<text text-anchor="start" x="8" y="-40.5" font-family="Helvetica,sans-Serif" font-size="10.00" fill="#000000"> multi&lt; T, N &gt;, std</text>
<text text-anchor="start" x="8" y="-29.5" font-family="Helvetica,sans-Serif" font-size="10.00" fill="#000000">::allocator_traits&lt; Talloc</text>
<text text-anchor="start" x="8" y="-18.5" font-family="Helvetica,sans-Serif" font-size="10.00" fill="#000000"> &gt;::template rebind_alloc</text>
<text text-anchor="middle" x="62" y="-7.5" font-family="Helvetica,sans-Serif" font-size="10.00" fill="#000000">&lt; multi&lt; T, N &gt; &gt; &gt;</text>
</a>
</g>
</g>
<!-- Node1 -->
<g id="node2" class="node">
<title>Node1</title>
<g id="a_node2"><a xlink:href="classpre_1_1image2.html" target="_top" xlink:title="Image (2&#45;dimensional). ">
<polygon fill="#ffffff" stroke="#000000" points="160,-17 160,-47 264,-47 264,-17 160,-17"/>
<text text-anchor="start" x="168" y="-35" font-family="Helvetica,sans-Serif" font-size="10.00" fill="#000000">pre::image2&lt; Tfloat,</text>
<text text-anchor="middle" x="212" y="-24" font-family="Helvetica,sans-Serif" font-size="10.00" fill="#000000"> T, N, Talloc &gt;</text>
</a>
</g>
</g>
<!-- Node0&#45;&gt;Node1 -->
<g id="edge1" class="edge">
<title>Node0&#45;&gt;Node1</title>
<path fill="none" stroke="#191970" d="M134.5799,-32C143.0394,-32 151.5401,-32 159.6508,-32"/>
<polygon fill="#191970" stroke="#191970" points="134.3104,-28.5001 124.3104,-32 134.3103,-35.5001 134.3104,-28.5001"/>
</g>
</g>
</svg>
