<?xml version="1.0" encoding="UTF-8" standalone="no"?>
<!DOCTYPE svg PUBLIC "-//W3C//DTD SVG 1.1//EN"
 "http://www.w3.org/Graphics/SVG/1.1/DTD/svg11.dtd">
<!-- Generated by graphviz version 2.40.1 (20161225.0304)
 -->
<!-- Title: Graphical Class Hierarchy Pages: 1 -->
<svg width="300pt" height="61pt"
 viewBox="0.00 0.00 300.00 61.00" xmlns="http://www.w3.org/2000/svg" xmlns:xlink="http://www.w3.org/1999/xlink">
<g id="graph0" class="graph" transform="scale(1 1) rotate(0) translate(4 57)">
<title>Graphical Class Hierarchy</title>
<polygon fill="#ffffff" stroke="transparent" points="-4,4 -4,-57 296,-57 296,4 -4,4"/>
<!-- Node0 -->
<g id="node1" class="node">
<title>Node0</title>
<g id="a_node1"><a xlink:href="classpr_1_1block__array3.html" target="_top" xlink:title="pr::block_array3\&lt; multi\l\&lt; T, N \&gt;, std::allocator\l_traits\&lt; Talloc \&gt;::template\l rebind_alloc\&lt; multi\&lt; T, N \&gt; \&gt; \&gt;">
<polygon fill="#ffffff" stroke="#000000" points="0,-.5 0,-52.5 157,-52.5 157,-.5 0,-.5"/>
<text text-anchor="start" x="8" y="-40.5" font-family="Helvetica,sans-Serif" font-size="10.00" fill="#000000">pr::block_array3&lt; multi</text>
<text text-anchor="start" x="8" y="-29.5" font-family="Helvetica,sans-Serif" font-size="10.00" fill="#000000">&lt; T, N &gt;, std::allocator</text>
<text text-anchor="start" x="8" y="-18.5" font-family="Helvetica,sans-Serif" font-size="10.00" fill="#000000">_traits&lt; Talloc &gt;::template</text>
<text text-anchor="middle" x="78.5" y="-7.5" font-family="Helvetica,sans-Serif" font-size="10.00" fill="#000000"> rebind_alloc&lt; multi&lt; T, N &gt; &gt; &gt;</text>
</a>
</g>
</g>
<!-- Node1 -->
<g id="node2" class="node">
<title>Node1</title>
<g id="a_node2"><a xlink:href="classpr_1_1image3.html" target="_top" xlink:title="Image (3&#45;dimensional). ">
<polygon fill="#ffffff" stroke="#000000" points="193,-11.5 193,-41.5 292,-41.5 292,-11.5 193,-11.5"/>
<text text-anchor="start" x="201" y="-29.5" font-family="Helvetica,sans-Serif" font-size="10.00" fill="#000000">pr::image3&lt; Tfloat,</text>
<text text-anchor="middle" x="242.5" y="-18.5" font-family="Helvetica,sans-Serif" font-size="10.00" fill="#000000"> T, N, Talloc &gt;</text>
</a>
</g>
</g>
<!-- Node0&#45;&gt;Node1 -->
<g id="edge1" class="edge">
<title>Node0&#45;&gt;Node1</title>
<path fill="none" stroke="#191970" d="M167.4026,-26.5C176.1263,-26.5 184.7449,-26.5 192.86,-26.5"/>
<polygon fill="#191970" stroke="#191970" points="167.1376,-23.0001 157.1376,-26.5 167.1375,-30.0001 167.1376,-23.0001"/>
</g>
</g>
</svg>
