<?xml version="1.0" encoding="UTF-8" standalone="no"?>
<!DOCTYPE svg PUBLIC "-//W3C//DTD SVG 1.1//EN"
 "http://www.w3.org/Graphics/SVG/1.1/DTD/svg11.dtd">
<!-- Generated by graphviz version 2.40.1 (20161225.0304)
 -->
<!-- Title: Graphical Class Hierarchy Pages: 1 -->
<svg width="353pt" height="50pt"
 viewBox="0.00 0.00 353.00 50.00" xmlns="http://www.w3.org/2000/svg" xmlns:xlink="http://www.w3.org/1999/xlink">
<g id="graph0" class="graph" transform="scale(1 1) rotate(0) translate(4 46)">
<title>Graphical Class Hierarchy</title>
<polygon fill="#ffffff" stroke="transparent" points="-4,4 -4,-46 349,-46 349,4 -4,4"/>
<!-- Node0 -->
<g id="node1" class="node">
<title>Node0</title>
<g id="a_node1"><a xlink:href="structpr_1_1microsurface.html" target="_top" xlink:title="pr::microsurface\&lt; microsurface\l_lambertian_bsdf\&lt; Tfloat,\l Tslope, Theight \&gt; \&gt;">
<polygon fill="#ffffff" stroke="#000000" points="0,-.5 0,-41.5 152,-41.5 152,-.5 0,-.5"/>
<text text-anchor="start" x="8" y="-29.5" font-family="Helvetica,sans-Serif" font-size="10.00" fill="#000000">pr::microsurface&lt; microsurface</text>
<text text-anchor="start" x="8" y="-18.5" font-family="Helvetica,sans-Serif" font-size="10.00" fill="#000000">_lambertian_bsdf&lt; Tfloat,</text>
<text text-anchor="middle" x="76" y="-7.5" font-family="Helvetica,sans-Serif" font-size="10.00" fill="#000000"> Tslope, Theight &gt; &gt;</text>
</a>
</g>
</g>
<!-- Node1 -->
<g id="node2" class="node">
<title>Node1</title>
<g id="a_node2"><a xlink:href="structpr_1_1microsurface__lambertian__bsdf.html" target="_top" xlink:title="Microsurface from Lambertian BSDF. ">
<polygon fill="#ffffff" stroke="#000000" points="188,-6 188,-36 345,-36 345,-6 188,-6"/>
<text text-anchor="start" x="196" y="-24" font-family="Helvetica,sans-Serif" font-size="10.00" fill="#000000">pr::microsurface_lambertian</text>
<text text-anchor="middle" x="266.5" y="-13" font-family="Helvetica,sans-Serif" font-size="10.00" fill="#000000">_bsdf&lt; Tfloat, Tslope, Theight &gt;</text>
</a>
</g>
</g>
<!-- Node0&#45;&gt;Node1 -->
<g id="edge1" class="edge">
<title>Node0&#45;&gt;Node1</title>
<path fill="none" stroke="#191970" d="M162.3503,-21C170.797,-21 179.3379,-21 187.7042,-21"/>
<polygon fill="#191970" stroke="#191970" points="162.112,-17.5001 152.1119,-21 162.1119,-24.5001 162.112,-17.5001"/>
</g>
</g>
</svg>
