<?xml version="1.0" encoding="UTF-8" standalone="no"?>
<!DOCTYPE svg PUBLIC "-//W3C//DTD SVG 1.1//EN"
 "http://www.w3.org/Graphics/SVG/1.1/DTD/svg11.dtd">
<!-- Generated by graphviz version 2.40.1 (20161225.0304)
 -->
<!-- Title: Graphical Class Hierarchy Pages: 1 -->
<svg width="258pt" height="230pt"
 viewBox="0.00 0.00 258.00 230.00" xmlns="http://www.w3.org/2000/svg" xmlns:xlink="http://www.w3.org/1999/xlink">
<g id="graph0" class="graph" transform="scale(1 1) rotate(0) translate(4 226)">
<title>Graphical Class Hierarchy</title>
<polygon fill="#ffffff" stroke="transparent" points="-4,4 -4,-226 254,-226 254,4 -4,4"/>
<!-- Node0 -->
<g id="node1" class="node">
<title>Node0</title>
<g id="a_node1"><a xlink:href="structpr_1_1conj__null.html" target="_top" xlink:title="Null conjugate policy. ">
<polygon fill="#ffffff" stroke="#000000" points="0,-107 0,-126 93,-126 93,-107 0,-107"/>
<text text-anchor="middle" x="46.5" y="-114" font-family="Helvetica,sans-Serif" font-size="10.00" fill="#000000">pr::conj_null&lt; T &gt;</text>
</a>
</g>
</g>
<!-- Node1 -->
<g id="node2" class="node">
<title>Node1</title>
<g id="a_node2"><a xlink:href="structpr_1_1conj__dual_3_01std_1_1complex_3_01T_01_4_01_4.html" target="_top" xlink:title="Dual conjugate policy (complex). ">
<polygon fill="#ffffff" stroke="#000000" points="142,-191.5 142,-221.5 237,-221.5 237,-191.5 142,-191.5"/>
<text text-anchor="start" x="150" y="-209.5" font-family="Helvetica,sans-Serif" font-size="10.00" fill="#000000">pr::conj_dual&lt; std</text>
<text text-anchor="middle" x="189.5" y="-198.5" font-family="Helvetica,sans-Serif" font-size="10.00" fill="#000000">::complex&lt; T &gt; &gt;</text>
</a>
</g>
</g>
<!-- Node0&#45;&gt;Node1 -->
<g id="edge1" class="edge">
<title>Node0&#45;&gt;Node1</title>
<path fill="none" stroke="#191970" d="M63.9455,-133.0301C79.913,-147.5067 104.6881,-168.3791 129,-182.5 134.5696,-185.7349 140.6583,-188.7191 146.7588,-191.4038"/>
<polygon fill="#191970" stroke="#191970" points="66.1706,-130.3209 56.4474,-126.1125 61.424,-135.4658 66.1706,-130.3209"/>
</g>
<!-- Node2 -->
<g id="node3" class="node">
<title>Node2</title>
<g id="a_node3"><a xlink:href="structpr_1_1conj__dual_3_01T_00_01void__t_3_01std_1_1enable__if__t_3_01std_1_1is__arithmetic_3_010fc591a2a6f037245fa45638e303bea.html" target="_top" xlink:title="Dual conjugate policy (arithmetic). ">
<polygon fill="#ffffff" stroke="#000000" points="134,-120.5 134,-172.5 245,-172.5 245,-120.5 134,-120.5"/>
<text text-anchor="start" x="142" y="-160.5" font-family="Helvetica,sans-Serif" font-size="10.00" fill="#000000">pr::conj_dual&lt; T, void</text>
<text text-anchor="start" x="142" y="-149.5" font-family="Helvetica,sans-Serif" font-size="10.00" fill="#000000">_t&lt; std::enable_if_t&lt;</text>
<text text-anchor="start" x="142" y="-138.5" font-family="Helvetica,sans-Serif" font-size="10.00" fill="#000000"> std::is_arithmetic&lt; T</text>
<text text-anchor="middle" x="189.5" y="-127.5" font-family="Helvetica,sans-Serif" font-size="10.00" fill="#000000"> &gt;::value, T &gt; &gt; &gt;</text>
</a>
</g>
</g>
<!-- Node0&#45;&gt;Node2 -->
<g id="edge2" class="edge">
<title>Node0&#45;&gt;Node2</title>
<path fill="none" stroke="#191970" d="M101.9696,-128.137C112.4089,-130.327 123.3288,-132.6179 133.7758,-134.8096"/>
<polygon fill="#191970" stroke="#191970" points="102.6449,-124.7025 92.1393,-126.0747 101.2076,-131.5534 102.6449,-124.7025"/>
</g>
<!-- Node3 -->
<g id="node4" class="node">
<title>Node3</title>
<g id="a_node4"><a xlink:href="structpr_1_1conj__imag_3_01dualnum_3_01T_01_4_01_4.html" target="_top" xlink:title="Imag conjugate policy (dualnum). ">
<polygon fill="#ffffff" stroke="#000000" points="129,-71.5 129,-101.5 250,-101.5 250,-71.5 129,-71.5"/>
<text text-anchor="start" x="137" y="-89.5" font-family="Helvetica,sans-Serif" font-size="10.00" fill="#000000">pr::conj_imag&lt; dualnum</text>
<text text-anchor="middle" x="189.5" y="-78.5" font-family="Helvetica,sans-Serif" font-size="10.00" fill="#000000">&lt; T &gt; &gt;</text>
</a>
</g>
</g>
<!-- Node0&#45;&gt;Node3 -->
<g id="edge3" class="edge">
<title>Node0&#45;&gt;Node3</title>
<path fill="none" stroke="#191970" d="M101.9357,-104.8701C110.7698,-103.0168 119.9488,-101.0912 128.8948,-99.2144"/>
<polygon fill="#191970" stroke="#191970" points="101.2076,-101.4466 92.1393,-106.9253 102.6449,-108.2975 101.2076,-101.4466"/>
</g>
<!-- Node4 -->
<g id="node5" class="node">
<title>Node4</title>
<g id="a_node5"><a xlink:href="structpr_1_1conj__imag_3_01T_00_01void__t_3_01std_1_1enable__if__t_3_01std_1_1is__arithmetic_3_058708b40e356ab61818b1fc4df292c8e.html" target="_top" xlink:title="Imag conjugate policy (arithmetic). ">
<polygon fill="#ffffff" stroke="#000000" points="132.5,-.5 132.5,-52.5 246.5,-52.5 246.5,-.5 132.5,-.5"/>
<text text-anchor="start" x="140.5" y="-40.5" font-family="Helvetica,sans-Serif" font-size="10.00" fill="#000000">pr::conj_imag&lt; T, void</text>
<text text-anchor="start" x="140.5" y="-29.5" font-family="Helvetica,sans-Serif" font-size="10.00" fill="#000000">_t&lt; std::enable_if_t&lt;</text>
<text text-anchor="start" x="140.5" y="-18.5" font-family="Helvetica,sans-Serif" font-size="10.00" fill="#000000"> std::is_arithmetic&lt; T</text>
<text text-anchor="middle" x="189.5" y="-7.5" font-family="Helvetica,sans-Serif" font-size="10.00" fill="#000000"> &gt;::value, T &gt; &gt; &gt;</text>
</a>
</g>
</g>
<!-- Node0&#45;&gt;Node4 -->
<g id="edge4" class="edge">
<title>Node0&#45;&gt;Node4</title>
<path fill="none" stroke="#191970" d="M69.1258,-101.3163C85.6091,-90.3466 108.5401,-75.2751 129,-62.5 134.1837,-59.2633 139.6504,-55.9177 145.0918,-52.6291"/>
<polygon fill="#191970" stroke="#191970" points="67.0628,-98.4853 60.6884,-106.948 70.9489,-104.3075 67.0628,-98.4853"/>
</g>
</g>
</svg>
