<?xml version="1.0" encoding="UTF-8" standalone="no"?>
<!DOCTYPE svg PUBLIC "-//W3C//DTD SVG 1.1//EN"
 "http://www.w3.org/Graphics/SVG/1.1/DTD/svg11.dtd">
<!-- Generated by graphviz version 2.40.1 (20161225.0304)
 -->
<!-- Title: Graphical Class Hierarchy Pages: 1 -->
<svg width="321pt" height="61pt"
 viewBox="0.00 0.00 321.00 61.00" xmlns="http://www.w3.org/2000/svg" xmlns:xlink="http://www.w3.org/1999/xlink">
<g id="graph0" class="graph" transform="scale(1 1) rotate(0) translate(4 57)">
<title>Graphical Class Hierarchy</title>
<polygon fill="#ffffff" stroke="transparent" points="-4,4 -4,-57 317,-57 317,4 -4,4"/>
<!-- Node0 -->
<g id="node1" class="node">
<title>Node0</title>
<g id="a_node1"><a xlink:href="structpre_1_1microsurface.html" target="_top" xlink:title="pre::microsurface\&lt;\l microsurface_dielectric\l_bsdf\&lt; Tfloat, Tslope,\l Theight \&gt;, true \&gt;">
<polygon fill="#ffffff" stroke="#000000" points="0,-.5 0,-52.5 120,-52.5 120,-.5 0,-.5"/>
<text text-anchor="start" x="8" y="-40.5" font-family="Helvetica,sans-Serif" font-size="10.00" fill="#000000">pre::microsurface&lt;</text>
<text text-anchor="start" x="8" y="-29.5" font-family="Helvetica,sans-Serif" font-size="10.00" fill="#000000"> microsurface_dielectric</text>
<text text-anchor="start" x="8" y="-18.5" font-family="Helvetica,sans-Serif" font-size="10.00" fill="#000000">_bsdf&lt; Tfloat, Tslope,</text>
<text text-anchor="middle" x="60" y="-7.5" font-family="Helvetica,sans-Serif" font-size="10.00" fill="#000000"> Theight &gt;, true &gt;</text>
</a>
</g>
</g>
<!-- Node1 -->
<g id="node2" class="node">
<title>Node1</title>
<g id="a_node2"><a xlink:href="structpre_1_1microsurface__dielectric__bsdf.html" target="_top" xlink:title="Microsurface from dielectric BSDF. ">
<polygon fill="#ffffff" stroke="#000000" points="156,-11.5 156,-41.5 313,-41.5 313,-11.5 156,-11.5"/>
<text text-anchor="start" x="164" y="-29.5" font-family="Helvetica,sans-Serif" font-size="10.00" fill="#000000">pre::microsurface_dielectric</text>
<text text-anchor="middle" x="234.5" y="-18.5" font-family="Helvetica,sans-Serif" font-size="10.00" fill="#000000">_bsdf&lt; Tfloat, Tslope, Theight &gt;</text>
</a>
</g>
</g>
<!-- Node0&#45;&gt;Node1 -->
<g id="edge1" class="edge">
<title>Node0&#45;&gt;Node1</title>
<path fill="none" stroke="#191970" d="M130.2101,-26.5C138.6452,-26.5 147.3014,-26.5 155.8466,-26.5"/>
<polygon fill="#191970" stroke="#191970" points="130.053,-23.0001 120.053,-26.5 130.053,-30.0001 130.053,-23.0001"/>
</g>
</g>
</svg>
