<?xml version="1.0" encoding="UTF-8" standalone="no"?>
<!DOCTYPE svg PUBLIC "-//W3C//DTD SVG 1.1//EN"
 "http://www.w3.org/Graphics/SVG/1.1/DTD/svg11.dtd">
<!-- Generated by graphviz version 2.43.0 (0)
 -->
<!-- Title: pre::microsurface&lt; Tchild, bidir_mis &gt; Pages: 1 -->
<!--zoomable 203 -->
<svg id="main" version="1.1" xmlns="http://www.w3.org/2000/svg" xmlns:xlink="http://www.w3.org/1999/xlink" xml:space="preserve" onload="init(evt)">
<style type="text/css"><![CDATA[
.edge:hover path { stroke: red; }
.edge:hover polygon { stroke: red; fill: red; }
]]></style>
<script type="text/javascript"><![CDATA[
var edges = document.getElementsByTagName('g');
if (edges && edges.length) {
  for (var i=0;i<edges.length;i++) {
    if (edges[i].id.substr(0,4)=='edge') {
      edges[i].setAttribute('class','edge');
    }
  }
}
]]></script>
        <defs>
                <circle id="rim" cx="0" cy="0" r="7"/>
                <circle id="rim2" cx="0" cy="0" r="3.5"/>
                <g id="zoomPlus">
                        <use xlink:href="#rim" fill="#404040">
                                <set attributeName="fill" to="#808080" begin="zoomplus.mouseover" end="zoomplus.mouseout"/>
                        </use>
                        <path d="M-4,0h8M0,-4v8" fill="none" stroke="white" stroke-width="1.5" pointer-events="none"/>
                </g>
                <g id="zoomMin">
                        <use xlink:href="#rim" fill="#404040">
                                <set attributeName="fill" to="#808080" begin="zoomminus.mouseover" end="zoomminus.mouseout"/>
                        </use>
                        <path d="M-4,0h8" fill="none" stroke="white" stroke-width="1.5" pointer-events="none"/>
                </g>
                <g id="dirArrow">
                        <path fill="none" stroke="white" stroke-width="1.5" d="M0,-3.0v7 M-2.5,-0.5L0,-3.0L2.5,-0.5"/>
                </g>
               <g id="resetDef">
                       <use xlink:href="#rim2" fill="#404040">
                               <set attributeName="fill" to="#808080" begin="reset.mouseover" end="reset.mouseout"/>
                       </use>
               </g>
        </defs>

<script type="text/javascript">
var viewWidth = 643;
var viewHeight = 203;
var sectionId = 'dynsection-0';
</script>
<script xlink:href="svgpan.js"/>
<svg id="graph" class="graph">
<g id="viewport">
<title>pre::microsurface&lt; Tchild, bidir_mis &gt;</title>
<polygon fill="white" stroke="transparent" points="-4,4 -4,-199 639,-199 639,4 -4,4"/>
<!-- Node1 -->
<g id="node1" class="node">
<title>Node1</title>
<g id="a_node1"><a xlink:title="Microsurface prototype.">
<polygon fill="#bfbfbf" stroke="black" points="0,-82.5 0,-112.5 110,-112.5 110,-82.5 0,-82.5"/>
<text text-anchor="start" x="8" y="-100.5" font-family="Helvetica,sans-Serif" font-size="10.00">pre::microsurface&lt;</text>
<text text-anchor="middle" x="55" y="-89.5" font-family="Helvetica,sans-Serif" font-size="10.00"> Tchild, bidir_mis &gt;</text>
</a>
</g>
</g>
<!-- Node2 -->
<g id="node2" class="node">
<title>Node2</title>
<g id="a_node2"><a xlink:href="structpre_1_1microsurface.html" target="_top" xlink:title=" ">
<polygon fill="white" stroke="black" points="287,-142.5 287,-194.5 421,-194.5 421,-142.5 287,-142.5"/>
<text text-anchor="start" x="295" y="-182.5" font-family="Helvetica,sans-Serif" font-size="10.00">pre::microsurface&lt;</text>
<text text-anchor="start" x="295" y="-171.5" font-family="Helvetica,sans-Serif" font-size="10.00"> microsurface_dielectric</text>
<text text-anchor="start" x="295" y="-160.5" font-family="Helvetica,sans-Serif" font-size="10.00">_bsdf&lt; Tfloat, Tslope,</text>
<text text-anchor="middle" x="354" y="-149.5" font-family="Helvetica,sans-Serif" font-size="10.00"> Theight &gt;, true &gt;</text>
</a>
</g>
</g>
<!-- Node1&#45;&gt;Node2 -->
<g id="edge1" class="edge">
<title>Node1&#45;&gt;Node2</title>
<path fill="none" stroke="orange" stroke-dasharray="5,2" d="M89.5,-117.58C101.31,-123.87 114.91,-130.27 128,-134.5 179.88,-151.25 241.21,-159.82 286.72,-164.17"/>
<polygon fill="orange" stroke="orange" points="90.91,-114.36 80.46,-112.6 87.53,-120.49 90.91,-114.36"/>
<text text-anchor="start" x="132" y="-185.5" font-family="Helvetica,sans-Serif" font-size="10.00"> &lt; microsurface_dielectric</text>
<text text-anchor="start" x="132" y="-174.5" font-family="Helvetica,sans-Serif" font-size="10.00">_bsdf&lt; Tfloat, Tslope,</text>
<text text-anchor="middle" x="196.5" y="-163.5" font-family="Helvetica,sans-Serif" font-size="10.00"> Theight &gt;, true &gt;</text>
</g>
<!-- Node4 -->
<g id="node4" class="node">
<title>Node4</title>
<g id="a_node4"><a xlink:href="structpre_1_1microsurface.html" target="_top" xlink:title=" ">
<polygon fill="white" stroke="black" points="283,-71.5 283,-123.5 425,-123.5 425,-71.5 283,-71.5"/>
<text text-anchor="start" x="291" y="-111.5" font-family="Helvetica,sans-Serif" font-size="10.00">pre::microsurface&lt;</text>
<text text-anchor="start" x="291" y="-100.5" font-family="Helvetica,sans-Serif" font-size="10.00"> microsurface_lambertian</text>
<text text-anchor="start" x="291" y="-89.5" font-family="Helvetica,sans-Serif" font-size="10.00">_bsdf&lt; Tfloat, Tslope,</text>
<text text-anchor="middle" x="354" y="-78.5" font-family="Helvetica,sans-Serif" font-size="10.00"> Theight &gt;, false &gt;</text>
</a>
</g>
</g>
<!-- Node1&#45;&gt;Node4 -->
<g id="edge3" class="edge">
<title>Node1&#45;&gt;Node4</title>
<path fill="none" stroke="orange" stroke-dasharray="5,2" d="M120.39,-97.5C168.33,-97.5 233.74,-97.5 282.98,-97.5"/>
<polygon fill="orange" stroke="orange" points="120.13,-94 110.13,-97.5 120.13,-101 120.13,-94"/>
<text text-anchor="start" x="128" y="-122.5" font-family="Helvetica,sans-Serif" font-size="10.00"> &lt; microsurface_lambertian</text>
<text text-anchor="start" x="128" y="-111.5" font-family="Helvetica,sans-Serif" font-size="10.00">_bsdf&lt; Tfloat, Tslope,</text>
<text text-anchor="middle" x="196.5" y="-100.5" font-family="Helvetica,sans-Serif" font-size="10.00"> Theight &gt;, false &gt;</text>
</g>
<!-- Node6 -->
<g id="node6" class="node">
<title>Node6</title>
<g id="a_node6"><a xlink:href="structpre_1_1microsurface.html" target="_top" xlink:title=" ">
<polygon fill="white" stroke="black" points="283,-0.5 283,-52.5 425,-52.5 425,-0.5 283,-0.5"/>
<text text-anchor="start" x="291" y="-40.5" font-family="Helvetica,sans-Serif" font-size="10.00">pre::microsurface&lt;</text>
<text text-anchor="start" x="291" y="-29.5" font-family="Helvetica,sans-Serif" font-size="10.00"> microsurface_conductive</text>
<text text-anchor="start" x="291" y="-18.5" font-family="Helvetica,sans-Serif" font-size="10.00">_brdf&lt; Tfloat, Tslope,</text>
<text text-anchor="middle" x="354" y="-7.5" font-family="Helvetica,sans-Serif" font-size="10.00"> Theight &gt;, true &gt;</text>
</a>
</g>
</g>
<!-- Node1&#45;&gt;Node6 -->
<g id="edge5" class="edge">
<title>Node1&#45;&gt;Node6</title>
<path fill="none" stroke="orange" stroke-dasharray="5,2" d="M89.5,-77.42C101.31,-71.13 114.91,-64.73 128,-60.5 178.47,-44.2 237.88,-35.65 282.98,-31.2"/>
<polygon fill="orange" stroke="orange" points="87.53,-74.51 80.46,-82.4 90.91,-80.64 87.53,-74.51"/>
<text text-anchor="start" x="128" y="-85.5" font-family="Helvetica,sans-Serif" font-size="10.00"> &lt; microsurface_conductive</text>
<text text-anchor="start" x="128" y="-74.5" font-family="Helvetica,sans-Serif" font-size="10.00">_brdf&lt; Tfloat, Tslope,</text>
<text text-anchor="middle" x="196.5" y="-63.5" font-family="Helvetica,sans-Serif" font-size="10.00"> Theight &gt;, true &gt;</text>
</g>
<!-- Node3 -->
<g id="node3" class="node">
<title>Node3</title>
<g id="a_node3"><a xlink:href="structpre_1_1microsurface__dielectric__bsdf.html" target="_top" xlink:title="Microsurface from dielectric BSDF.">
<polygon fill="white" stroke="black" points="462,-153.5 462,-183.5 635,-183.5 635,-153.5 462,-153.5"/>
<text text-anchor="start" x="470" y="-171.5" font-family="Helvetica,sans-Serif" font-size="10.00">pre::microsurface_dielectric</text>
<text text-anchor="middle" x="548.5" y="-160.5" font-family="Helvetica,sans-Serif" font-size="10.00">_bsdf&lt; Tfloat, Tslope, Theight &gt;</text>
</a>
</g>
</g>
<!-- Node2&#45;&gt;Node3 -->
<g id="edge2" class="edge">
<title>Node2&#45;&gt;Node3</title>
<path fill="none" stroke="midnightblue" d="M431.49,-168.5C441.43,-168.5 451.67,-168.5 461.75,-168.5"/>
<polygon fill="midnightblue" stroke="midnightblue" points="431.25,-165 421.25,-168.5 431.25,-172 431.25,-165"/>
</g>
<!-- Node5 -->
<g id="node5" class="node">
<title>Node5</title>
<g id="a_node5"><a xlink:href="structpre_1_1microsurface__lambertian__bsdf.html" target="_top" xlink:title="Microsurface from Lambertian BSDF.">
<polygon fill="white" stroke="black" points="462,-82.5 462,-112.5 635,-112.5 635,-82.5 462,-82.5"/>
<text text-anchor="start" x="470" y="-100.5" font-family="Helvetica,sans-Serif" font-size="10.00">pre::microsurface_lambertian</text>
<text text-anchor="middle" x="548.5" y="-89.5" font-family="Helvetica,sans-Serif" font-size="10.00">_bsdf&lt; Tfloat, Tslope, Theight &gt;</text>
</a>
</g>
</g>
<!-- Node4&#45;&gt;Node5 -->
<g id="edge4" class="edge">
<title>Node4&#45;&gt;Node5</title>
<path fill="none" stroke="midnightblue" d="M435.23,-97.5C444,-97.5 452.94,-97.5 461.77,-97.5"/>
<polygon fill="midnightblue" stroke="midnightblue" points="435.04,-94 425.04,-97.5 435.04,-101 435.04,-94"/>
</g>
<!-- Node7 -->
<g id="node7" class="node">
<title>Node7</title>
<g id="a_node7"><a xlink:href="structpre_1_1microsurface__conductive__brdf.html" target="_top" xlink:title="Microsurface from conductive BRDF.">
<polygon fill="white" stroke="black" points="462.5,-11.5 462.5,-41.5 634.5,-41.5 634.5,-11.5 462.5,-11.5"/>
<text text-anchor="start" x="470.5" y="-29.5" font-family="Helvetica,sans-Serif" font-size="10.00">pre::microsurface_conductive</text>
<text text-anchor="middle" x="548.5" y="-18.5" font-family="Helvetica,sans-Serif" font-size="10.00">_brdf&lt; Tfloat, Tslope, Theight &gt;</text>
</a>
</g>
</g>
<!-- Node6&#45;&gt;Node7 -->
<g id="edge6" class="edge">
<title>Node6&#45;&gt;Node7</title>
<path fill="none" stroke="midnightblue" d="M435.12,-26.5C444.14,-26.5 453.36,-26.5 462.44,-26.5"/>
<polygon fill="midnightblue" stroke="midnightblue" points="435.04,-23 425.04,-26.5 435.04,-30 435.04,-23"/>
</g>
</g>
</svg>
        <g id="navigator" transform="translate(0 0)" fill="#404254">
                <rect fill="#f2f5e9" fill-opacity="0.5" stroke="#606060" stroke-width=".5" x="0" y="0" width="60" height="60"/>
                <use id="zoomplus" xlink:href="#zoomPlus" x="17" y="9" onmousedown="handleZoom(evt,'in')"/>
                <use id="zoomminus" xlink:href="#zoomMin" x="42" y="9" onmousedown="handleZoom(evt,'out')"/>
                <use id="reset" xlink:href="#resetDef" x="30" y="36" onmousedown="handleReset()"/>
                <g id="arrowUp" xlink:href="#dirArrow" transform="translate(30 24)" onmousedown="handlePan(0,-1)">
                  <use xlink:href="#rim" fill="#404040">
                        <set attributeName="fill" to="#808080" begin="arrowUp.mouseover" end="arrowUp.mouseout"/>
                  </use>
                  <path fill="none" stroke="white" stroke-width="1.5" d="M0,-3.0v7 M-2.5,-0.5L0,-3.0L2.5,-0.5"/>
                </g>
                <g id="arrowRight" xlink:href="#dirArrow" transform="rotate(90) translate(36 -43)" onmousedown="handlePan(1,0)">
                  <use xlink:href="#rim" fill="#404040">
                        <set attributeName="fill" to="#808080" begin="arrowRight.mouseover" end="arrowRight.mouseout"/>
                  </use>
                  <path fill="none" stroke="white" stroke-width="1.5" d="M0,-3.0v7 M-2.5,-0.5L0,-3.0L2.5,-0.5"/>
                </g>
                <g id="arrowDown" xlink:href="#dirArrow" transform="rotate(180) translate(-30 -48)" onmousedown="handlePan(0,1)">
                  <use xlink:href="#rim" fill="#404040">
                        <set attributeName="fill" to="#808080" begin="arrowDown.mouseover" end="arrowDown.mouseout"/>
                  </use>
                  <path fill="none" stroke="white" stroke-width="1.5" d="M0,-3.0v7 M-2.5,-0.5L0,-3.0L2.5,-0.5"/>
                </g>
                <g id="arrowLeft" xlink:href="#dirArrow" transform="rotate(270) translate(-36 17)" onmousedown="handlePan(-1,0)">
                  <use xlink:href="#rim" fill="#404040">
                        <set attributeName="fill" to="#808080" begin="arrowLeft.mouseover" end="arrowLeft.mouseout"/>
                  </use>
                  <path fill="none" stroke="white" stroke-width="1.5" d="M0,-3.0v7 M-2.5,-0.5L0,-3.0L2.5,-0.5"/>
                </g>
        </g>
        <svg viewBox="0 0 15 15" width="100%" height="30px" preserveAspectRatio="xMaxYMin meet">
         <g id="arrow_out" transform="scale(0.3 0.3)">
          <a xlink:href="structpre_1_1microsurface__inherit__graph_org.svg" target="_base">
           <rect id="button" ry="5" rx="5" y="6" x="6" height="38" width="38"
                fill="#f2f5e9" fill-opacity="0.5" stroke="#606060" stroke-width="1.0"/>
           <path id="arrow"
             d="M 11.500037,31.436501 C 11.940474,20.09759 22.043105,11.32322 32.158766,21.979434 L 37.068811,17.246167 C 37.068811,17.246167 37.088388,32 37.088388,32 L 22.160133,31.978069 C 22.160133,31.978069 26.997745,27.140456 26.997745,27.140456 C 18.528582,18.264221 13.291696,25.230495 11.500037,31.436501 z"
             style="fill:#404040;"/>
          </a>
         </g>
        </svg>
</svg>
