<?xml version="1.0" encoding="UTF-8" standalone="no"?>
<!DOCTYPE svg PUBLIC "-//W3C//DTD SVG 1.1//EN"
 "http://www.w3.org/Graphics/SVG/1.1/DTD/svg11.dtd">
<!-- Generated by graphviz version 2.43.0 (0)
 -->
<!-- Title: pre::multi_initializers&lt; T, typename &gt; Pages: 1 -->
<svg width="192pt" height="174pt"
 viewBox="0.00 0.00 191.50 174.00" xmlns="http://www.w3.org/2000/svg" xmlns:xlink="http://www.w3.org/1999/xlink">
<g id="graph0" class="graph" transform="scale(1 1) rotate(0) translate(4 170)">
<title>pre::multi_initializers&lt; T, typename &gt;</title>
<polygon fill="white" stroke="transparent" points="-4,4 -4,-170 187.5,-170 187.5,4 -4,4"/>
<!-- Node1 -->
<g id="node1" class="node">
<title>Node1</title>
<g id="a_node1"><a xlink:title=" ">
<polygon fill="#bfbfbf" stroke="black" points="5.5,-135.5 5.5,-165.5 125.5,-165.5 125.5,-135.5 5.5,-135.5"/>
<text text-anchor="start" x="13.5" y="-153.5" font-family="Helvetica,sans-Serif" font-size="10.00">pre::multi_initializers</text>
<text text-anchor="middle" x="65.5" y="-142.5" font-family="Helvetica,sans-Serif" font-size="10.00">&lt; T, typename &gt;</text>
</a>
</g>
</g>
<!-- Node2 -->
<g id="node2" class="node">
<title>Node2</title>
<g id="a_node2"><a xlink:href="structpre_1_1multi__initializers.html" target="_top" xlink:title=" ">
<polygon fill="white" stroke="black" points="0,-57.5 0,-87.5 131,-87.5 131,-57.5 0,-57.5"/>
<text text-anchor="start" x="8" y="-75.5" font-family="Helvetica,sans-Serif" font-size="10.00">pre::multi_initializers</text>
<text text-anchor="middle" x="65.5" y="-64.5" font-family="Helvetica,sans-Serif" font-size="10.00">&lt; multi&lt; T, M, N... &gt; &gt;</text>
</a>
</g>
</g>
<!-- Node1&#45;&gt;Node2 -->
<g id="edge1" class="edge">
<title>Node1&#45;&gt;Node2</title>
<path fill="none" stroke="orange" stroke-dasharray="5,2" d="M65.5,-125.09C65.5,-112.76 65.5,-98.22 65.5,-87.73"/>
<polygon fill="orange" stroke="orange" points="62,-125.2 65.5,-135.2 69,-125.21 62,-125.2"/>
<text text-anchor="middle" x="124.5" y="-109" font-family="Helvetica,sans-Serif" font-size="10.00"> &lt; multi&lt; T, M, N... &gt; &gt;</text>
</g>
<!-- Node3 -->
<g id="node3" class="node">
<title>Node3</title>
<g id="a_node3"><a xlink:href="structpre_1_1multi_3_01T_00_01M_00_01N_8_8_8_01_4.html" target="_top" xlink:title="Multi&#45;dimensional array.">
<polygon fill="white" stroke="black" points="0.5,-0.5 0.5,-19.5 130.5,-19.5 130.5,-0.5 0.5,-0.5"/>
<text text-anchor="middle" x="65.5" y="-7.5" font-family="Helvetica,sans-Serif" font-size="10.00">pre::multi&lt; T, M, N... &gt;</text>
</a>
</g>
</g>
<!-- Node2&#45;&gt;Node3 -->
<g id="edge2" class="edge">
<title>Node2&#45;&gt;Node3</title>
<path fill="none" stroke="midnightblue" d="M65.5,-47.35C65.5,-37.51 65.5,-26.78 65.5,-19.54"/>
<polygon fill="midnightblue" stroke="midnightblue" points="62,-47.47 65.5,-57.47 69,-47.47 62,-47.47"/>
</g>
</g>
</svg>
