<?xml version="1.0" encoding="UTF-8" standalone="no"?>
<!DOCTYPE svg PUBLIC "-//W3C//DTD SVG 1.1//EN"
 "http://www.w3.org/Graphics/SVG/1.1/DTD/svg11.dtd">
<!-- Generated by graphviz version 2.40.1 (20161225.0304)
 -->
<!-- Title: pre::dense_matrix_view&lt; Tbase_iterator &gt; Pages: 1 -->
<svg width="136pt" height="117pt"
 viewBox="0.00 0.00 136.00 117.00" xmlns="http://www.w3.org/2000/svg" xmlns:xlink="http://www.w3.org/1999/xlink">
<g id="graph0" class="graph" transform="scale(1 1) rotate(0) translate(4 113)">
<title>pre::dense_matrix_view&lt; Tbase_iterator &gt;</title>
<polygon fill="#ffffff" stroke="transparent" points="-4,4 -4,-113 132,-113 132,4 -4,4"/>
<!-- Node0 -->
<g id="node1" class="node">
<title>Node0</title>
<polygon fill="#bfbfbf" stroke="#000000" points="0,-78.5 0,-108.5 120,-108.5 120,-78.5 0,-78.5"/>
<text text-anchor="start" x="8" y="-96.5" font-family="Helvetica,sans-Serif" font-size="10.00" fill="#000000">pre::dense_matrix_view</text>
<text text-anchor="middle" x="60" y="-85.5" font-family="Helvetica,sans-Serif" font-size="10.00" fill="#000000">&lt; Tbase_iterator &gt;</text>
</g>
<!-- Node1 -->
<g id="node2" class="node">
<title>Node1</title>
<g id="a_node2"><a xlink:href="structpre_1_1dense__matrix__view.html" target="_top" xlink:title="pre::dense_matrix_view\l\&lt; float_type *\&gt;">
<polygon fill="#ffffff" stroke="#000000" points="0,-.5 0,-30.5 120,-30.5 120,-.5 0,-.5"/>
<text text-anchor="start" x="8" y="-18.5" font-family="Helvetica,sans-Serif" font-size="10.00" fill="#000000">pre::dense_matrix_view</text>
<text text-anchor="middle" x="60" y="-7.5" font-family="Helvetica,sans-Serif" font-size="10.00" fill="#000000">&lt; float_type *&gt;</text>
</a>
</g>
</g>
<!-- Node0&#45;&gt;Node1 -->
<g id="edge1" class="edge">
<title>Node0&#45;&gt;Node1</title>
<path fill="none" stroke="#ffa500" stroke-dasharray="5,2" d="M60,-68.2875C60,-55.9187 60,-41.4264 60,-30.7592"/>
<polygon fill="#ffa500" stroke="#ffa500" points="56.5001,-68.4608 60,-78.4608 63.5001,-68.4608 56.5001,-68.4608"/>
<text text-anchor="middle" x="94" y="-52" font-family="Helvetica,sans-Serif" font-size="10.00" fill="#000000"> &lt; float_type *&gt;</text>
</g>
</g>
</svg>
