<?xml version="1.0" encoding="UTF-8" standalone="no"?>
<!DOCTYPE svg PUBLIC "-//W3C//DTD SVG 1.1//EN"
 "http://www.w3.org/Graphics/SVG/1.1/DTD/svg11.dtd">
<!-- Generated by graphviz version 2.40.1 (20161225.0304)
 -->
<!-- Title: pr::microvolume_sggx&lt; Tfloat &gt; Pages: 1 -->
<svg width="290pt" height="88pt"
 viewBox="0.00 0.00 290.00 88.00" xmlns="http://www.w3.org/2000/svg" xmlns:xlink="http://www.w3.org/1999/xlink">
<g id="graph0" class="graph" transform="scale(1 1) rotate(0) translate(4 84)">
<title>pr::microvolume_sggx&lt; Tfloat &gt;</title>
<polygon fill="#ffffff" stroke="transparent" points="-4,4 -4,-84 286,-84 286,4 -4,4"/>
<!-- Node0 -->
<g id="node1" class="node">
<title>Node0</title>
<polygon fill="#bfbfbf" stroke="#000000" points="0,-24.5 0,-54.5 113,-54.5 113,-24.5 0,-24.5"/>
<text text-anchor="start" x="8" y="-42.5" font-family="Helvetica,sans-Serif" font-size="10.00" fill="#000000">pr::microvolume_sggx</text>
<text text-anchor="middle" x="56.5" y="-31.5" font-family="Helvetica,sans-Serif" font-size="10.00" fill="#000000">&lt; Tfloat &gt;</text>
</g>
<!-- Node1 -->
<g id="node2" class="node">
<title>Node1</title>
<g id="a_node2"><a xlink:href="structpr_1_1microvolume__sggx__diffuse__phase.html" target="_top" xlink:title="Microvolume SGGX diffuse (reflection) phase. ">
<polygon fill="#ffffff" stroke="#000000" points="153,-49.5 153,-79.5 278,-79.5 278,-49.5 153,-49.5"/>
<text text-anchor="start" x="161" y="-67.5" font-family="Helvetica,sans-Serif" font-size="10.00" fill="#000000">pr::microvolume_sggx</text>
<text text-anchor="middle" x="215.5" y="-56.5" font-family="Helvetica,sans-Serif" font-size="10.00" fill="#000000">_diffuse_phase&lt; Tfloat &gt;</text>
</a>
</g>
</g>
<!-- Node0&#45;&gt;Node1 -->
<g id="edge1" class="edge">
<title>Node0&#45;&gt;Node1</title>
<path fill="none" stroke="#191970" d="M123.1665,-49.9822C133.0368,-51.5341 143.1782,-53.1287 152.9603,-54.6667"/>
<polygon fill="#191970" stroke="#191970" points="123.4274,-46.4803 113.0051,-48.3845 122.3401,-53.3953 123.4274,-46.4803"/>
</g>
<!-- Node2 -->
<g id="node3" class="node">
<title>Node2</title>
<g id="a_node3"><a xlink:href="structpr_1_1microvolume__sggx__specular__phase.html" target="_top" xlink:title="Microvolume SGGX specular (reflection) phase. ">
<polygon fill="#ffffff" stroke="#000000" points="149,-.5 149,-30.5 282,-30.5 282,-.5 149,-.5"/>
<text text-anchor="start" x="157" y="-18.5" font-family="Helvetica,sans-Serif" font-size="10.00" fill="#000000">pr::microvolume_sggx</text>
<text text-anchor="middle" x="215.5" y="-7.5" font-family="Helvetica,sans-Serif" font-size="10.00" fill="#000000">_specular_phase&lt; Tfloat &gt;</text>
</a>
</g>
</g>
<!-- Node0&#45;&gt;Node2 -->
<g id="edge2" class="edge">
<title>Node0&#45;&gt;Node2</title>
<path fill="none" stroke="#191970" d="M122.9408,-29.4712C131.507,-28.1782 140.2812,-26.8538 148.8507,-25.5603"/>
<polygon fill="#191970" stroke="#191970" points="122.3707,-26.0175 113.0051,-30.9709 123.4156,-32.9391 122.3707,-26.0175"/>
</g>
</g>
</svg>
