<?xml version="1.0" encoding="UTF-8" standalone="no"?>
<!DOCTYPE svg PUBLIC "-//W3C//DTD SVG 1.1//EN"
 "http://www.w3.org/Graphics/SVG/1.1/DTD/svg11.dtd">
<!-- Generated by graphviz version 2.40.1 (20161225.0304)
 -->
<!-- Title: pre::microsurface_dielectric_bsdf&lt; Tfloat, Tslope, Theight &gt; Pages: 1 -->
<svg width="571pt" height="68pt"
 viewBox="0.00 0.00 571.00 67.50" xmlns="http://www.w3.org/2000/svg" xmlns:xlink="http://www.w3.org/1999/xlink">
<g id="graph0" class="graph" transform="scale(1 1) rotate(0) translate(4 63.5)">
<title>pre::microsurface_dielectric_bsdf&lt; Tfloat, Tslope, Theight &gt;</title>
<polygon fill="#ffffff" stroke="transparent" points="-4,4 -4,-63.5 567,-63.5 567,4 -4,4"/>
<!-- Node0 -->
<g id="node1" class="node">
<title>Node0</title>
<polygon fill="#bfbfbf" stroke="#000000" points="406,-11.5 406,-41.5 563,-41.5 563,-11.5 406,-11.5"/>
<text text-anchor="start" x="414" y="-29.5" font-family="Helvetica,sans-Serif" font-size="10.00" fill="#000000">pre::microsurface_dielectric</text>
<text text-anchor="middle" x="484.5" y="-18.5" font-family="Helvetica,sans-Serif" font-size="10.00" fill="#000000">_bsdf&lt; Tfloat, Tslope, Theight &gt;</text>
</g>
<!-- Node1 -->
<g id="node2" class="node">
<title>Node1</title>
<g id="a_node2"><a xlink:href="structpre_1_1microsurface.html" target="_top" xlink:title="pre::microsurface\&lt;\l microsurface_dielectric\l_bsdf\&lt; Tfloat, Tslope,\l Theight \&gt;, true \&gt;">
<polygon fill="#ffffff" stroke="#000000" points="249,-.5 249,-52.5 369,-52.5 369,-.5 249,-.5"/>
<text text-anchor="start" x="257" y="-40.5" font-family="Helvetica,sans-Serif" font-size="10.00" fill="#000000">pre::microsurface&lt;</text>
<text text-anchor="start" x="257" y="-29.5" font-family="Helvetica,sans-Serif" font-size="10.00" fill="#000000"> microsurface_dielectric</text>
<text text-anchor="start" x="257" y="-18.5" font-family="Helvetica,sans-Serif" font-size="10.00" fill="#000000">_bsdf&lt; Tfloat, Tslope,</text>
<text text-anchor="middle" x="309" y="-7.5" font-family="Helvetica,sans-Serif" font-size="10.00" fill="#000000"> Theight &gt;, true &gt;</text>
</a>
</g>
</g>
<!-- Node1&#45;&gt;Node0 -->
<g id="edge1" class="edge">
<title>Node1&#45;&gt;Node0</title>
<path fill="none" stroke="#191970" d="M379.4188,-26.5C388.0654,-26.5 396.9457,-26.5 405.7058,-26.5"/>
<polygon fill="#191970" stroke="#191970" points="379.3972,-23.0001 369.3971,-26.5 379.3971,-30.0001 379.3972,-23.0001"/>
</g>
<!-- Node2 -->
<g id="node3" class="node">
<title>Node2</title>
<g id="a_node3"><a xlink:href="structpre_1_1microsurface.html" target="_top" xlink:title="Microsurface prototype. ">
<polygon fill="#ffffff" stroke="#000000" points="0,-11.5 0,-41.5 100,-41.5 100,-11.5 0,-11.5"/>
<text text-anchor="start" x="8" y="-29.5" font-family="Helvetica,sans-Serif" font-size="10.00" fill="#000000">pre::microsurface&lt;</text>
<text text-anchor="middle" x="50" y="-18.5" font-family="Helvetica,sans-Serif" font-size="10.00" fill="#000000"> Tchild, bidir_mis &gt;</text>
</a>
</g>
</g>
<!-- Node2&#45;&gt;Node1 -->
<g id="edge2" class="edge">
<title>Node2&#45;&gt;Node1</title>
<path fill="none" stroke="#ffa500" stroke-dasharray="5,2" d="M110.2671,-26.5C151.9639,-26.5 207.2246,-26.5 248.8878,-26.5"/>
<polygon fill="#ffa500" stroke="#ffa500" points="110.2449,-23.0001 100.2449,-26.5 110.2449,-30.0001 110.2449,-23.0001"/>
<text text-anchor="start" x="118" y="-51.5" font-family="Helvetica,sans-Serif" font-size="10.00" fill="#000000"> &lt; microsurface_dielectric</text>
<text text-anchor="start" x="118" y="-40.5" font-family="Helvetica,sans-Serif" font-size="10.00" fill="#000000">_bsdf&lt; Tfloat, Tslope,</text>
<text text-anchor="middle" x="174.5" y="-29.5" font-family="Helvetica,sans-Serif" font-size="10.00" fill="#000000"> Theight &gt;, true &gt;</text>
</g>
</g>
</svg>
