<?xml version="1.0" encoding="UTF-8" standalone="no"?>
<!DOCTYPE svg PUBLIC "-//W3C//DTD SVG 1.1//EN"
 "http://www.w3.org/Graphics/SVG/1.1/DTD/svg11.dtd">
<!-- Generated by graphviz version 2.40.1 (20161225.0304)
 -->
<!-- Title: pr::microsurface_adapter&lt; Tslope, Theight &gt; Pages: 1 -->
<svg width="312pt" height="100pt"
 viewBox="0.00 0.00 312.00 99.50" xmlns="http://www.w3.org/2000/svg" xmlns:xlink="http://www.w3.org/1999/xlink">
<g id="graph0" class="graph" transform="scale(1 1) rotate(0) translate(4 95.5)">
<title>pr::microsurface_adapter&lt; Tslope, Theight &gt;</title>
<polygon fill="#ffffff" stroke="transparent" points="-4,4 -4,-95.5 308,-95.5 308,4 -4,4"/>
<!-- Node0 -->
<g id="node1" class="node">
<title>Node0</title>
<polygon fill="#bfbfbf" stroke="#000000" points="0,-27.5 0,-57.5 125,-57.5 125,-27.5 0,-27.5"/>
<text text-anchor="start" x="8" y="-45.5" font-family="Helvetica,sans-Serif" font-size="10.00" fill="#000000">pr::microsurface_adapter</text>
<text text-anchor="middle" x="62.5" y="-34.5" font-family="Helvetica,sans-Serif" font-size="10.00" fill="#000000">&lt; Tslope, Theight &gt;</text>
</g>
<!-- Node1 -->
<g id="node2" class="node">
<title>Node1</title>
<g id="a_node2"><a xlink:href="structpr_1_1dielectric__bsdf__microsurface__adapter.html" target="_top" xlink:title="Dielectric BSDF microsurface adapter. ">
<polygon fill="#ffffff" stroke="#000000" points="174.5,-50 174.5,-91 290.5,-91 290.5,-50 174.5,-50"/>
<text text-anchor="start" x="182.5" y="-79" font-family="Helvetica,sans-Serif" font-size="10.00" fill="#000000">pr::dielectric_bsdf</text>
<text text-anchor="start" x="182.5" y="-68" font-family="Helvetica,sans-Serif" font-size="10.00" fill="#000000">_microsurface_adapter</text>
<text text-anchor="middle" x="232.5" y="-57" font-family="Helvetica,sans-Serif" font-size="10.00" fill="#000000">&lt; Tslope, Theight &gt;</text>
</a>
</g>
</g>
<!-- Node0&#45;&gt;Node1 -->
<g id="edge1" class="edge">
<title>Node0&#45;&gt;Node1</title>
<path fill="none" stroke="#191970" d="M135.2367,-54.4802C148.3353,-56.6376 161.8306,-58.8603 174.4433,-60.9377"/>
<polygon fill="#191970" stroke="#191970" points="135.7546,-51.0184 125.3187,-52.8466 134.617,-57.9253 135.7546,-51.0184"/>
</g>
<!-- Node2 -->
<g id="node3" class="node">
<title>Node2</title>
<g id="a_node3"><a xlink:href="structpr_1_1diffuse__brdf__microsurface__adapter.html" target="_top" xlink:title="Diffuse BRDF microsurface adapter. ">
<polygon fill="#ffffff" stroke="#000000" points="161,-.5 161,-30.5 304,-30.5 304,-.5 161,-.5"/>
<text text-anchor="start" x="169" y="-18.5" font-family="Helvetica,sans-Serif" font-size="10.00" fill="#000000">pr::diffuse_brdf_microsurface</text>
<text text-anchor="middle" x="232.5" y="-7.5" font-family="Helvetica,sans-Serif" font-size="10.00" fill="#000000">_adapter&lt; Tslope, Theight &gt;</text>
</a>
</g>
</g>
<!-- Node0&#45;&gt;Node2 -->
<g id="edge2" class="edge">
<title>Node0&#45;&gt;Node2</title>
<path fill="none" stroke="#191970" d="M135.4498,-30.9139C143.8389,-29.5815 152.3878,-28.2237 160.7608,-26.8939"/>
<polygon fill="#191970" stroke="#191970" points="134.6459,-27.4976 125.3187,-32.5229 135.744,-34.4109 134.6459,-27.4976"/>
</g>
</g>
</svg>
