<?xml version="1.0" encoding="UTF-8" standalone="no"?>
<!DOCTYPE svg PUBLIC "-//W3C//DTD SVG 1.1//EN"
 "http://www.w3.org/Graphics/SVG/1.1/DTD/svg11.dtd">
<!-- Generated by graphviz version 2.43.0 (0)
 -->
<!-- Title: pre::microsurface_dielectric_bsdf&lt; Tfloat, Tslope, Theight &gt; Pages: 1 -->
<svg width="627pt" height="68pt"
 viewBox="0.00 0.00 627.00 67.50" xmlns="http://www.w3.org/2000/svg" xmlns:xlink="http://www.w3.org/1999/xlink">
<g id="graph0" class="graph" transform="scale(1 1) rotate(0) translate(4 63.5)">
<title>pre::microsurface_dielectric_bsdf&lt; Tfloat, Tslope, Theight &gt;</title>
<polygon fill="white" stroke="transparent" points="-4,4 -4,-63.5 623,-63.5 623,4 -4,4"/>
<!-- Node1 -->
<g id="node1" class="node">
<title>Node1</title>
<g id="a_node1"><a xlink:title="Microsurface from dielectric BSDF.">
<polygon fill="#bfbfbf" stroke="black" points="446,-11.5 446,-41.5 619,-41.5 619,-11.5 446,-11.5"/>
<text text-anchor="start" x="454" y="-29.5" font-family="Helvetica,sans-Serif" font-size="10.00">pre::microsurface_dielectric</text>
<text text-anchor="middle" x="532.5" y="-18.5" font-family="Helvetica,sans-Serif" font-size="10.00">_bsdf&lt; Tfloat, Tslope, Theight &gt;</text>
</a>
</g>
</g>
<!-- Node2 -->
<g id="node2" class="node">
<title>Node2</title>
<g id="a_node2"><a xlink:href="structpre_1_1microsurface.html" target="_top" xlink:title=" ">
<polygon fill="white" stroke="black" points="275,-0.5 275,-52.5 409,-52.5 409,-0.5 275,-0.5"/>
<text text-anchor="start" x="283" y="-40.5" font-family="Helvetica,sans-Serif" font-size="10.00">pre::microsurface&lt;</text>
<text text-anchor="start" x="283" y="-29.5" font-family="Helvetica,sans-Serif" font-size="10.00"> microsurface_dielectric</text>
<text text-anchor="start" x="283" y="-18.5" font-family="Helvetica,sans-Serif" font-size="10.00">_bsdf&lt; Tfloat, Tslope,</text>
<text text-anchor="middle" x="342" y="-7.5" font-family="Helvetica,sans-Serif" font-size="10.00"> Theight &gt;, true &gt;</text>
</a>
</g>
</g>
<!-- Node2&#45;&gt;Node1 -->
<g id="edge1" class="edge">
<title>Node2&#45;&gt;Node1</title>
<path fill="none" stroke="midnightblue" d="M419.35,-26.5C428.11,-26.5 437.08,-26.5 445.95,-26.5"/>
<polygon fill="midnightblue" stroke="midnightblue" points="419.19,-23 409.19,-26.5 419.19,-30 419.19,-23"/>
</g>
<!-- Node3 -->
<g id="node3" class="node">
<title>Node3</title>
<g id="a_node3"><a xlink:href="structpre_1_1microsurface.html" target="_top" xlink:title="Microsurface prototype.">
<polygon fill="white" stroke="black" points="0,-11.5 0,-41.5 110,-41.5 110,-11.5 0,-11.5"/>
<text text-anchor="start" x="8" y="-29.5" font-family="Helvetica,sans-Serif" font-size="10.00">pre::microsurface&lt;</text>
<text text-anchor="middle" x="55" y="-18.5" font-family="Helvetica,sans-Serif" font-size="10.00"> Tchild, bidir_mis &gt;</text>
</a>
</g>
</g>
<!-- Node3&#45;&gt;Node2 -->
<g id="edge2" class="edge">
<title>Node3&#45;&gt;Node2</title>
<path fill="none" stroke="orange" stroke-dasharray="5,2" d="M120.45,-26.5C166.56,-26.5 228.43,-26.5 274.9,-26.5"/>
<polygon fill="orange" stroke="orange" points="120.28,-23 110.28,-26.5 120.28,-30 120.28,-23"/>
<text text-anchor="start" x="128" y="-51.5" font-family="Helvetica,sans-Serif" font-size="10.00"> &lt; microsurface_dielectric</text>
<text text-anchor="start" x="128" y="-40.5" font-family="Helvetica,sans-Serif" font-size="10.00">_bsdf&lt; Tfloat, Tslope,</text>
<text text-anchor="middle" x="192.5" y="-29.5" font-family="Helvetica,sans-Serif" font-size="10.00"> Theight &gt;, true &gt;</text>
</g>
</g>
</svg>
