<?xml version="1.0" encoding="UTF-8" standalone="no"?>
<!DOCTYPE svg PUBLIC "-//W3C//DTD SVG 1.1//EN"
 "http://www.w3.org/Graphics/SVG/1.1/DTD/svg11.dtd">
<!-- Generated by graphviz version 2.40.1 (20161225.0304)
 -->
<!-- Title: pr::microsurface_conductive_brdf&lt; T, Tslope, Theight &gt; Pages: 1 -->
<svg width="148pt" height="106pt"
 viewBox="0.00 0.00 148.00 106.00" xmlns="http://www.w3.org/2000/svg" xmlns:xlink="http://www.w3.org/1999/xlink">
<g id="graph0" class="graph" transform="scale(1 1) rotate(0) translate(4 102)">
<title>pr::microsurface_conductive_brdf&lt; T, Tslope, Theight &gt;</title>
<polygon fill="#ffffff" stroke="transparent" points="-4,4 -4,-102 144,-102 144,4 -4,4"/>
<!-- Node0 -->
<g id="node1" class="node">
<title>Node0</title>
<polygon fill="#bfbfbf" stroke="#000000" points="0,-.5 0,-30.5 140,-30.5 140,-.5 0,-.5"/>
<text text-anchor="start" x="8" y="-18.5" font-family="Helvetica,sans-Serif" font-size="10.00" fill="#000000">pr::microsurface_conductive</text>
<text text-anchor="middle" x="70" y="-7.5" font-family="Helvetica,sans-Serif" font-size="10.00" fill="#000000">_brdf&lt; T, Tslope, Theight &gt;</text>
</g>
<!-- Node1 -->
<g id="node2" class="node">
<title>Node1</title>
<g id="a_node2"><a xlink:href="structpr_1_1microsurface.html" target="_top" xlink:title="Microsurface. ">
<polygon fill="#ffffff" stroke="#000000" points="17.5,-67.5 17.5,-97.5 122.5,-97.5 122.5,-67.5 17.5,-67.5"/>
<text text-anchor="start" x="25.5" y="-85.5" font-family="Helvetica,sans-Serif" font-size="10.00" fill="#000000">pr::microsurface&lt; T,</text>
<text text-anchor="middle" x="70" y="-74.5" font-family="Helvetica,sans-Serif" font-size="10.00" fill="#000000"> Tslope, Theight &gt;</text>
</a>
</g>
</g>
<!-- Node1&#45;&gt;Node0 -->
<g id="edge1" class="edge">
<title>Node1&#45;&gt;Node0</title>
<path fill="none" stroke="#191970" d="M70,-57.0249C70,-48.128 70,-38.4287 70,-30.6432"/>
<polygon fill="#191970" stroke="#191970" points="66.5001,-57.2966 70,-67.2967 73.5001,-57.2967 66.5001,-57.2966"/>
</g>
</g>
</svg>
