<?xml version="1.0" encoding="UTF-8" standalone="no"?>
<!DOCTYPE svg PUBLIC "-//W3C//DTD SVG 1.1//EN"
 "http://www.w3.org/Graphics/SVG/1.1/DTD/svg11.dtd">
<!-- Generated by graphviz version 2.40.1 (20161225.0304)
 -->
<!-- Title: pr::microsurface&lt; T, Tslope, Theight &gt; Pages: 1 -->
<svg width="564pt" height="159pt"
 viewBox="0.00 0.00 564.00 159.00" xmlns="http://www.w3.org/2000/svg" xmlns:xlink="http://www.w3.org/1999/xlink">
<g id="graph0" class="graph" transform="scale(1 1) rotate(0) translate(4 155)">
<title>pr::microsurface&lt; T, Tslope, Theight &gt;</title>
<polygon fill="#ffffff" stroke="transparent" points="-4,4 -4,-155 560,-155 560,4 -4,4"/>
<!-- Node0 -->
<g id="node1" class="node">
<title>Node0</title>
<polygon fill="#bfbfbf" stroke="#000000" points="0,-71.5 0,-101.5 105,-101.5 105,-71.5 0,-71.5"/>
<text text-anchor="start" x="8" y="-89.5" font-family="Helvetica,sans-Serif" font-size="10.00" fill="#000000">pr::microsurface&lt; T,</text>
<text text-anchor="middle" x="52.5" y="-78.5" font-family="Helvetica,sans-Serif" font-size="10.00" fill="#000000"> Tslope, Theight &gt;</text>
</g>
<!-- Node1 -->
<g id="node2" class="node">
<title>Node1</title>
<g id="a_node2"><a xlink:href="structpr_1_1microsurface__dielectric__bsdf.html" target="_top" xlink:title="Microsurface dielectric BSDF. ">
<polygon fill="#ffffff" stroke="#000000" points="272,-120.5 272,-150.5 410,-150.5 410,-120.5 272,-120.5"/>
<text text-anchor="start" x="280" y="-138.5" font-family="Helvetica,sans-Serif" font-size="10.00" fill="#000000">pr::microsurface_dielectric</text>
<text text-anchor="middle" x="341" y="-127.5" font-family="Helvetica,sans-Serif" font-size="10.00" fill="#000000">_bsdf&lt; T, Tslope, Theight &gt;</text>
</a>
</g>
</g>
<!-- Node0&#45;&gt;Node1 -->
<g id="edge1" class="edge">
<title>Node0&#45;&gt;Node1</title>
<path fill="none" stroke="#191970" d="M115.3002,-99.0932C117.8998,-99.5758 120.4745,-100.0467 123,-100.5 172.6135,-109.4058 228.7781,-118.3973 271.6726,-125.0366"/>
<polygon fill="#191970" stroke="#191970" points="115.6767,-95.6025 105.2008,-97.1856 114.3774,-102.4809 115.6767,-95.6025"/>
</g>
<!-- Node2 -->
<g id="node3" class="node">
<title>Node2</title>
<g id="a_node3"><a xlink:href="structpr_1_1microsurface__diffuse__brdf.html" target="_top" xlink:title="Microsurface diffuse BRDF. ">
<polygon fill="#ffffff" stroke="#000000" points="273,-71.5 273,-101.5 409,-101.5 409,-71.5 273,-71.5"/>
<text text-anchor="start" x="281" y="-89.5" font-family="Helvetica,sans-Serif" font-size="10.00" fill="#000000">pr::microsurface_diffuse</text>
<text text-anchor="middle" x="341" y="-78.5" font-family="Helvetica,sans-Serif" font-size="10.00" fill="#000000">_brdf&lt; T, Tslope, Theight &gt;</text>
</a>
</g>
</g>
<!-- Node0&#45;&gt;Node2 -->
<g id="edge2" class="edge">
<title>Node0&#45;&gt;Node2</title>
<path fill="none" stroke="#191970" d="M115.3385,-86.5C161.8862,-86.5 225.2498,-86.5 272.9849,-86.5"/>
<polygon fill="#191970" stroke="#191970" points="115.0799,-83.0001 105.0799,-86.5 115.0799,-90.0001 115.0799,-83.0001"/>
</g>
<!-- Node3 -->
<g id="node4" class="node">
<title>Node3</title>
<g id="a_node4"><a xlink:href="structpr_1_1microsurface.html" target="_top" xlink:title="pr::microsurface\&lt; T,\l microsurface_trowbridge\l_reitz_slope, microsurface\l_uniform_height \&gt;">
<polygon fill="#ffffff" stroke="#000000" points="275.5,-.5 275.5,-52.5 406.5,-52.5 406.5,-.5 275.5,-.5"/>
<text text-anchor="start" x="283.5" y="-40.5" font-family="Helvetica,sans-Serif" font-size="10.00" fill="#000000">pr::microsurface&lt; T,</text>
<text text-anchor="start" x="283.5" y="-29.5" font-family="Helvetica,sans-Serif" font-size="10.00" fill="#000000"> microsurface_trowbridge</text>
<text text-anchor="start" x="283.5" y="-18.5" font-family="Helvetica,sans-Serif" font-size="10.00" fill="#000000">_reitz_slope, microsurface</text>
<text text-anchor="middle" x="341" y="-7.5" font-family="Helvetica,sans-Serif" font-size="10.00" fill="#000000">_uniform_height &gt;</text>
</a>
</g>
</g>
<!-- Node0&#45;&gt;Node3 -->
<g id="edge3" class="edge">
<title>Node0&#45;&gt;Node3</title>
<path fill="none" stroke="#ffa500" stroke-dasharray="5,2" d="M84.5983,-66.3799C96.2777,-59.9557 109.8476,-53.4852 123,-49.5 172.716,-34.4358 231.3932,-28.8971 275.3407,-27.0087"/>
<polygon fill="#ffa500" stroke="#ffa500" points="82.6282,-63.4744 75.6811,-71.4737 86.1003,-69.5526 82.6282,-63.4744"/>
<text text-anchor="start" x="123" y="-74.5" font-family="Helvetica,sans-Serif" font-size="10.00" fill="#000000"> &lt; T, microsurface_trowbridge</text>
<text text-anchor="start" x="123" y="-63.5" font-family="Helvetica,sans-Serif" font-size="10.00" fill="#000000">_reitz_slope, microsurface</text>
<text text-anchor="middle" x="188.5" y="-52.5" font-family="Helvetica,sans-Serif" font-size="10.00" fill="#000000">_uniform_height &gt;</text>
</g>
<!-- Node4 -->
<g id="node5" class="node">
<title>Node4</title>
<g id="a_node5"><a xlink:href="structpr_1_1ashikhmin__shirley__dielectric__brdf.html" target="_top" xlink:title="Ashikhmin&#45;Shirley dielectric BRDF. ">
<polygon fill="#ffffff" stroke="#000000" points="447,-11.5 447,-41.5 556,-41.5 556,-11.5 447,-11.5"/>
<text text-anchor="start" x="455" y="-29.5" font-family="Helvetica,sans-Serif" font-size="10.00" fill="#000000">pr::ashikhmin_shirley</text>
<text text-anchor="middle" x="501.5" y="-18.5" font-family="Helvetica,sans-Serif" font-size="10.00" fill="#000000">_dielectric_brdf&lt; T &gt;</text>
</a>
</g>
</g>
<!-- Node3&#45;&gt;Node4 -->
<g id="edge4" class="edge">
<title>Node3&#45;&gt;Node4</title>
<path fill="none" stroke="#191970" d="M416.8231,-26.5C426.9571,-26.5 437.1855,-26.5 446.8593,-26.5"/>
<polygon fill="#191970" stroke="#191970" points="416.7446,-23.0001 406.7446,-26.5 416.7446,-30.0001 416.7446,-23.0001"/>
</g>
</g>
</svg>
