<?xml version="1.0" encoding="UTF-8" standalone="no"?>
<!DOCTYPE svg PUBLIC "-//W3C//DTD SVG 1.1//EN"
 "http://www.w3.org/Graphics/SVG/1.1/DTD/svg11.dtd">
<!-- Generated by graphviz version 2.40.1 (20161225.0304)
 -->
<!-- Title: pr::microsurface_shared&lt; Tfloat, Tspecific &gt; Pages: 1 -->
<svg width="165pt" height="218pt"
 viewBox="0.00 0.00 165.00 218.00" xmlns="http://www.w3.org/2000/svg" xmlns:xlink="http://www.w3.org/1999/xlink">
<g id="graph0" class="graph" transform="scale(1 1) rotate(0) translate(4 214)">
<title>pr::microsurface_shared&lt; Tfloat, Tspecific &gt;</title>
<polygon fill="#ffffff" stroke="transparent" points="-4,4 -4,-214 161,-214 161,4 -4,4"/>
<!-- Node0 -->
<g id="node1" class="node">
<title>Node0</title>
<polygon fill="#bfbfbf" stroke="#000000" points="4,-179.5 4,-209.5 126,-209.5 126,-179.5 4,-179.5"/>
<text text-anchor="start" x="12" y="-197.5" font-family="Helvetica,sans-Serif" font-size="10.00" fill="#000000">pr::microsurface_shared</text>
<text text-anchor="middle" x="65" y="-186.5" font-family="Helvetica,sans-Serif" font-size="10.00" fill="#000000">&lt; Tfloat, Tspecific &gt;</text>
</g>
<!-- Node1 -->
<g id="node2" class="node">
<title>Node1</title>
<g id="a_node2"><a xlink:href="structpr_1_1microsurface__shared.html" target="_top" xlink:title="pr::microsurface_shared\l\&lt; Tfloat, trowbridge_reitz\l_microsurface\&lt; Tfloat \&gt; \&gt;">
<polygon fill="#ffffff" stroke="#000000" points="0,-68.5 0,-109.5 130,-109.5 130,-68.5 0,-68.5"/>
<text text-anchor="start" x="8" y="-97.5" font-family="Helvetica,sans-Serif" font-size="10.00" fill="#000000">pr::microsurface_shared</text>
<text text-anchor="start" x="8" y="-86.5" font-family="Helvetica,sans-Serif" font-size="10.00" fill="#000000">&lt; Tfloat, trowbridge_reitz</text>
<text text-anchor="middle" x="65" y="-75.5" font-family="Helvetica,sans-Serif" font-size="10.00" fill="#000000">_microsurface&lt; Tfloat &gt; &gt;</text>
</a>
</g>
</g>
<!-- Node0&#45;&gt;Node1 -->
<g id="edge1" class="edge">
<title>Node0&#45;&gt;Node1</title>
<path fill="none" stroke="#ffa500" stroke-dasharray="5,2" d="M65,-169.1769C65,-150.9145 65,-126.5763 65,-109.5233"/>
<polygon fill="#ffa500" stroke="#ffa500" points="61.5001,-169.3844 65,-179.3844 68.5001,-169.3845 61.5001,-169.3844"/>
<text text-anchor="start" x="65" y="-153" font-family="Helvetica,sans-Serif" font-size="10.00" fill="#000000"> &lt; Tfloat, trowbridge</text>
<text text-anchor="start" x="65" y="-142" font-family="Helvetica,sans-Serif" font-size="10.00" fill="#000000">_reitz_microsurface&lt;</text>
<text text-anchor="middle" x="111" y="-131" font-family="Helvetica,sans-Serif" font-size="10.00" fill="#000000"> Tfloat &gt; &gt;</text>
</g>
<!-- Node2 -->
<g id="node3" class="node">
<title>Node2</title>
<g id="a_node3"><a xlink:href="structpr_1_1trowbridge__reitz__microsurface.html" target="_top" xlink:title="Trowbridge&#45;Reitz microsurface. ">
<polygon fill="#ffffff" stroke="#000000" points="4.5,-.5 4.5,-30.5 125.5,-30.5 125.5,-.5 4.5,-.5"/>
<text text-anchor="start" x="12.5" y="-18.5" font-family="Helvetica,sans-Serif" font-size="10.00" fill="#000000">pr::trowbridge_reitz</text>
<text text-anchor="middle" x="65" y="-7.5" font-family="Helvetica,sans-Serif" font-size="10.00" fill="#000000">_microsurface&lt; Tfloat &gt;</text>
</a>
</g>
</g>
<!-- Node1&#45;&gt;Node2 -->
<g id="edge2" class="edge">
<title>Node1&#45;&gt;Node2</title>
<path fill="none" stroke="#191970" d="M65,-57.9048C65,-48.5365 65,-38.666 65,-30.8074"/>
<polygon fill="#191970" stroke="#191970" points="61.5001,-58.1344 65,-68.1345 68.5001,-58.1345 61.5001,-58.1344"/>
</g>
</g>
</svg>
