<?xml version="1.0" encoding="UTF-8" standalone="no"?>
<!DOCTYPE svg PUBLIC "-//W3C//DTD SVG 1.1//EN"
 "http://www.w3.org/Graphics/SVG/1.1/DTD/svg11.dtd">
<!-- Generated by graphviz version 2.40.1 (20161225.0304)
 -->
<!-- Title: pre::microsurface_conductive_brdf&lt; Tfloat, Tslope, Theight &gt; Pages: 1 -->
<svg width="585pt" height="68pt"
 viewBox="0.00 0.00 585.00 67.50" xmlns="http://www.w3.org/2000/svg" xmlns:xlink="http://www.w3.org/1999/xlink">
<g id="graph0" class="graph" transform="scale(1 1) rotate(0) translate(4 63.5)">
<title>pre::microsurface_conductive_brdf&lt; Tfloat, Tslope, Theight &gt;</title>
<polygon fill="#ffffff" stroke="transparent" points="-4,4 -4,-63.5 581,-63.5 581,4 -4,4"/>
<!-- Node0 -->
<g id="node1" class="node">
<title>Node0</title>
<polygon fill="#bfbfbf" stroke="#000000" points="422,-11.5 422,-41.5 577,-41.5 577,-11.5 422,-11.5"/>
<text text-anchor="start" x="430" y="-29.5" font-family="Helvetica,sans-Serif" font-size="10.00" fill="#000000">pre::microsurface_conductive</text>
<text text-anchor="middle" x="499.5" y="-18.5" font-family="Helvetica,sans-Serif" font-size="10.00" fill="#000000">_brdf&lt; Tfloat, Tslope, Theight &gt;</text>
</g>
<!-- Node1 -->
<g id="node2" class="node">
<title>Node1</title>
<g id="a_node2"><a xlink:href="structpre_1_1microsurface.html" target="_top" xlink:title="pre::microsurface\&lt;\l microsurface_conductive\l_brdf\&lt; Tfloat, Tslope,\l Theight \&gt;, true \&gt;">
<polygon fill="#ffffff" stroke="#000000" points="257,-.5 257,-52.5 385,-52.5 385,-.5 257,-.5"/>
<text text-anchor="start" x="265" y="-40.5" font-family="Helvetica,sans-Serif" font-size="10.00" fill="#000000">pre::microsurface&lt;</text>
<text text-anchor="start" x="265" y="-29.5" font-family="Helvetica,sans-Serif" font-size="10.00" fill="#000000"> microsurface_conductive</text>
<text text-anchor="start" x="265" y="-18.5" font-family="Helvetica,sans-Serif" font-size="10.00" fill="#000000">_brdf&lt; Tfloat, Tslope,</text>
<text text-anchor="middle" x="321" y="-7.5" font-family="Helvetica,sans-Serif" font-size="10.00" fill="#000000"> Theight &gt;, true &gt;</text>
</a>
</g>
</g>
<!-- Node1&#45;&gt;Node0 -->
<g id="edge1" class="edge">
<title>Node1&#45;&gt;Node0</title>
<path fill="none" stroke="#191970" d="M395.3583,-26.5C404.1148,-26.5 413.068,-26.5 421.868,-26.5"/>
<polygon fill="#191970" stroke="#191970" points="395.1904,-23.0001 385.1904,-26.5 395.1904,-30.0001 395.1904,-23.0001"/>
</g>
<!-- Node2 -->
<g id="node3" class="node">
<title>Node2</title>
<g id="a_node3"><a xlink:href="structpre_1_1microsurface.html" target="_top" xlink:title="Microsurface prototype. ">
<polygon fill="#ffffff" stroke="#000000" points="0,-11.5 0,-41.5 100,-41.5 100,-11.5 0,-11.5"/>
<text text-anchor="start" x="8" y="-29.5" font-family="Helvetica,sans-Serif" font-size="10.00" fill="#000000">pre::microsurface&lt;</text>
<text text-anchor="middle" x="50" y="-18.5" font-family="Helvetica,sans-Serif" font-size="10.00" fill="#000000"> Tchild, bidir_mis &gt;</text>
</a>
</g>
</g>
<!-- Node2&#45;&gt;Node1 -->
<g id="edge2" class="edge">
<title>Node2&#45;&gt;Node1</title>
<path fill="none" stroke="#ffa500" stroke-dasharray="5,2" d="M110.1862,-26.5C153.7332,-26.5 212.4893,-26.5 256.9102,-26.5"/>
<polygon fill="#ffa500" stroke="#ffa500" points="110.0214,-23.0001 100.0214,-26.5 110.0214,-30.0001 110.0214,-23.0001"/>
<text text-anchor="start" x="118" y="-51.5" font-family="Helvetica,sans-Serif" font-size="10.00" fill="#000000"> &lt; microsurface_conductive</text>
<text text-anchor="start" x="118" y="-40.5" font-family="Helvetica,sans-Serif" font-size="10.00" fill="#000000">_brdf&lt; Tfloat, Tslope,</text>
<text text-anchor="middle" x="178.5" y="-29.5" font-family="Helvetica,sans-Serif" font-size="10.00" fill="#000000"> Theight &gt;, true &gt;</text>
</g>
</g>
</svg>
