<?xml version="1.0" encoding="UTF-8" standalone="no"?>
<!DOCTYPE svg PUBLIC "-//W3C//DTD SVG 1.1//EN"
 "http://www.w3.org/Graphics/SVG/1.1/DTD/svg11.dtd">
<!-- Generated by graphviz version 2.40.1 (20161225.0304)
 -->
<!-- Title: pre::microsurface_lambertian_bsdf&lt; Tfloat, Tslope, Theight &gt; Pages: 1 -->
<svg width="583pt" height="68pt"
 viewBox="0.00 0.00 583.00 67.50" xmlns="http://www.w3.org/2000/svg" xmlns:xlink="http://www.w3.org/1999/xlink">
<g id="graph0" class="graph" transform="scale(1 1) rotate(0) translate(4 63.5)">
<title>pre::microsurface_lambertian_bsdf&lt; Tfloat, Tslope, Theight &gt;</title>
<polygon fill="#ffffff" stroke="transparent" points="-4,4 -4,-63.5 579,-63.5 579,4 -4,4"/>
<!-- Node0 -->
<g id="node1" class="node">
<title>Node0</title>
<polygon fill="#bfbfbf" stroke="#000000" points="418,-11.5 418,-41.5 575,-41.5 575,-11.5 418,-11.5"/>
<text text-anchor="start" x="426" y="-29.5" font-family="Helvetica,sans-Serif" font-size="10.00" fill="#000000">pre::microsurface_lambertian</text>
<text text-anchor="middle" x="496.5" y="-18.5" font-family="Helvetica,sans-Serif" font-size="10.00" fill="#000000">_bsdf&lt; Tfloat, Tslope, Theight &gt;</text>
</g>
<!-- Node1 -->
<g id="node2" class="node">
<title>Node1</title>
<g id="a_node2"><a xlink:href="structpre_1_1microsurface.html" target="_top" xlink:title="pre::microsurface\&lt;\l microsurface_lambertian\l_bsdf\&lt; Tfloat, Tslope,\l Theight \&gt;, false \&gt;">
<polygon fill="#ffffff" stroke="#000000" points="255,-.5 255,-52.5 381,-52.5 381,-.5 255,-.5"/>
<text text-anchor="start" x="263" y="-40.5" font-family="Helvetica,sans-Serif" font-size="10.00" fill="#000000">pre::microsurface&lt;</text>
<text text-anchor="start" x="263" y="-29.5" font-family="Helvetica,sans-Serif" font-size="10.00" fill="#000000"> microsurface_lambertian</text>
<text text-anchor="start" x="263" y="-18.5" font-family="Helvetica,sans-Serif" font-size="10.00" fill="#000000">_bsdf&lt; Tfloat, Tslope,</text>
<text text-anchor="middle" x="318" y="-7.5" font-family="Helvetica,sans-Serif" font-size="10.00" fill="#000000"> Theight &gt;, false &gt;</text>
</a>
</g>
</g>
<!-- Node1&#45;&gt;Node0 -->
<g id="edge1" class="edge">
<title>Node1&#45;&gt;Node0</title>
<path fill="none" stroke="#191970" d="M391.307,-26.5C400.0306,-26.5 408.9642,-26.5 417.7598,-26.5"/>
<polygon fill="#191970" stroke="#191970" points="391.1837,-23.0001 381.1836,-26.5 391.1836,-30.0001 391.1837,-23.0001"/>
</g>
<!-- Node2 -->
<g id="node3" class="node">
<title>Node2</title>
<g id="a_node3"><a xlink:href="structpre_1_1microsurface.html" target="_top" xlink:title="Microsurface prototype. ">
<polygon fill="#ffffff" stroke="#000000" points="0,-11.5 0,-41.5 100,-41.5 100,-11.5 0,-11.5"/>
<text text-anchor="start" x="8" y="-29.5" font-family="Helvetica,sans-Serif" font-size="10.00" fill="#000000">pre::microsurface&lt;</text>
<text text-anchor="middle" x="50" y="-18.5" font-family="Helvetica,sans-Serif" font-size="10.00" fill="#000000"> Tchild, bidir_mis &gt;</text>
</a>
</g>
</g>
<!-- Node2&#45;&gt;Node1 -->
<g id="edge2" class="edge">
<title>Node2&#45;&gt;Node1</title>
<path fill="none" stroke="#ffa500" stroke-dasharray="5,2" d="M110.1587,-26.5C153.255,-26.5 211.1679,-26.5 254.9152,-26.5"/>
<polygon fill="#ffa500" stroke="#ffa500" points="110.0944,-23.0001 100.0944,-26.5 110.0943,-30.0001 110.0944,-23.0001"/>
<text text-anchor="start" x="118" y="-51.5" font-family="Helvetica,sans-Serif" font-size="10.00" fill="#000000"> &lt; microsurface_lambertian</text>
<text text-anchor="start" x="118" y="-40.5" font-family="Helvetica,sans-Serif" font-size="10.00" fill="#000000">_bsdf&lt; Tfloat, Tslope,</text>
<text text-anchor="middle" x="177.5" y="-29.5" font-family="Helvetica,sans-Serif" font-size="10.00" fill="#000000"> Theight &gt;, false &gt;</text>
</g>
</g>
</svg>
