<?xml version="1.0" encoding="UTF-8" standalone="no"?>
<!DOCTYPE svg PUBLIC "-//W3C//DTD SVG 1.1//EN"
 "http://www.w3.org/Graphics/SVG/1.1/DTD/svg11.dtd">
<!-- Generated by graphviz version 2.43.0 (0)
 -->
<!-- Title: pre::microsurface_conductive_brdf&lt; Tfloat, Tslope, Theight &gt; Pages: 1 -->
<svg width="642pt" height="68pt"
 viewBox="0.00 0.00 642.00 67.50" xmlns="http://www.w3.org/2000/svg" xmlns:xlink="http://www.w3.org/1999/xlink">
<g id="graph0" class="graph" transform="scale(1 1) rotate(0) translate(4 63.5)">
<title>pre::microsurface_conductive_brdf&lt; Tfloat, Tslope, Theight &gt;</title>
<polygon fill="white" stroke="transparent" points="-4,4 -4,-63.5 638,-63.5 638,4 -4,4"/>
<!-- Node1 -->
<g id="node1" class="node">
<title>Node1</title>
<g id="a_node1"><a xlink:title="Microsurface from conductive BRDF.">
<polygon fill="#bfbfbf" stroke="black" points="462,-11.5 462,-41.5 634,-41.5 634,-11.5 462,-11.5"/>
<text text-anchor="start" x="470" y="-29.5" font-family="Helvetica,sans-Serif" font-size="10.00">pre::microsurface_conductive</text>
<text text-anchor="middle" x="548" y="-18.5" font-family="Helvetica,sans-Serif" font-size="10.00">_brdf&lt; Tfloat, Tslope, Theight &gt;</text>
</a>
</g>
</g>
<!-- Node2 -->
<g id="node2" class="node">
<title>Node2</title>
<g id="a_node2"><a xlink:href="structpre_1_1microsurface.html" target="_top" xlink:title=" ">
<polygon fill="white" stroke="black" points="283,-0.5 283,-52.5 425,-52.5 425,-0.5 283,-0.5"/>
<text text-anchor="start" x="291" y="-40.5" font-family="Helvetica,sans-Serif" font-size="10.00">pre::microsurface&lt;</text>
<text text-anchor="start" x="291" y="-29.5" font-family="Helvetica,sans-Serif" font-size="10.00"> microsurface_conductive</text>
<text text-anchor="start" x="291" y="-18.5" font-family="Helvetica,sans-Serif" font-size="10.00">_brdf&lt; Tfloat, Tslope,</text>
<text text-anchor="middle" x="354" y="-7.5" font-family="Helvetica,sans-Serif" font-size="10.00"> Theight &gt;, true &gt;</text>
</a>
</g>
</g>
<!-- Node2&#45;&gt;Node1 -->
<g id="edge1" class="edge">
<title>Node2&#45;&gt;Node1</title>
<path fill="none" stroke="midnightblue" d="M435.28,-26.5C444.01,-26.5 452.92,-26.5 461.71,-26.5"/>
<polygon fill="midnightblue" stroke="midnightblue" points="435.13,-23 425.13,-26.5 435.13,-30 435.13,-23"/>
</g>
<!-- Node3 -->
<g id="node3" class="node">
<title>Node3</title>
<g id="a_node3"><a xlink:href="structpre_1_1microsurface.html" target="_top" xlink:title="Microsurface prototype.">
<polygon fill="white" stroke="black" points="0,-11.5 0,-41.5 110,-41.5 110,-11.5 0,-11.5"/>
<text text-anchor="start" x="8" y="-29.5" font-family="Helvetica,sans-Serif" font-size="10.00">pre::microsurface&lt;</text>
<text text-anchor="middle" x="55" y="-18.5" font-family="Helvetica,sans-Serif" font-size="10.00"> Tchild, bidir_mis &gt;</text>
</a>
</g>
</g>
<!-- Node3&#45;&gt;Node2 -->
<g id="edge2" class="edge">
<title>Node3&#45;&gt;Node2</title>
<path fill="none" stroke="orange" stroke-dasharray="5,2" d="M120.39,-26.5C168.33,-26.5 233.74,-26.5 282.98,-26.5"/>
<polygon fill="orange" stroke="orange" points="120.13,-23 110.13,-26.5 120.13,-30 120.13,-23"/>
<text text-anchor="start" x="128" y="-51.5" font-family="Helvetica,sans-Serif" font-size="10.00"> &lt; microsurface_conductive</text>
<text text-anchor="start" x="128" y="-40.5" font-family="Helvetica,sans-Serif" font-size="10.00">_brdf&lt; Tfloat, Tslope,</text>
<text text-anchor="middle" x="196.5" y="-29.5" font-family="Helvetica,sans-Serif" font-size="10.00"> Theight &gt;, true &gt;</text>
</g>
</g>
</svg>
