<?xml version="1.0" encoding="UTF-8" standalone="no"?>
<!DOCTYPE svg PUBLIC "-//W3C//DTD SVG 1.1//EN"
 "http://www.w3.org/Graphics/SVG/1.1/DTD/svg11.dtd">
<!-- Generated by graphviz version 2.40.1 (20161225.0304)
 -->
<!-- Title: pr::microsurface&lt; Tchild &gt; Pages: 1 -->
<svg width="630pt" height="170pt"
 viewBox="0.00 0.00 630.00 170.00" xmlns="http://www.w3.org/2000/svg" xmlns:xlink="http://www.w3.org/1999/xlink">
<g id="graph0" class="graph" transform="scale(1 1) rotate(0) translate(4 166)">
<title>pr::microsurface&lt; Tchild &gt;</title>
<polygon fill="#ffffff" stroke="transparent" points="-4,4 -4,-166 626,-166 626,4 -4,4"/>
<!-- Node0 -->
<g id="node1" class="node">
<title>Node0</title>
<polygon fill="#bfbfbf" stroke="#000000" points="0,-71.5 0,-90.5 131,-90.5 131,-71.5 0,-71.5"/>
<text text-anchor="middle" x="65.5" y="-78.5" font-family="Helvetica,sans-Serif" font-size="10.00" fill="#000000">pr::microsurface&lt; Tchild &gt;</text>
</g>
<!-- Node1 -->
<g id="node2" class="node">
<title>Node1</title>
<g id="a_node2"><a xlink:href="structpr_1_1microsurface.html" target="_top" xlink:title="pr::microsurface\&lt; microsurface\l_lambertian\&lt; Tfloat, Tslope,\l Theight \&gt; \&gt;">
<polygon fill="#ffffff" stroke="#000000" points="293,-120.5 293,-161.5 445,-161.5 445,-120.5 293,-120.5"/>
<text text-anchor="start" x="301" y="-149.5" font-family="Helvetica,sans-Serif" font-size="10.00" fill="#000000">pr::microsurface&lt; microsurface</text>
<text text-anchor="start" x="301" y="-138.5" font-family="Helvetica,sans-Serif" font-size="10.00" fill="#000000">_lambertian&lt; Tfloat, Tslope,</text>
<text text-anchor="middle" x="369" y="-127.5" font-family="Helvetica,sans-Serif" font-size="10.00" fill="#000000"> Theight &gt; &gt;</text>
</a>
</g>
</g>
<!-- Node0&#45;&gt;Node1 -->
<g id="edge1" class="edge">
<title>Node0&#45;&gt;Node1</title>
<path fill="none" stroke="#ffa500" stroke-dasharray="5,2" d="M102.2488,-93.7367C116.6913,-98.4005 133.4967,-103.4093 149,-107 196.3464,-117.9659 250.262,-126.3625 292.8691,-132.0679"/>
<polygon fill="#ffa500" stroke="#ffa500" points="103.2657,-90.3868 92.6727,-90.5847 101.0771,-97.0358 103.2657,-90.3868"/>
<text text-anchor="start" x="149" y="-143" font-family="Helvetica,sans-Serif" font-size="10.00" fill="#000000"> &lt; microsurface_lambertian</text>
<text text-anchor="middle" x="212" y="-132" font-family="Helvetica,sans-Serif" font-size="10.00" fill="#000000">&lt; Tfloat, Tslope, Theight &gt; &gt;</text>
</g>
<!-- Node3 -->
<g id="node4" class="node">
<title>Node3</title>
<g id="a_node4"><a xlink:href="structpr_1_1microsurface.html" target="_top" xlink:title="pr::microsurface\&lt; microsurface\l_conductive\&lt; Tfloat, Tslope,\l Theight \&gt; \&gt;">
<polygon fill="#ffffff" stroke="#000000" points="293,-60.5 293,-101.5 445,-101.5 445,-60.5 293,-60.5"/>
<text text-anchor="start" x="301" y="-89.5" font-family="Helvetica,sans-Serif" font-size="10.00" fill="#000000">pr::microsurface&lt; microsurface</text>
<text text-anchor="start" x="301" y="-78.5" font-family="Helvetica,sans-Serif" font-size="10.00" fill="#000000">_conductive&lt; Tfloat, Tslope,</text>
<text text-anchor="middle" x="369" y="-67.5" font-family="Helvetica,sans-Serif" font-size="10.00" fill="#000000"> Theight &gt; &gt;</text>
</a>
</g>
</g>
<!-- Node0&#45;&gt;Node3 -->
<g id="edge3" class="edge">
<title>Node0&#45;&gt;Node3</title>
<path fill="none" stroke="#ffa500" stroke-dasharray="5,2" d="M141.6136,-81C187.8264,-81 246.6128,-81 292.8349,-81"/>
<polygon fill="#ffa500" stroke="#ffa500" points="141.355,-77.5001 131.355,-81 141.3549,-84.5001 141.355,-77.5001"/>
<text text-anchor="start" x="149" y="-95" font-family="Helvetica,sans-Serif" font-size="10.00" fill="#000000"> &lt; microsurface_conductive</text>
<text text-anchor="middle" x="212" y="-84" font-family="Helvetica,sans-Serif" font-size="10.00" fill="#000000">&lt; Tfloat, Tslope, Theight &gt; &gt;</text>
</g>
<!-- Node5 -->
<g id="node6" class="node">
<title>Node5</title>
<g id="a_node6"><a xlink:href="structpr_1_1microsurface.html" target="_top" xlink:title="pr::microsurface\&lt; microsurface\l_dielectric\&lt; Tfloat, Tslope,\l Theight \&gt; \&gt;">
<polygon fill="#ffffff" stroke="#000000" points="293,-.5 293,-41.5 445,-41.5 445,-.5 293,-.5"/>
<text text-anchor="start" x="301" y="-29.5" font-family="Helvetica,sans-Serif" font-size="10.00" fill="#000000">pr::microsurface&lt; microsurface</text>
<text text-anchor="start" x="301" y="-18.5" font-family="Helvetica,sans-Serif" font-size="10.00" fill="#000000">_dielectric&lt; Tfloat, Tslope,</text>
<text text-anchor="middle" x="369" y="-7.5" font-family="Helvetica,sans-Serif" font-size="10.00" fill="#000000"> Theight &gt; &gt;</text>
</a>
</g>
</g>
<!-- Node0&#45;&gt;Node5 -->
<g id="edge5" class="edge">
<title>Node0&#45;&gt;Node5</title>
<path fill="none" stroke="#ffa500" stroke-dasharray="5,2" d="M102.2488,-68.2633C116.6913,-63.5995 133.4967,-58.5907 149,-55 196.3464,-44.0341 250.262,-35.6375 292.8691,-29.9321"/>
<polygon fill="#ffa500" stroke="#ffa500" points="101.0771,-64.9642 92.6727,-71.4153 103.2657,-71.6132 101.0771,-64.9642"/>
<text text-anchor="start" x="149" y="-69" font-family="Helvetica,sans-Serif" font-size="10.00" fill="#000000"> &lt; microsurface_dielectric</text>
<text text-anchor="middle" x="212" y="-58" font-family="Helvetica,sans-Serif" font-size="10.00" fill="#000000">&lt; Tfloat, Tslope, Theight &gt; &gt;</text>
</g>
<!-- Node2 -->
<g id="node3" class="node">
<title>Node2</title>
<g id="a_node3"><a xlink:href="structpr_1_1microsurface__lambertian.html" target="_top" xlink:title="Microsurface from Lambertian BSDF. ">
<polygon fill="#ffffff" stroke="#000000" points="483.5,-126 483.5,-156 620.5,-156 620.5,-126 483.5,-126"/>
<text text-anchor="start" x="491.5" y="-144" font-family="Helvetica,sans-Serif" font-size="10.00" fill="#000000">pr::microsurface_lambertian</text>
<text text-anchor="middle" x="552" y="-133" font-family="Helvetica,sans-Serif" font-size="10.00" fill="#000000">&lt; Tfloat, Tslope, Theight &gt;</text>
</a>
</g>
</g>
<!-- Node1&#45;&gt;Node2 -->
<g id="edge2" class="edge">
<title>Node1&#45;&gt;Node2</title>
<path fill="none" stroke="#191970" d="M455.1808,-141C464.5906,-141 474.0757,-141 483.2361,-141"/>
<polygon fill="#191970" stroke="#191970" points="455.0187,-137.5001 445.0187,-141 455.0186,-144.5001 455.0187,-137.5001"/>
</g>
<!-- Node4 -->
<g id="node5" class="node">
<title>Node4</title>
<g id="a_node5"><a xlink:href="structpr_1_1microsurface__conductive.html" target="_top" xlink:title="Microsurface from conductive BRDF. ">
<polygon fill="#ffffff" stroke="#000000" points="482,-66 482,-96 622,-96 622,-66 482,-66"/>
<text text-anchor="start" x="490" y="-84" font-family="Helvetica,sans-Serif" font-size="10.00" fill="#000000">pr::microsurface_conductive</text>
<text text-anchor="middle" x="552" y="-73" font-family="Helvetica,sans-Serif" font-size="10.00" fill="#000000">&lt; Tfloat, Tslope, Theight &gt;</text>
</a>
</g>
</g>
<!-- Node3&#45;&gt;Node4 -->
<g id="edge4" class="edge">
<title>Node3&#45;&gt;Node4</title>
<path fill="none" stroke="#191970" d="M455.0737,-81C464.022,-81 473.0398,-81 481.783,-81"/>
<polygon fill="#191970" stroke="#191970" points="455.0187,-77.5001 445.0187,-81 455.0186,-84.5001 455.0187,-77.5001"/>
</g>
<!-- Node6 -->
<g id="node7" class="node">
<title>Node6</title>
<g id="a_node7"><a xlink:href="structpr_1_1microsurface__dielectric.html" target="_top" xlink:title="Microsurface from dielectric BSDF. ">
<polygon fill="#ffffff" stroke="#000000" points="485.5,-6 485.5,-36 618.5,-36 618.5,-6 485.5,-6"/>
<text text-anchor="start" x="493.5" y="-24" font-family="Helvetica,sans-Serif" font-size="10.00" fill="#000000">pr::microsurface_dielectric</text>
<text text-anchor="middle" x="552" y="-13" font-family="Helvetica,sans-Serif" font-size="10.00" fill="#000000">&lt; Tfloat, Tslope, Theight &gt;</text>
</a>
</g>
</g>
<!-- Node5&#45;&gt;Node6 -->
<g id="edge6" class="edge">
<title>Node5&#45;&gt;Node6</title>
<path fill="none" stroke="#191970" d="M455.1017,-21C465.2327,-21 475.4523,-21 485.2613,-21"/>
<polygon fill="#191970" stroke="#191970" points="455.0187,-17.5001 445.0187,-21 455.0186,-24.5001 455.0187,-17.5001"/>
</g>
</g>
</svg>
