<?xml version="1.0" encoding="UTF-8" standalone="no"?>
<!DOCTYPE svg PUBLIC "-//W3C//DTD SVG 1.1//EN"
 "http://www.w3.org/Graphics/SVG/1.1/DTD/svg11.dtd">
<!-- Generated by graphviz version 2.40.1 (20161225.0304)
 -->
<!-- Title: pr::microsurface_conductive_brdf&lt; Tfloat, Tslope, Theight &gt; Pages: 1 -->
<svg width="207pt" height="207pt"
 viewBox="0.00 0.00 206.50 207.00" xmlns="http://www.w3.org/2000/svg" xmlns:xlink="http://www.w3.org/1999/xlink">
<g id="graph0" class="graph" transform="scale(1 1) rotate(0) translate(4 203)">
<title>pr::microsurface_conductive_brdf&lt; Tfloat, Tslope, Theight &gt;</title>
<polygon fill="#ffffff" stroke="transparent" points="-4,4 -4,-203 202.5,-203 202.5,4 -4,4"/>
<!-- Node0 -->
<g id="node1" class="node">
<title>Node0</title>
<polygon fill="#bfbfbf" stroke="#000000" points="0,-.5 0,-30.5 155,-30.5 155,-.5 0,-.5"/>
<text text-anchor="start" x="8" y="-18.5" font-family="Helvetica,sans-Serif" font-size="10.00" fill="#000000">pr::microsurface_conductive</text>
<text text-anchor="middle" x="77.5" y="-7.5" font-family="Helvetica,sans-Serif" font-size="10.00" fill="#000000">_brdf&lt; Tfloat, Tslope, Theight &gt;</text>
</g>
<!-- Node1 -->
<g id="node2" class="node">
<title>Node1</title>
<g id="a_node2"><a xlink:href="structpr_1_1microsurface.html" target="_top" xlink:title="pr::microsurface\&lt; microsurface\l_conductive_brdf\&lt; Tfloat,\l Tslope, Theight \&gt; \&gt;">
<polygon fill="#ffffff" stroke="#000000" points="1.5,-68.5 1.5,-109.5 153.5,-109.5 153.5,-68.5 1.5,-68.5"/>
<text text-anchor="start" x="9.5" y="-97.5" font-family="Helvetica,sans-Serif" font-size="10.00" fill="#000000">pr::microsurface&lt; microsurface</text>
<text text-anchor="start" x="9.5" y="-86.5" font-family="Helvetica,sans-Serif" font-size="10.00" fill="#000000">_conductive_brdf&lt; Tfloat,</text>
<text text-anchor="middle" x="77.5" y="-75.5" font-family="Helvetica,sans-Serif" font-size="10.00" fill="#000000"> Tslope, Theight &gt; &gt;</text>
</a>
</g>
</g>
<!-- Node1&#45;&gt;Node0 -->
<g id="edge1" class="edge">
<title>Node1&#45;&gt;Node0</title>
<path fill="none" stroke="#191970" d="M77.5,-57.9048C77.5,-48.5365 77.5,-38.666 77.5,-30.8074"/>
<polygon fill="#191970" stroke="#191970" points="74.0001,-58.1344 77.5,-68.1345 81.0001,-58.1345 74.0001,-58.1344"/>
</g>
<!-- Node2 -->
<g id="node3" class="node">
<title>Node2</title>
<g id="a_node3"><a xlink:href="structpr_1_1microsurface.html" target="_top" xlink:title="Microsurface prototype. ">
<polygon fill="#ffffff" stroke="#000000" points="12,-179.5 12,-198.5 143,-198.5 143,-179.5 12,-179.5"/>
<text text-anchor="middle" x="77.5" y="-186.5" font-family="Helvetica,sans-Serif" font-size="10.00" fill="#000000">pr::microsurface&lt; Tchild &gt;</text>
</a>
</g>
</g>
<!-- Node2&#45;&gt;Node1 -->
<g id="edge2" class="edge">
<title>Node2&#45;&gt;Node1</title>
<path fill="none" stroke="#ffa500" stroke-dasharray="5,2" d="M77.5,-169.3945C77.5,-152.2216 77.5,-127.3404 77.5,-109.8169"/>
<polygon fill="#ffa500" stroke="#ffa500" points="74.0001,-169.4115 77.5,-179.4116 81.0001,-169.4116 74.0001,-169.4115"/>
<text text-anchor="start" x="77.5" y="-153" font-family="Helvetica,sans-Serif" font-size="10.00" fill="#000000"> &lt; microsurface_conductive</text>
<text text-anchor="start" x="77.5" y="-142" font-family="Helvetica,sans-Serif" font-size="10.00" fill="#000000">_brdf&lt; Tfloat, Tslope,</text>
<text text-anchor="middle" x="138" y="-131" font-family="Helvetica,sans-Serif" font-size="10.00" fill="#000000"> Theight &gt; &gt;</text>
</g>
</g>
</svg>
