<?xml version="1.0" encoding="UTF-8" standalone="no"?>
<!DOCTYPE svg PUBLIC "-//W3C//DTD SVG 1.1//EN"
 "http://www.w3.org/Graphics/SVG/1.1/DTD/svg11.dtd">
<!-- Generated by graphviz version 2.40.1 (20161225.0304)
 -->
<!-- Title: pre::microsurface&lt; Tchild, bidir_mis &gt; Pages: 1 -->
<!--zoomable 203 -->
<svg id="main" version="1.1" xmlns="http://www.w3.org/2000/svg" xmlns:xlink="http://www.w3.org/1999/xlink" xml:space="preserve" onload="init(evt)">
<style type="text/css"><![CDATA[
.edge:hover path { stroke: red; }
.edge:hover polygon { stroke: red; fill: red; }
]]></style>
<script type="text/javascript"><![CDATA[
var edges = document.getElementsByTagName('g');
if (edges && edges.length) {
  for (var i=0;i<edges.length;i++) {
    if (edges[i].id.substr(0,4)=='edge') {
      edges[i].setAttribute('class','edge');
    }
  }
}
]]></script>
        <defs>
                <circle id="rim" cx="0" cy="0" r="7"/>
                <circle id="rim2" cx="0" cy="0" r="3.5"/>
                <g id="zoomPlus">
                        <use xlink:href="#rim" fill="#404040">
                                <set attributeName="fill" to="#808080" begin="zoomplus.mouseover" end="zoomplus.mouseout"/>
                        </use>
                        <path d="M-4,0h8M0,-4v8" fill="none" stroke="white" stroke-width="1.5" pointer-events="none"/>
                </g>
                <g id="zoomMin">
                        <use xlink:href="#rim" fill="#404040">
                                <set attributeName="fill" to="#808080" begin="zoomminus.mouseover" end="zoomminus.mouseout"/>
                        </use>
                        <path d="M-4,0h8" fill="none" stroke="white" stroke-width="1.5" pointer-events="none"/>
                </g>
                <g id="dirArrow">
                        <path fill="none" stroke="white" stroke-width="1.5" d="M0,-3.0v7 M-2.5,-0.5L0,-3.0L2.5,-0.5"/>
                </g>
               <g id="resetDef">
                       <use xlink:href="#rim2" fill="#404040">
                               <set attributeName="fill" to="#808080" begin="reset.mouseover" end="reset.mouseout"/>
                       </use>
               </g>
        </defs>

<script type="text/javascript">
var viewWidth = 587;
var viewHeight = 203;
var sectionId = 'dynsection-0';
</script>
<script xlink:href="svgpan.js"/>
<svg id="graph" class="graph">
<g id="viewport">
<title>pre::microsurface&lt; Tchild, bidir_mis &gt;</title>
<polygon fill="#ffffff" stroke="transparent" points="-4,4 -4,-199 583,-199 583,4 -4,4"/>
<!-- Node0 -->
<g id="node1" class="node">
<title>Node0</title>
<polygon fill="#bfbfbf" stroke="#000000" points="0,-82.5 0,-112.5 100,-112.5 100,-82.5 0,-82.5"/>
<text text-anchor="start" x="8" y="-100.5" font-family="Helvetica,sans-Serif" font-size="10.00" fill="#000000">pre::microsurface&lt;</text>
<text text-anchor="middle" x="50" y="-89.5" font-family="Helvetica,sans-Serif" font-size="10.00" fill="#000000"> Tchild, bidir_mis &gt;</text>
</g>
<!-- Node1 -->
<g id="node2" class="node">
<title>Node1</title>
<g id="a_node2"><a xlink:href="structpre_1_1microsurface.html" target="_top" xlink:title="pre::microsurface\&lt;\l microsurface_dielectric\l_bsdf\&lt; Tfloat, Tslope,\l Theight \&gt;, true \&gt;">
<polygon fill="#ffffff" stroke="#000000" points="261,-142.5 261,-194.5 381,-194.5 381,-142.5 261,-142.5"/>
<text text-anchor="start" x="269" y="-182.5" font-family="Helvetica,sans-Serif" font-size="10.00" fill="#000000">pre::microsurface&lt;</text>
<text text-anchor="start" x="269" y="-171.5" font-family="Helvetica,sans-Serif" font-size="10.00" fill="#000000"> microsurface_dielectric</text>
<text text-anchor="start" x="269" y="-160.5" font-family="Helvetica,sans-Serif" font-size="10.00" fill="#000000">_bsdf&lt; Tfloat, Tslope,</text>
<text text-anchor="middle" x="321" y="-149.5" font-family="Helvetica,sans-Serif" font-size="10.00" fill="#000000"> Theight &gt;, true &gt;</text>
</a>
</g>
</g>
<!-- Node0&#45;&gt;Node1 -->
<g id="edge1" class="edge">
<title>Node0&#45;&gt;Node1</title>
<path fill="none" stroke="#ffa500" stroke-dasharray="5,2" d="M81.8903,-117.6941C92.961,-123.924 105.6915,-130.2547 118,-134.5 164.449,-150.5206 219.5644,-159.1401 260.6366,-163.6872"/>
<polygon fill="#ffa500" stroke="#ffa500" points="83.4299,-114.5405 73.0271,-112.5327 79.9073,-120.5896 83.4299,-114.5405"/>
<text text-anchor="start" x="122" y="-185.5" font-family="Helvetica,sans-Serif" font-size="10.00" fill="#000000"> &lt; microsurface_dielectric</text>
<text text-anchor="start" x="122" y="-174.5" font-family="Helvetica,sans-Serif" font-size="10.00" fill="#000000">_bsdf&lt; Tfloat, Tslope,</text>
<text text-anchor="middle" x="178.5" y="-163.5" font-family="Helvetica,sans-Serif" font-size="10.00" fill="#000000"> Theight &gt;, true &gt;</text>
</g>
<!-- Node3 -->
<g id="node4" class="node">
<title>Node3</title>
<g id="a_node4"><a xlink:href="structpre_1_1microsurface.html" target="_top" xlink:title="pre::microsurface\&lt;\l microsurface_lambertian\l_bsdf\&lt; Tfloat, Tslope,\l Theight \&gt;, false \&gt;">
<polygon fill="#ffffff" stroke="#000000" points="258,-71.5 258,-123.5 384,-123.5 384,-71.5 258,-71.5"/>
<text text-anchor="start" x="266" y="-111.5" font-family="Helvetica,sans-Serif" font-size="10.00" fill="#000000">pre::microsurface&lt;</text>
<text text-anchor="start" x="266" y="-100.5" font-family="Helvetica,sans-Serif" font-size="10.00" fill="#000000"> microsurface_lambertian</text>
<text text-anchor="start" x="266" y="-89.5" font-family="Helvetica,sans-Serif" font-size="10.00" fill="#000000">_bsdf&lt; Tfloat, Tslope,</text>
<text text-anchor="middle" x="321" y="-78.5" font-family="Helvetica,sans-Serif" font-size="10.00" fill="#000000"> Theight &gt;, false &gt;</text>
</a>
</g>
</g>
<!-- Node0&#45;&gt;Node3 -->
<g id="edge3" class="edge">
<title>Node0&#45;&gt;Node3</title>
<path fill="none" stroke="#ffa500" stroke-dasharray="5,2" d="M110.2587,-97.5C154.1241,-97.5 213.3931,-97.5 257.904,-97.5"/>
<polygon fill="#ffa500" stroke="#ffa500" points="110.0214,-94.0001 100.0214,-97.5 110.0214,-101.0001 110.0214,-94.0001"/>
<text text-anchor="start" x="119" y="-122.5" font-family="Helvetica,sans-Serif" font-size="10.00" fill="#000000"> &lt; microsurface_lambertian</text>
<text text-anchor="start" x="119" y="-111.5" font-family="Helvetica,sans-Serif" font-size="10.00" fill="#000000">_bsdf&lt; Tfloat, Tslope,</text>
<text text-anchor="middle" x="178.5" y="-100.5" font-family="Helvetica,sans-Serif" font-size="10.00" fill="#000000"> Theight &gt;, false &gt;</text>
</g>
<!-- Node5 -->
<g id="node6" class="node">
<title>Node5</title>
<g id="a_node6"><a xlink:href="structpre_1_1microsurface.html" target="_top" xlink:title="pre::microsurface\&lt;\l microsurface_conductive\l_brdf\&lt; Tfloat, Tslope,\l Theight \&gt;, true \&gt;">
<polygon fill="#ffffff" stroke="#000000" points="257,-.5 257,-52.5 385,-52.5 385,-.5 257,-.5"/>
<text text-anchor="start" x="265" y="-40.5" font-family="Helvetica,sans-Serif" font-size="10.00" fill="#000000">pre::microsurface&lt;</text>
<text text-anchor="start" x="265" y="-29.5" font-family="Helvetica,sans-Serif" font-size="10.00" fill="#000000"> microsurface_conductive</text>
<text text-anchor="start" x="265" y="-18.5" font-family="Helvetica,sans-Serif" font-size="10.00" fill="#000000">_brdf&lt; Tfloat, Tslope,</text>
<text text-anchor="middle" x="321" y="-7.5" font-family="Helvetica,sans-Serif" font-size="10.00" fill="#000000"> Theight &gt;, true &gt;</text>
</a>
</g>
</g>
<!-- Node0&#45;&gt;Node5 -->
<g id="edge5" class="edge">
<title>Node0&#45;&gt;Node5</title>
<path fill="none" stroke="#ffa500" stroke-dasharray="5,2" d="M81.8903,-77.3059C92.961,-71.076 105.6915,-64.7453 118,-60.5 162.9288,-45.0037 215.9661,-36.432 256.5597,-31.7724"/>
<polygon fill="#ffa500" stroke="#ffa500" points="79.9073,-74.4104 73.0271,-82.4673 83.4299,-80.4595 79.9073,-74.4104"/>
<text text-anchor="start" x="118" y="-85.5" font-family="Helvetica,sans-Serif" font-size="10.00" fill="#000000"> &lt; microsurface_conductive</text>
<text text-anchor="start" x="118" y="-74.5" font-family="Helvetica,sans-Serif" font-size="10.00" fill="#000000">_brdf&lt; Tfloat, Tslope,</text>
<text text-anchor="middle" x="178.5" y="-63.5" font-family="Helvetica,sans-Serif" font-size="10.00" fill="#000000"> Theight &gt;, true &gt;</text>
</g>
<!-- Node2 -->
<g id="node3" class="node">
<title>Node2</title>
<g id="a_node3"><a xlink:href="structpre_1_1microsurface__dielectric__bsdf.html" target="_top" xlink:title="Microsurface from dielectric BSDF. ">
<polygon fill="#ffffff" stroke="#000000" points="422,-153.5 422,-183.5 579,-183.5 579,-153.5 422,-153.5"/>
<text text-anchor="start" x="430" y="-171.5" font-family="Helvetica,sans-Serif" font-size="10.00" fill="#000000">pre::microsurface_dielectric</text>
<text text-anchor="middle" x="500.5" y="-160.5" font-family="Helvetica,sans-Serif" font-size="10.00" fill="#000000">_bsdf&lt; Tfloat, Tslope, Theight &gt;</text>
</a>
</g>
</g>
<!-- Node1&#45;&gt;Node2 -->
<g id="edge2" class="edge">
<title>Node1&#45;&gt;Node2</title>
<path fill="none" stroke="#191970" d="M391.5175,-168.5C401.4872,-168.5 411.7891,-168.5 421.8993,-168.5"/>
<polygon fill="#191970" stroke="#191970" points="391.2703,-165.0001 381.2702,-168.5 391.2702,-172.0001 391.2703,-165.0001"/>
</g>
<!-- Node4 -->
<g id="node5" class="node">
<title>Node4</title>
<g id="a_node5"><a xlink:href="structpre_1_1microsurface__lambertian__bsdf.html" target="_top" xlink:title="Microsurface from Lambertian BSDF. ">
<polygon fill="#ffffff" stroke="#000000" points="422,-82.5 422,-112.5 579,-112.5 579,-82.5 422,-82.5"/>
<text text-anchor="start" x="430" y="-100.5" font-family="Helvetica,sans-Serif" font-size="10.00" fill="#000000">pre::microsurface_lambertian</text>
<text text-anchor="middle" x="500.5" y="-89.5" font-family="Helvetica,sans-Serif" font-size="10.00" fill="#000000">_bsdf&lt; Tfloat, Tslope, Theight &gt;</text>
</a>
</g>
</g>
<!-- Node3&#45;&gt;Node4 -->
<g id="edge4" class="edge">
<title>Node3&#45;&gt;Node4</title>
<path fill="none" stroke="#191970" d="M394.2016,-97.5C403.3158,-97.5 412.6658,-97.5 421.8579,-97.5"/>
<polygon fill="#191970" stroke="#191970" points="394.0326,-94.0001 384.0326,-97.5 394.0325,-101.0001 394.0326,-94.0001"/>
</g>
<!-- Node6 -->
<g id="node7" class="node">
<title>Node6</title>
<g id="a_node7"><a xlink:href="structpre_1_1microsurface__conductive__brdf.html" target="_top" xlink:title="Microsurface from conductive BRDF. ">
<polygon fill="#ffffff" stroke="#000000" points="423,-11.5 423,-41.5 578,-41.5 578,-11.5 423,-11.5"/>
<text text-anchor="start" x="431" y="-29.5" font-family="Helvetica,sans-Serif" font-size="10.00" fill="#000000">pre::microsurface_conductive</text>
<text text-anchor="middle" x="500.5" y="-18.5" font-family="Helvetica,sans-Serif" font-size="10.00" fill="#000000">_brdf&lt; Tfloat, Tslope, Theight &gt;</text>
</a>
</g>
</g>
<!-- Node5&#45;&gt;Node6 -->
<g id="edge6" class="edge">
<title>Node5&#45;&gt;Node6</title>
<path fill="none" stroke="#191970" d="M395.2559,-26.5C404.4032,-26.5 413.772,-26.5 422.9665,-26.5"/>
<polygon fill="#191970" stroke="#191970" points="395.0434,-23.0001 385.0434,-26.5 395.0434,-30.0001 395.0434,-23.0001"/>
</g>
</g>
</svg>
        <g id="navigator" transform="translate(0 0)" fill="#404254">
                <rect fill="#f2f5e9" fill-opacity="0.5" stroke="#606060" stroke-width=".5" x="0" y="0" width="60" height="60"/>
                <use id="zoomplus" xlink:href="#zoomPlus" x="17" y="9" onmousedown="handleZoom(evt,'in')"/>
                <use id="zoomminus" xlink:href="#zoomMin" x="42" y="9" onmousedown="handleZoom(evt,'out')"/>
                <use id="reset" xlink:href="#resetDef" x="30" y="36" onmousedown="handleReset()"/>
                <g id="arrowUp" xlink:href="#dirArrow" transform="translate(30 24)" onmousedown="handlePan(0,-1)">
                  <use xlink:href="#rim" fill="#404040">
                        <set attributeName="fill" to="#808080" begin="arrowUp.mouseover" end="arrowUp.mouseout"/>
                  </use>
                  <path fill="none" stroke="white" stroke-width="1.5" d="M0,-3.0v7 M-2.5,-0.5L0,-3.0L2.5,-0.5"/>
                </g>
                <g id="arrowRight" xlink:href="#dirArrow" transform="rotate(90) translate(36 -43)" onmousedown="handlePan(1,0)">
                  <use xlink:href="#rim" fill="#404040">
                        <set attributeName="fill" to="#808080" begin="arrowRight.mouseover" end="arrowRight.mouseout"/>
                  </use>
                  <path fill="none" stroke="white" stroke-width="1.5" d="M0,-3.0v7 M-2.5,-0.5L0,-3.0L2.5,-0.5"/>
                </g>
                <g id="arrowDown" xlink:href="#dirArrow" transform="rotate(180) translate(-30 -48)" onmousedown="handlePan(0,1)">
                  <use xlink:href="#rim" fill="#404040">
                        <set attributeName="fill" to="#808080" begin="arrowDown.mouseover" end="arrowDown.mouseout"/>
                  </use>
                  <path fill="none" stroke="white" stroke-width="1.5" d="M0,-3.0v7 M-2.5,-0.5L0,-3.0L2.5,-0.5"/>
                </g>
                <g id="arrowLeft" xlink:href="#dirArrow" transform="rotate(270) translate(-36 17)" onmousedown="handlePan(-1,0)">
                  <use xlink:href="#rim" fill="#404040">
                        <set attributeName="fill" to="#808080" begin="arrowLeft.mouseover" end="arrowLeft.mouseout"/>
                  </use>
                  <path fill="none" stroke="white" stroke-width="1.5" d="M0,-3.0v7 M-2.5,-0.5L0,-3.0L2.5,-0.5"/>
                </g>
        </g>
        <svg viewBox="0 0 15 15" width="100%" height="30px" preserveAspectRatio="xMaxYMin meet">
         <g id="arrow_out" transform="scale(0.3 0.3)">
          <a xlink:href="structpre_1_1microsurface__inherit__graph_org.svg" target="_base">
           <rect id="button" ry="5" rx="5" y="6" x="6" height="38" width="38"
                fill="#f2f5e9" fill-opacity="0.5" stroke="#606060" stroke-width="1.0"/>
           <path id="arrow"
             d="M 11.500037,31.436501 C 11.940474,20.09759 22.043105,11.32322 32.158766,21.979434 L 37.068811,17.246167 C 37.068811,17.246167 37.088388,32 37.088388,32 L 22.160133,31.978069 C 22.160133,31.978069 26.997745,27.140456 26.997745,27.140456 C 18.528582,18.264221 13.291696,25.230495 11.500037,31.436501 z"
             style="fill:#404040;"/>
          </a>
         </g>
        </svg>
</svg>
