<?xml version="1.0" encoding="UTF-8" standalone="no"?>
<!DOCTYPE svg PUBLIC "-//W3C//DTD SVG 1.1//EN"
 "http://www.w3.org/Graphics/SVG/1.1/DTD/svg11.dtd">
<!-- Generated by graphviz version 2.40.1 (20161225.0304)
 -->
<!-- Title: pr::microsurface_lambertian_bsdf&lt; Tfloat, Tslope, Theight &gt; Pages: 1 -->
<svg width="634pt" height="62pt"
 viewBox="0.00 0.00 634.00 62.00" xmlns="http://www.w3.org/2000/svg" xmlns:xlink="http://www.w3.org/1999/xlink">
<g id="graph0" class="graph" transform="scale(1 1) rotate(0) translate(4 58)">
<title>pr::microsurface_lambertian_bsdf&lt; Tfloat, Tslope, Theight &gt;</title>
<polygon fill="#ffffff" stroke="transparent" points="-4,4 -4,-58 630,-58 630,4 -4,4"/>
<!-- Node0 -->
<g id="node1" class="node">
<title>Node0</title>
<polygon fill="#bfbfbf" stroke="#000000" points="469,-6 469,-36 626,-36 626,-6 469,-6"/>
<text text-anchor="start" x="477" y="-24" font-family="Helvetica,sans-Serif" font-size="10.00" fill="#000000">pr::microsurface_lambertian</text>
<text text-anchor="middle" x="547.5" y="-13" font-family="Helvetica,sans-Serif" font-size="10.00" fill="#000000">_bsdf&lt; Tfloat, Tslope, Theight &gt;</text>
</g>
<!-- Node1 -->
<g id="node2" class="node">
<title>Node1</title>
<g id="a_node2"><a xlink:href="structpr_1_1microsurface.html" target="_top" xlink:title="pr::microsurface\&lt; microsurface\l_lambertian_bsdf\&lt; Tfloat,\l Tslope, Theight \&gt;, false \&gt;">
<polygon fill="#ffffff" stroke="#000000" points="280,-.5 280,-41.5 432,-41.5 432,-.5 280,-.5"/>
<text text-anchor="start" x="288" y="-29.5" font-family="Helvetica,sans-Serif" font-size="10.00" fill="#000000">pr::microsurface&lt; microsurface</text>
<text text-anchor="start" x="288" y="-18.5" font-family="Helvetica,sans-Serif" font-size="10.00" fill="#000000">_lambertian_bsdf&lt; Tfloat,</text>
<text text-anchor="middle" x="356" y="-7.5" font-family="Helvetica,sans-Serif" font-size="10.00" fill="#000000"> Tslope, Theight &gt;, false &gt;</text>
</a>
</g>
</g>
<!-- Node1&#45;&gt;Node0 -->
<g id="edge1" class="edge">
<title>Node1&#45;&gt;Node0</title>
<path fill="none" stroke="#191970" d="M442.4403,-21C451.1888,-21 460.042,-21 468.7039,-21"/>
<polygon fill="#191970" stroke="#191970" points="442.2362,-17.5001 432.2361,-21 442.2361,-24.5001 442.2362,-17.5001"/>
</g>
<!-- Node2 -->
<g id="node3" class="node">
<title>Node2</title>
<g id="a_node3"><a xlink:href="structpr_1_1microsurface.html" target="_top" xlink:title="Microsurface prototype. ">
<polygon fill="#ffffff" stroke="#000000" points="0,-6 0,-36 125,-36 125,-6 0,-6"/>
<text text-anchor="start" x="8" y="-24" font-family="Helvetica,sans-Serif" font-size="10.00" fill="#000000">pr::microsurface&lt; Tchild,</text>
<text text-anchor="middle" x="62.5" y="-13" font-family="Helvetica,sans-Serif" font-size="10.00" fill="#000000"> bidir_mis &gt;</text>
</a>
</g>
</g>
<!-- Node2&#45;&gt;Node1 -->
<g id="edge2" class="edge">
<title>Node2&#45;&gt;Node1</title>
<path fill="none" stroke="#ffa500" stroke-dasharray="5,2" d="M135.1632,-21C179.2004,-21 235.3036,-21 279.9415,-21"/>
<polygon fill="#ffa500" stroke="#ffa500" points="135.1032,-17.5001 125.1031,-21 135.1031,-24.5001 135.1032,-17.5001"/>
<text text-anchor="start" x="143" y="-46" font-family="Helvetica,sans-Serif" font-size="10.00" fill="#000000"> &lt; microsurface_lambertian</text>
<text text-anchor="start" x="143" y="-35" font-family="Helvetica,sans-Serif" font-size="10.00" fill="#000000">_bsdf&lt; Tfloat, Tslope,</text>
<text text-anchor="middle" x="202.5" y="-24" font-family="Helvetica,sans-Serif" font-size="10.00" fill="#000000"> Theight &gt;, false &gt;</text>
</g>
</g>
</svg>
