<?xml version="1.0" encoding="UTF-8" standalone="no"?>
<!DOCTYPE svg PUBLIC "-//W3C//DTD SVG 1.1//EN"
 "http://www.w3.org/Graphics/SVG/1.1/DTD/svg11.dtd">
<!-- Generated by graphviz version 2.40.1 (20161225.0304)
 -->
<!-- Title: pre::microvolume_sggx&lt; Tfloat &gt; Pages: 1 -->
<svg width="295pt" height="88pt"
 viewBox="0.00 0.00 295.00 88.00" xmlns="http://www.w3.org/2000/svg" xmlns:xlink="http://www.w3.org/1999/xlink">
<g id="graph0" class="graph" transform="scale(1 1) rotate(0) translate(4 84)">
<title>pre::microvolume_sggx&lt; Tfloat &gt;</title>
<polygon fill="#ffffff" stroke="transparent" points="-4,4 -4,-84 291,-84 291,4 -4,4"/>
<!-- Node0 -->
<g id="node1" class="node">
<title>Node0</title>
<polygon fill="#bfbfbf" stroke="#000000" points="0,-24.5 0,-54.5 118,-54.5 118,-24.5 0,-24.5"/>
<text text-anchor="start" x="8" y="-42.5" font-family="Helvetica,sans-Serif" font-size="10.00" fill="#000000">pre::microvolume_sggx</text>
<text text-anchor="middle" x="59" y="-31.5" font-family="Helvetica,sans-Serif" font-size="10.00" fill="#000000">&lt; Tfloat &gt;</text>
</g>
<!-- Node1 -->
<g id="node2" class="node">
<title>Node1</title>
<g id="a_node2"><a xlink:href="structpre_1_1microvolume__sggx__diffuse__phase.html" target="_top" xlink:title="Microvolume SGGX diffuse (reflection) phase. ">
<polygon fill="#ffffff" stroke="#000000" points="158,-49.5 158,-79.5 283,-79.5 283,-49.5 158,-49.5"/>
<text text-anchor="start" x="166" y="-67.5" font-family="Helvetica,sans-Serif" font-size="10.00" fill="#000000">pre::microvolume_sggx</text>
<text text-anchor="middle" x="220.5" y="-56.5" font-family="Helvetica,sans-Serif" font-size="10.00" fill="#000000">_diffuse_phase&lt; Tfloat &gt;</text>
</a>
</g>
</g>
<!-- Node0&#45;&gt;Node1 -->
<g id="edge1" class="edge">
<title>Node0&#45;&gt;Node1</title>
<path fill="none" stroke="#191970" d="M128.3086,-50.2289C138.0932,-51.7435 148.1066,-53.2936 157.7583,-54.7877"/>
<polygon fill="#191970" stroke="#191970" points="128.6373,-46.7382 118.2196,-48.6671 127.5664,-53.6558 128.6373,-46.7382"/>
</g>
<!-- Node2 -->
<g id="node3" class="node">
<title>Node2</title>
<g id="a_node3"><a xlink:href="structpre_1_1microvolume__sggx__specular__phase.html" target="_top" xlink:title="Microvolume SGGX specular (reflection) phase. ">
<polygon fill="#ffffff" stroke="#000000" points="154,-.5 154,-30.5 287,-30.5 287,-.5 154,-.5"/>
<text text-anchor="start" x="162" y="-18.5" font-family="Helvetica,sans-Serif" font-size="10.00" fill="#000000">pre::microvolume_sggx</text>
<text text-anchor="middle" x="220.5" y="-7.5" font-family="Helvetica,sans-Serif" font-size="10.00" fill="#000000">_specular_phase&lt; Tfloat &gt;</text>
</a>
</g>
</g>
<!-- Node0&#45;&gt;Node2 -->
<g id="edge2" class="edge">
<title>Node0&#45;&gt;Node2</title>
<path fill="none" stroke="#191970" d="M128.1466,-29.2243C136.6923,-27.9544 145.4151,-26.6581 153.9213,-25.3941"/>
<polygon fill="#191970" stroke="#191970" points="127.5965,-25.7676 118.2196,-30.6996 128.6255,-32.6915 127.5965,-25.7676"/>
</g>
</g>
</svg>
