<?xml version="1.0" encoding="UTF-8" standalone="no"?>
<!DOCTYPE svg PUBLIC "-//W3C//DTD SVG 1.1//EN"
 "http://www.w3.org/Graphics/SVG/1.1/DTD/svg11.dtd">
<!-- Generated by graphviz version 2.40.1 (20161225.0304)
 -->
<!-- Title: pr::ashikhmin_shirley_dielectric_brdf&lt; T &gt; Pages: 1 -->
<svg width="557pt" height="68pt"
 viewBox="0.00 0.00 557.00 67.50" xmlns="http://www.w3.org/2000/svg" xmlns:xlink="http://www.w3.org/1999/xlink">
<g id="graph0" class="graph" transform="scale(1 1) rotate(0) translate(4 63.5)">
<title>pr::ashikhmin_shirley_dielectric_brdf&lt; T &gt;</title>
<polygon fill="#ffffff" stroke="transparent" points="-4,4 -4,-63.5 553,-63.5 553,4 -4,4"/>
<!-- Node0 -->
<g id="node1" class="node">
<title>Node0</title>
<polygon fill="#bfbfbf" stroke="#000000" points="440,-11.5 440,-41.5 549,-41.5 549,-11.5 440,-11.5"/>
<text text-anchor="start" x="448" y="-29.5" font-family="Helvetica,sans-Serif" font-size="10.00" fill="#000000">pr::ashikhmin_shirley</text>
<text text-anchor="middle" x="494.5" y="-18.5" font-family="Helvetica,sans-Serif" font-size="10.00" fill="#000000">_dielectric_brdf&lt; T &gt;</text>
</g>
<!-- Node1 -->
<g id="node2" class="node">
<title>Node1</title>
<g id="a_node2"><a xlink:href="structpr_1_1microsurface.html" target="_top" xlink:title="pr::microsurface\&lt; T,\l microsurface_trowbridge\l_reitz_slope, microsurface\l_uniform_height \&gt;">
<polygon fill="#ffffff" stroke="#000000" points="272,-.5 272,-52.5 403,-52.5 403,-.5 272,-.5"/>
<text text-anchor="start" x="280" y="-40.5" font-family="Helvetica,sans-Serif" font-size="10.00" fill="#000000">pr::microsurface&lt; T,</text>
<text text-anchor="start" x="280" y="-29.5" font-family="Helvetica,sans-Serif" font-size="10.00" fill="#000000"> microsurface_trowbridge</text>
<text text-anchor="start" x="280" y="-18.5" font-family="Helvetica,sans-Serif" font-size="10.00" fill="#000000">_reitz_slope, microsurface</text>
<text text-anchor="middle" x="337.5" y="-7.5" font-family="Helvetica,sans-Serif" font-size="10.00" fill="#000000">_uniform_height &gt;</text>
</a>
</g>
</g>
<!-- Node1&#45;&gt;Node0 -->
<g id="edge1" class="edge">
<title>Node1&#45;&gt;Node0</title>
<path fill="none" stroke="#191970" d="M413.4544,-26.5C422.2525,-26.5 431.0932,-26.5 439.5339,-26.5"/>
<polygon fill="#191970" stroke="#191970" points="413.1725,-23.0001 403.1725,-26.5 413.1724,-30.0001 413.1725,-23.0001"/>
</g>
<!-- Node2 -->
<g id="node3" class="node">
<title>Node2</title>
<g id="a_node3"><a xlink:href="structpr_1_1microsurface.html" target="_top" xlink:title="Microsurface. ">
<polygon fill="#ffffff" stroke="#000000" points="0,-11.5 0,-41.5 105,-41.5 105,-11.5 0,-11.5"/>
<text text-anchor="start" x="8" y="-29.5" font-family="Helvetica,sans-Serif" font-size="10.00" fill="#000000">pr::microsurface&lt; T,</text>
<text text-anchor="middle" x="52.5" y="-18.5" font-family="Helvetica,sans-Serif" font-size="10.00" fill="#000000"> Tslope, Theight &gt;</text>
</a>
</g>
</g>
<!-- Node2&#45;&gt;Node1 -->
<g id="edge2" class="edge">
<title>Node2&#45;&gt;Node1</title>
<path fill="none" stroke="#ffa500" stroke-dasharray="5,2" d="M115.3427,-26.5C161.7819,-26.5 224.8502,-26.5 271.9249,-26.5"/>
<polygon fill="#ffa500" stroke="#ffa500" points="115.1056,-23.0001 105.1055,-26.5 115.1055,-30.0001 115.1056,-23.0001"/>
<text text-anchor="start" x="123" y="-51.5" font-family="Helvetica,sans-Serif" font-size="10.00" fill="#000000"> &lt; T, microsurface_trowbridge</text>
<text text-anchor="start" x="123" y="-40.5" font-family="Helvetica,sans-Serif" font-size="10.00" fill="#000000">_reitz_slope, microsurface</text>
<text text-anchor="middle" x="188.5" y="-29.5" font-family="Helvetica,sans-Serif" font-size="10.00" fill="#000000">_uniform_height &gt;</text>
</g>
</g>
</svg>
