<?xml version="1.0" encoding="UTF-8" standalone="no"?>
<!DOCTYPE svg PUBLIC "-//W3C//DTD SVG 1.1//EN"
 "http://www.w3.org/Graphics/SVG/1.1/DTD/svg11.dtd">
<!-- Generated by graphviz version 2.40.1 (20161225.0304)
 -->
<!-- Title: pr::conj_imag&lt; T, void_t&lt; std::enable_if_t&lt; std::is_arithmetic&lt; T &gt;::value, T &gt; &gt; &gt; Pages: 1 -->
<svg width="122pt" height="117pt"
 viewBox="0.00 0.00 122.00 117.00" xmlns="http://www.w3.org/2000/svg" xmlns:xlink="http://www.w3.org/1999/xlink">
<g id="graph0" class="graph" transform="scale(1 1) rotate(0) translate(4 113)">
<title>pr::conj_imag&lt; T, void_t&lt; std::enable_if_t&lt; std::is_arithmetic&lt; T &gt;::value, T &gt; &gt; &gt;</title>
<polygon fill="#ffffff" stroke="transparent" points="-4,4 -4,-113 118,-113 118,4 -4,4"/>
<!-- Node0 -->
<g id="node1" class="node">
<title>Node0</title>
<polygon fill="#bfbfbf" stroke="#000000" points="0,-.5 0,-52.5 114,-52.5 114,-.5 0,-.5"/>
<text text-anchor="start" x="8" y="-40.5" font-family="Helvetica,sans-Serif" font-size="10.00" fill="#000000">pr::conj_imag&lt; T, void</text>
<text text-anchor="start" x="8" y="-29.5" font-family="Helvetica,sans-Serif" font-size="10.00" fill="#000000">_t&lt; std::enable_if_t&lt;</text>
<text text-anchor="start" x="8" y="-18.5" font-family="Helvetica,sans-Serif" font-size="10.00" fill="#000000"> std::is_arithmetic&lt; T</text>
<text text-anchor="middle" x="57" y="-7.5" font-family="Helvetica,sans-Serif" font-size="10.00" fill="#000000"> &gt;::value, T &gt; &gt; &gt;</text>
</g>
<!-- Node1 -->
<g id="node2" class="node">
<title>Node1</title>
<g id="a_node2"><a xlink:href="structpr_1_1conj__null.html" target="_top" xlink:title="Null conjugate policy. ">
<polygon fill="#ffffff" stroke="#000000" points="10.5,-89.5 10.5,-108.5 103.5,-108.5 103.5,-89.5 10.5,-89.5"/>
<text text-anchor="middle" x="57" y="-96.5" font-family="Helvetica,sans-Serif" font-size="10.00" fill="#000000">pr::conj_null&lt; T &gt;</text>
</a>
</g>
</g>
<!-- Node1&#45;&gt;Node0 -->
<g id="edge1" class="edge">
<title>Node1&#45;&gt;Node0</title>
<path fill="none" stroke="#191970" d="M57,-79.1515C57,-70.9677 57,-61.3707 57,-52.6277"/>
<polygon fill="#191970" stroke="#191970" points="53.5001,-79.2223 57,-89.2223 60.5001,-79.2224 53.5001,-79.2223"/>
</g>
</g>
</svg>
