<?xml version="1.0" encoding="UTF-8" standalone="no"?>
<!DOCTYPE svg PUBLIC "-//W3C//DTD SVG 1.1//EN"
 "http://www.w3.org/Graphics/SVG/1.1/DTD/svg11.dtd">
<!-- Generated by graphviz version 2.40.1 (20161225.0304)
 -->
<!-- Title: pr::microsurface&lt; Tchild, bidir_mis &gt; Pages: 1 -->
<svg width="636pt" height="177pt"
 viewBox="0.00 0.00 636.00 177.00" xmlns="http://www.w3.org/2000/svg" xmlns:xlink="http://www.w3.org/1999/xlink">
<g id="graph0" class="graph" transform="scale(1 1) rotate(0) translate(4 173)">
<title>pr::microsurface&lt; Tchild, bidir_mis &gt;</title>
<polygon fill="#ffffff" stroke="transparent" points="-4,4 -4,-173 632,-173 632,4 -4,4"/>
<!-- Node0 -->
<g id="node1" class="node">
<title>Node0</title>
<polygon fill="#bfbfbf" stroke="#000000" points="0,-66 0,-96 125,-96 125,-66 0,-66"/>
<text text-anchor="start" x="8" y="-84" font-family="Helvetica,sans-Serif" font-size="10.00" fill="#000000">pr::microsurface&lt; Tchild,</text>
<text text-anchor="middle" x="62.5" y="-73" font-family="Helvetica,sans-Serif" font-size="10.00" fill="#000000"> bidir_mis &gt;</text>
</g>
<!-- Node1 -->
<g id="node2" class="node">
<title>Node1</title>
<g id="a_node2"><a xlink:href="structpr_1_1microsurface.html" target="_top" xlink:title="pr::microsurface\&lt; microsurface\l_dielectric_bsdf\&lt; Tfloat,\l Tslope, Theight \&gt;, true \&gt;">
<polygon fill="#ffffff" stroke="#000000" points="282,-120.5 282,-161.5 434,-161.5 434,-120.5 282,-120.5"/>
<text text-anchor="start" x="290" y="-149.5" font-family="Helvetica,sans-Serif" font-size="10.00" fill="#000000">pr::microsurface&lt; microsurface</text>
<text text-anchor="start" x="290" y="-138.5" font-family="Helvetica,sans-Serif" font-size="10.00" fill="#000000">_dielectric_bsdf&lt; Tfloat,</text>
<text text-anchor="middle" x="358" y="-127.5" font-family="Helvetica,sans-Serif" font-size="10.00" fill="#000000"> Tslope, Theight &gt;, true &gt;</text>
</a>
</g>
</g>
<!-- Node0&#45;&gt;Node1 -->
<g id="edge1" class="edge">
<title>Node0&#45;&gt;Node1</title>
<path fill="none" stroke="#ffa500" stroke-dasharray="5,2" d="M99.7032,-100.5239C113.0311,-106.7349 128.3794,-113.0189 143,-117 188.1173,-129.2851 240.2017,-135.2974 281.8057,-138.2325"/>
<polygon fill="#ffa500" stroke="#ffa500" points="100.9239,-97.2273 90.3949,-96.0481 97.8905,-103.5359 100.9239,-97.2273"/>
<text text-anchor="start" x="147" y="-161" font-family="Helvetica,sans-Serif" font-size="10.00" fill="#000000"> &lt; microsurface_dielectric</text>
<text text-anchor="start" x="147" y="-150" font-family="Helvetica,sans-Serif" font-size="10.00" fill="#000000">_bsdf&lt; Tfloat, Tslope,</text>
<text text-anchor="middle" x="203.5" y="-139" font-family="Helvetica,sans-Serif" font-size="10.00" fill="#000000"> Theight &gt;, true &gt;</text>
</g>
<!-- Node3 -->
<g id="node4" class="node">
<title>Node3</title>
<g id="a_node4"><a xlink:href="structpr_1_1microsurface.html" target="_top" xlink:title="pr::microsurface\&lt; microsurface\l_lambertian_bsdf\&lt; Tfloat,\l Tslope, Theight \&gt;, false \&gt;">
<polygon fill="#ffffff" stroke="#000000" points="282,-60.5 282,-101.5 434,-101.5 434,-60.5 282,-60.5"/>
<text text-anchor="start" x="290" y="-89.5" font-family="Helvetica,sans-Serif" font-size="10.00" fill="#000000">pr::microsurface&lt; microsurface</text>
<text text-anchor="start" x="290" y="-78.5" font-family="Helvetica,sans-Serif" font-size="10.00" fill="#000000">_lambertian_bsdf&lt; Tfloat,</text>
<text text-anchor="middle" x="358" y="-67.5" font-family="Helvetica,sans-Serif" font-size="10.00" fill="#000000"> Tslope, Theight &gt;, false &gt;</text>
</a>
</g>
</g>
<!-- Node0&#45;&gt;Node3 -->
<g id="edge3" class="edge">
<title>Node0&#45;&gt;Node3</title>
<path fill="none" stroke="#ffa500" stroke-dasharray="5,2" d="M135.332,-81C179.836,-81 236.6713,-81 281.7814,-81"/>
<polygon fill="#ffa500" stroke="#ffa500" points="135.168,-77.5001 125.1679,-81 135.1679,-84.5001 135.168,-77.5001"/>
<text text-anchor="start" x="144" y="-106" font-family="Helvetica,sans-Serif" font-size="10.00" fill="#000000"> &lt; microsurface_lambertian</text>
<text text-anchor="start" x="144" y="-95" font-family="Helvetica,sans-Serif" font-size="10.00" fill="#000000">_bsdf&lt; Tfloat, Tslope,</text>
<text text-anchor="middle" x="203.5" y="-84" font-family="Helvetica,sans-Serif" font-size="10.00" fill="#000000"> Theight &gt;, false &gt;</text>
</g>
<!-- Node5 -->
<g id="node6" class="node">
<title>Node5</title>
<g id="a_node6"><a xlink:href="structpr_1_1microsurface.html" target="_top" xlink:title="pr::microsurface\&lt; microsurface\l_conductive_brdf\&lt; Tfloat,\l Tslope, Theight \&gt;, true \&gt;">
<polygon fill="#ffffff" stroke="#000000" points="282,-.5 282,-41.5 434,-41.5 434,-.5 282,-.5"/>
<text text-anchor="start" x="290" y="-29.5" font-family="Helvetica,sans-Serif" font-size="10.00" fill="#000000">pr::microsurface&lt; microsurface</text>
<text text-anchor="start" x="290" y="-18.5" font-family="Helvetica,sans-Serif" font-size="10.00" fill="#000000">_conductive_brdf&lt; Tfloat,</text>
<text text-anchor="middle" x="358" y="-7.5" font-family="Helvetica,sans-Serif" font-size="10.00" fill="#000000"> Tslope, Theight &gt;, true &gt;</text>
</a>
</g>
</g>
<!-- Node0&#45;&gt;Node5 -->
<g id="edge5" class="edge">
<title>Node0&#45;&gt;Node5</title>
<path fill="none" stroke="#ffa500" stroke-dasharray="5,2" d="M98.5989,-61.3779C112.158,-54.8273 127.939,-48.1472 143,-44 188.0594,-31.5924 240.1423,-25.8133 281.7599,-23.15"/>
<polygon fill="#ffa500" stroke="#ffa500" points="96.9931,-58.2676 89.603,-65.8595 100.1145,-64.5331 96.9931,-58.2676"/>
<text text-anchor="start" x="143" y="-69" font-family="Helvetica,sans-Serif" font-size="10.00" fill="#000000"> &lt; microsurface_conductive</text>
<text text-anchor="start" x="143" y="-58" font-family="Helvetica,sans-Serif" font-size="10.00" fill="#000000">_brdf&lt; Tfloat, Tslope,</text>
<text text-anchor="middle" x="203.5" y="-47" font-family="Helvetica,sans-Serif" font-size="10.00" fill="#000000"> Theight &gt;, true &gt;</text>
</g>
<!-- Node2 -->
<g id="node3" class="node">
<title>Node2</title>
<g id="a_node3"><a xlink:href="structpr_1_1microsurface__dielectric__bsdf.html" target="_top" xlink:title="Microsurface from dielectric BSDF. ">
<polygon fill="#ffffff" stroke="#000000" points="471,-126 471,-156 628,-156 628,-126 471,-126"/>
<text text-anchor="start" x="479" y="-144" font-family="Helvetica,sans-Serif" font-size="10.00" fill="#000000">pr::microsurface_dielectric</text>
<text text-anchor="middle" x="549.5" y="-133" font-family="Helvetica,sans-Serif" font-size="10.00" fill="#000000">_bsdf&lt; Tfloat, Tslope, Theight &gt;</text>
</a>
</g>
</g>
<!-- Node1&#45;&gt;Node2 -->
<g id="edge2" class="edge">
<title>Node1&#45;&gt;Node2</title>
<path fill="none" stroke="#191970" d="M444.4403,-141C453.1888,-141 462.042,-141 470.7039,-141"/>
<polygon fill="#191970" stroke="#191970" points="444.2362,-137.5001 434.2361,-141 444.2361,-144.5001 444.2362,-137.5001"/>
</g>
<!-- Node4 -->
<g id="node5" class="node">
<title>Node4</title>
<g id="a_node5"><a xlink:href="structpr_1_1microsurface__lambertian__bsdf.html" target="_top" xlink:title="Microsurface from Lambertian BSDF. ">
<polygon fill="#ffffff" stroke="#000000" points="471,-66 471,-96 628,-96 628,-66 471,-66"/>
<text text-anchor="start" x="479" y="-84" font-family="Helvetica,sans-Serif" font-size="10.00" fill="#000000">pr::microsurface_lambertian</text>
<text text-anchor="middle" x="549.5" y="-73" font-family="Helvetica,sans-Serif" font-size="10.00" fill="#000000">_bsdf&lt; Tfloat, Tslope, Theight &gt;</text>
</a>
</g>
</g>
<!-- Node3&#45;&gt;Node4 -->
<g id="edge4" class="edge">
<title>Node3&#45;&gt;Node4</title>
<path fill="none" stroke="#191970" d="M444.4403,-81C453.1888,-81 462.042,-81 470.7039,-81"/>
<polygon fill="#191970" stroke="#191970" points="444.2362,-77.5001 434.2361,-81 444.2361,-84.5001 444.2362,-77.5001"/>
</g>
<!-- Node6 -->
<g id="node7" class="node">
<title>Node6</title>
<g id="a_node7"><a xlink:href="structpr_1_1microsurface__conductive__brdf.html" target="_top" xlink:title="Microsurface from conductive BRDF. ">
<polygon fill="#ffffff" stroke="#000000" points="472,-6 472,-36 627,-36 627,-6 472,-6"/>
<text text-anchor="start" x="480" y="-24" font-family="Helvetica,sans-Serif" font-size="10.00" fill="#000000">pr::microsurface_conductive</text>
<text text-anchor="middle" x="549.5" y="-13" font-family="Helvetica,sans-Serif" font-size="10.00" fill="#000000">_brdf&lt; Tfloat, Tslope, Theight &gt;</text>
</a>
</g>
</g>
<!-- Node5&#45;&gt;Node6 -->
<g id="edge6" class="edge">
<title>Node5&#45;&gt;Node6</title>
<path fill="none" stroke="#191970" d="M444.5023,-21C453.654,-21 462.9195,-21 471.9601,-21"/>
<polygon fill="#191970" stroke="#191970" points="444.2362,-17.5001 434.2361,-21 444.2361,-24.5001 444.2362,-17.5001"/>
</g>
</g>
</svg>
