<?xml version="1.0" encoding="UTF-8" standalone="no"?>
<!DOCTYPE svg PUBLIC "-//W3C//DTD SVG 1.1//EN"
 "http://www.w3.org/Graphics/SVG/1.1/DTD/svg11.dtd">
<!-- Generated by graphviz version 2.40.1 (20161225.0304)
 -->
<!-- Title: pre::multi_initializers&lt; T, typename &gt; Pages: 1 -->
<svg width="170pt" height="174pt"
 viewBox="0.00 0.00 170.00 174.00" xmlns="http://www.w3.org/2000/svg" xmlns:xlink="http://www.w3.org/1999/xlink">
<g id="graph0" class="graph" transform="scale(1 1) rotate(0) translate(4 170)">
<title>pre::multi_initializers&lt; T, typename &gt;</title>
<polygon fill="#ffffff" stroke="transparent" points="-4,4 -4,-170 166,-170 166,4 -4,4"/>
<!-- Node0 -->
<g id="node1" class="node">
<title>Node0</title>
<polygon fill="#bfbfbf" stroke="#000000" points="6,-135.5 6,-165.5 112,-165.5 112,-135.5 6,-135.5"/>
<text text-anchor="start" x="14" y="-153.5" font-family="Helvetica,sans-Serif" font-size="10.00" fill="#000000">pre::multi_initializers</text>
<text text-anchor="middle" x="59" y="-142.5" font-family="Helvetica,sans-Serif" font-size="10.00" fill="#000000">&lt; T, typename &gt;</text>
</g>
<!-- Node1 -->
<g id="node2" class="node">
<title>Node1</title>
<g id="a_node2"><a xlink:href="structpre_1_1multi__initializers.html" target="_top" xlink:title="pre::multi_initializers\l\&lt; multi\&lt; T, M, N... \&gt; \&gt;">
<polygon fill="#ffffff" stroke="#000000" points="1,-57.5 1,-87.5 117,-87.5 117,-57.5 1,-57.5"/>
<text text-anchor="start" x="9" y="-75.5" font-family="Helvetica,sans-Serif" font-size="10.00" fill="#000000">pre::multi_initializers</text>
<text text-anchor="middle" x="59" y="-64.5" font-family="Helvetica,sans-Serif" font-size="10.00" fill="#000000">&lt; multi&lt; T, M, N... &gt; &gt;</text>
</a>
</g>
</g>
<!-- Node0&#45;&gt;Node1 -->
<g id="edge1" class="edge">
<title>Node0&#45;&gt;Node1</title>
<path fill="none" stroke="#ffa500" stroke-dasharray="5,2" d="M59,-125.2875C59,-112.9187 59,-98.4264 59,-87.7592"/>
<polygon fill="#ffa500" stroke="#ffa500" points="55.5001,-125.4608 59,-135.4608 62.5001,-125.4608 55.5001,-125.4608"/>
<text text-anchor="middle" x="110.5" y="-109" font-family="Helvetica,sans-Serif" font-size="10.00" fill="#000000"> &lt; multi&lt; T, M, N... &gt; &gt;</text>
</g>
<!-- Node2 -->
<g id="node3" class="node">
<title>Node2</title>
<g id="a_node3"><a xlink:href="structpre_1_1multi_3_01T_00_01M_00_01N_8_8_8_01_4.html" target="_top" xlink:title="Multi&#45;dimensional array. ">
<polygon fill="#ffffff" stroke="#000000" points="0,-.5 0,-19.5 118,-19.5 118,-.5 0,-.5"/>
<text text-anchor="middle" x="59" y="-7.5" font-family="Helvetica,sans-Serif" font-size="10.00" fill="#000000">pre::multi&lt; T, M, N... &gt;</text>
</a>
</g>
</g>
<!-- Node1&#45;&gt;Node2 -->
<g id="edge2" class="edge">
<title>Node1&#45;&gt;Node2</title>
<path fill="none" stroke="#191970" d="M59,-47.3498C59,-37.6481 59,-27.1303 59,-19.7356"/>
<polygon fill="#191970" stroke="#191970" points="55.5001,-47.3705 59,-57.3705 62.5001,-47.3705 55.5001,-47.3705"/>
</g>
</g>
</svg>
