<?xml version="1.0" encoding="UTF-8" standalone="no"?>
<!DOCTYPE svg PUBLIC "-//W3C//DTD SVG 1.1//EN"
 "http://www.w3.org/Graphics/SVG/1.1/DTD/svg11.dtd">
<!-- Generated by graphviz version 2.40.1 (20161225.0304)
 -->
<!-- Title: pr::microvolume_sggx&lt; T &gt; Pages: 1 -->
<svg width="254pt" height="95pt"
 viewBox="0.00 0.00 253.50 95.00" xmlns="http://www.w3.org/2000/svg" xmlns:xlink="http://www.w3.org/1999/xlink">
<g id="graph0" class="graph" transform="scale(1 1) rotate(0) translate(4 91)">
<title>pr::microvolume_sggx&lt; T &gt;</title>
<polygon fill="#ffffff" stroke="transparent" points="-4,4 -4,-91 249.5,-91 249.5,4 -4,4"/>
<!-- Node0 -->
<g id="node1" class="node">
<title>Node0</title>
<polygon fill="#bfbfbf" stroke="#000000" points="54,-67.5 54,-86.5 191,-86.5 191,-67.5 54,-67.5"/>
<text text-anchor="middle" x="122.5" y="-74.5" font-family="Helvetica,sans-Serif" font-size="10.00" fill="#000000">pr::microvolume_sggx&lt; T &gt;</text>
</g>
<!-- Node1 -->
<g id="node2" class="node">
<title>Node1</title>
<g id="a_node2"><a xlink:href="structpr_1_1microvolume__sggx__diffuse__phase.html" target="_top" xlink:title="Microvolume SGGX diffuse (reflection) phase. ">
<polygon fill="#ffffff" stroke="#000000" points="0,-.5 0,-30.5 113,-30.5 113,-.5 0,-.5"/>
<text text-anchor="start" x="8" y="-18.5" font-family="Helvetica,sans-Serif" font-size="10.00" fill="#000000">pr::microvolume_sggx</text>
<text text-anchor="middle" x="56.5" y="-7.5" font-family="Helvetica,sans-Serif" font-size="10.00" fill="#000000">_diffuse_phase&lt; T &gt;</text>
</a>
</g>
</g>
<!-- Node0&#45;&gt;Node1 -->
<g id="edge1" class="edge">
<title>Node0&#45;&gt;Node1</title>
<path fill="none" stroke="#191970" d="M104.7793,-60.4875C94.7788,-51.1689 82.3759,-39.6116 72.6454,-30.5446"/>
<polygon fill="#191970" stroke="#191970" points="102.4853,-63.134 112.1875,-67.3906 107.2574,-58.0127 102.4853,-63.134"/>
</g>
<!-- Node2 -->
<g id="node3" class="node">
<title>Node2</title>
<g id="a_node3"><a xlink:href="structpr_1_1microvolume__sggx__specular__phase.html" target="_top" xlink:title="Microvolume SGGX specular (reflection) phase. ">
<polygon fill="#ffffff" stroke="#000000" points="131.5,-.5 131.5,-30.5 245.5,-30.5 245.5,-.5 131.5,-.5"/>
<text text-anchor="start" x="139.5" y="-18.5" font-family="Helvetica,sans-Serif" font-size="10.00" fill="#000000">pr::microvolume_sggx</text>
<text text-anchor="middle" x="188.5" y="-7.5" font-family="Helvetica,sans-Serif" font-size="10.00" fill="#000000">_specular_phase&lt; T &gt;</text>
</a>
</g>
</g>
<!-- Node0&#45;&gt;Node2 -->
<g id="edge2" class="edge">
<title>Node0&#45;&gt;Node2</title>
<path fill="none" stroke="#191970" d="M140.2207,-60.4875C150.2212,-51.1689 162.6241,-39.6116 172.3546,-30.5446"/>
<polygon fill="#191970" stroke="#191970" points="137.7426,-58.0127 132.8125,-67.3906 142.5147,-63.134 137.7426,-58.0127"/>
</g>
</g>
</svg>
