<?xml version="1.0" encoding="UTF-8" standalone="no"?>
<!DOCTYPE svg PUBLIC "-//W3C//DTD SVG 1.1//EN"
 "http://www.w3.org/Graphics/SVG/1.1/DTD/svg11.dtd">
<!-- Generated by graphviz version 2.43.0 (0)
 -->
<!-- Title: pre::microvolume_sggx&lt; Tfloat &gt; Pages: 1 -->
<svg width="324pt" height="88pt"
 viewBox="0.00 0.00 324.00 88.00" xmlns="http://www.w3.org/2000/svg" xmlns:xlink="http://www.w3.org/1999/xlink">
<g id="graph0" class="graph" transform="scale(1 1) rotate(0) translate(4 84)">
<title>pre::microvolume_sggx&lt; Tfloat &gt;</title>
<polygon fill="white" stroke="transparent" points="-4,4 -4,-84 320,-84 320,4 -4,4"/>
<!-- Node1 -->
<g id="node1" class="node">
<title>Node1</title>
<g id="a_node1"><a xlink:title="Microvolume with SGGX distribution.">
<polygon fill="#bfbfbf" stroke="black" points="0,-24.5 0,-54.5 131,-54.5 131,-24.5 0,-24.5"/>
<text text-anchor="start" x="8" y="-42.5" font-family="Helvetica,sans-Serif" font-size="10.00">pre::microvolume_sggx</text>
<text text-anchor="middle" x="65.5" y="-31.5" font-family="Helvetica,sans-Serif" font-size="10.00">&lt; Tfloat &gt;</text>
</a>
</g>
</g>
<!-- Node2 -->
<g id="node2" class="node">
<title>Node2</title>
<g id="a_node2"><a xlink:href="structpre_1_1microvolume__sggx__diffuse__phase.html" target="_top" xlink:title="Microvolume SGGX diffuse (reflection) phase.">
<polygon fill="white" stroke="black" points="171,-49.5 171,-79.5 312,-79.5 312,-49.5 171,-49.5"/>
<text text-anchor="start" x="179" y="-67.5" font-family="Helvetica,sans-Serif" font-size="10.00">pre::microvolume_sggx</text>
<text text-anchor="middle" x="241.5" y="-56.5" font-family="Helvetica,sans-Serif" font-size="10.00">_diffuse_phase&lt; Tfloat &gt;</text>
</a>
</g>
</g>
<!-- Node1&#45;&gt;Node2 -->
<g id="edge1" class="edge">
<title>Node1&#45;&gt;Node2</title>
<path fill="none" stroke="midnightblue" d="M141.42,-50.26C151.24,-51.68 161.27,-53.12 170.99,-54.51"/>
<polygon fill="midnightblue" stroke="midnightblue" points="141.69,-46.77 131.29,-48.81 140.69,-53.7 141.69,-46.77"/>
</g>
<!-- Node3 -->
<g id="node3" class="node">
<title>Node3</title>
<g id="a_node3"><a xlink:href="structpre_1_1microvolume__sggx__specular__phase.html" target="_top" xlink:title="Microvolume SGGX specular (reflection) phase.">
<polygon fill="white" stroke="black" points="167,-0.5 167,-30.5 316,-30.5 316,-0.5 167,-0.5"/>
<text text-anchor="start" x="175" y="-18.5" font-family="Helvetica,sans-Serif" font-size="10.00">pre::microvolume_sggx</text>
<text text-anchor="middle" x="241.5" y="-7.5" font-family="Helvetica,sans-Serif" font-size="10.00">_specular_phase&lt; Tfloat &gt;</text>
</a>
</g>
</g>
<!-- Node1&#45;&gt;Node3 -->
<g id="edge2" class="edge">
<title>Node1&#45;&gt;Node3</title>
<path fill="none" stroke="midnightblue" d="M141.47,-29.16C149.89,-28 158.46,-26.82 166.87,-25.66"/>
<polygon fill="midnightblue" stroke="midnightblue" points="140.72,-25.73 131.29,-30.56 141.68,-32.66 140.72,-25.73"/>
</g>
</g>
</svg>
