<?xml version="1.0" encoding="UTF-8" standalone="no"?>
<!DOCTYPE svg PUBLIC "-//W3C//DTD SVG 1.1//EN"
 "http://www.w3.org/Graphics/SVG/1.1/DTD/svg11.dtd">
<!-- Generated by graphviz version 2.40.1 (20161225.0304)
 -->
<!-- Title: pr::microsurface&lt; Tchild &gt; Pages: 1 -->
<svg width="642pt" height="177pt"
 viewBox="0.00 0.00 642.00 177.00" xmlns="http://www.w3.org/2000/svg" xmlns:xlink="http://www.w3.org/1999/xlink">
<g id="graph0" class="graph" transform="scale(1 1) rotate(0) translate(4 173)">
<title>pr::microsurface&lt; Tchild &gt;</title>
<polygon fill="#ffffff" stroke="transparent" points="-4,4 -4,-173 638,-173 638,4 -4,4"/>
<!-- Node0 -->
<g id="node1" class="node">
<title>Node0</title>
<polygon fill="#bfbfbf" stroke="#000000" points="0,-71.5 0,-90.5 131,-90.5 131,-71.5 0,-71.5"/>
<text text-anchor="middle" x="65.5" y="-78.5" font-family="Helvetica,sans-Serif" font-size="10.00" fill="#000000">pr::microsurface&lt; Tchild &gt;</text>
</g>
<!-- Node1 -->
<g id="node2" class="node">
<title>Node1</title>
<g id="a_node2"><a xlink:href="structpr_1_1microsurface.html" target="_top" xlink:title="pr::microsurface\&lt; microsurface\l_conductive_brdf\&lt; Tfloat,\l Tslope, Theight \&gt; \&gt;">
<polygon fill="#ffffff" stroke="#000000" points="288,-120.5 288,-161.5 440,-161.5 440,-120.5 288,-120.5"/>
<text text-anchor="start" x="296" y="-149.5" font-family="Helvetica,sans-Serif" font-size="10.00" fill="#000000">pr::microsurface&lt; microsurface</text>
<text text-anchor="start" x="296" y="-138.5" font-family="Helvetica,sans-Serif" font-size="10.00" fill="#000000">_conductive_brdf&lt; Tfloat,</text>
<text text-anchor="middle" x="364" y="-127.5" font-family="Helvetica,sans-Serif" font-size="10.00" fill="#000000"> Tslope, Theight &gt; &gt;</text>
</a>
</g>
</g>
<!-- Node0&#45;&gt;Node1 -->
<g id="edge1" class="edge">
<title>Node0&#45;&gt;Node1</title>
<path fill="none" stroke="#ffa500" stroke-dasharray="5,2" d="M92.7768,-95.2017C108.7458,-102.8885 129.5394,-111.8416 149,-117 194.199,-128.981 246.2857,-134.985 287.8704,-137.9918"/>
<polygon fill="#ffa500" stroke="#ffa500" points="94.0282,-91.9161 83.5124,-90.6244 90.9275,-98.1919 94.0282,-91.9161"/>
<text text-anchor="start" x="149" y="-161" font-family="Helvetica,sans-Serif" font-size="10.00" fill="#000000"> &lt; microsurface_conductive</text>
<text text-anchor="start" x="149" y="-150" font-family="Helvetica,sans-Serif" font-size="10.00" fill="#000000">_brdf&lt; Tfloat, Tslope,</text>
<text text-anchor="middle" x="209.5" y="-139" font-family="Helvetica,sans-Serif" font-size="10.00" fill="#000000"> Theight &gt; &gt;</text>
</g>
<!-- Node3 -->
<g id="node4" class="node">
<title>Node3</title>
<g id="a_node4"><a xlink:href="structpr_1_1microsurface.html" target="_top" xlink:title="pr::microsurface\&lt; microsurface\l_dielectric_bsdf\&lt; Tfloat,\l Tslope, Theight \&gt; \&gt;">
<polygon fill="#ffffff" stroke="#000000" points="288,-60.5 288,-101.5 440,-101.5 440,-60.5 288,-60.5"/>
<text text-anchor="start" x="296" y="-89.5" font-family="Helvetica,sans-Serif" font-size="10.00" fill="#000000">pr::microsurface&lt; microsurface</text>
<text text-anchor="start" x="296" y="-78.5" font-family="Helvetica,sans-Serif" font-size="10.00" fill="#000000">_dielectric_bsdf&lt; Tfloat,</text>
<text text-anchor="middle" x="364" y="-67.5" font-family="Helvetica,sans-Serif" font-size="10.00" fill="#000000"> Tslope, Theight &gt; &gt;</text>
</a>
</g>
</g>
<!-- Node0&#45;&gt;Node3 -->
<g id="edge3" class="edge">
<title>Node0&#45;&gt;Node3</title>
<path fill="none" stroke="#ffa500" stroke-dasharray="5,2" d="M141.2716,-81C186.1643,-81 242.8749,-81 287.8363,-81"/>
<polygon fill="#ffa500" stroke="#ffa500" points="141.0071,-77.5001 131.0071,-81 141.0071,-84.5001 141.0071,-77.5001"/>
<text text-anchor="start" x="153" y="-106" font-family="Helvetica,sans-Serif" font-size="10.00" fill="#000000"> &lt; microsurface_dielectric</text>
<text text-anchor="start" x="153" y="-95" font-family="Helvetica,sans-Serif" font-size="10.00" fill="#000000">_bsdf&lt; Tfloat, Tslope,</text>
<text text-anchor="middle" x="209.5" y="-84" font-family="Helvetica,sans-Serif" font-size="10.00" fill="#000000"> Theight &gt; &gt;</text>
</g>
<!-- Node5 -->
<g id="node6" class="node">
<title>Node5</title>
<g id="a_node6"><a xlink:href="structpr_1_1microsurface.html" target="_top" xlink:title="pr::microsurface\&lt; microsurface\l_lambertian_bsdf\&lt; Tfloat,\l Tslope, Theight \&gt; \&gt;">
<polygon fill="#ffffff" stroke="#000000" points="288,-.5 288,-41.5 440,-41.5 440,-.5 288,-.5"/>
<text text-anchor="start" x="296" y="-29.5" font-family="Helvetica,sans-Serif" font-size="10.00" fill="#000000">pr::microsurface&lt; microsurface</text>
<text text-anchor="start" x="296" y="-18.5" font-family="Helvetica,sans-Serif" font-size="10.00" fill="#000000">_lambertian_bsdf&lt; Tfloat,</text>
<text text-anchor="middle" x="364" y="-7.5" font-family="Helvetica,sans-Serif" font-size="10.00" fill="#000000"> Tslope, Theight &gt; &gt;</text>
</a>
</g>
</g>
<!-- Node0&#45;&gt;Node5 -->
<g id="edge5" class="edge">
<title>Node0&#45;&gt;Node5</title>
<path fill="none" stroke="#ffa500" stroke-dasharray="5,2" d="M92.1038,-66.6609C108.1337,-58.6757 129.2143,-49.3025 149,-44 194.1435,-31.9018 246.2286,-26.1311 287.8264,-23.3949"/>
<polygon fill="#ffa500" stroke="#ffa500" points="90.1405,-63.7338 82.8323,-71.4045 93.329,-69.9655 90.1405,-63.7338"/>
<text text-anchor="start" x="150" y="-69" font-family="Helvetica,sans-Serif" font-size="10.00" fill="#000000"> &lt; microsurface_lambertian</text>
<text text-anchor="start" x="150" y="-58" font-family="Helvetica,sans-Serif" font-size="10.00" fill="#000000">_bsdf&lt; Tfloat, Tslope,</text>
<text text-anchor="middle" x="209.5" y="-47" font-family="Helvetica,sans-Serif" font-size="10.00" fill="#000000"> Theight &gt; &gt;</text>
</g>
<!-- Node2 -->
<g id="node3" class="node">
<title>Node2</title>
<g id="a_node3"><a xlink:href="structpr_1_1microsurface__conductive__brdf.html" target="_top" xlink:title="Microsurface from conductive BRDF. ">
<polygon fill="#ffffff" stroke="#000000" points="478,-126 478,-156 633,-156 633,-126 478,-126"/>
<text text-anchor="start" x="486" y="-144" font-family="Helvetica,sans-Serif" font-size="10.00" fill="#000000">pr::microsurface_conductive</text>
<text text-anchor="middle" x="555.5" y="-133" font-family="Helvetica,sans-Serif" font-size="10.00" fill="#000000">_brdf&lt; Tfloat, Tslope, Theight &gt;</text>
</a>
</g>
</g>
<!-- Node1&#45;&gt;Node2 -->
<g id="edge2" class="edge">
<title>Node1&#45;&gt;Node2</title>
<path fill="none" stroke="#191970" d="M450.5023,-141C459.654,-141 468.9195,-141 477.9601,-141"/>
<polygon fill="#191970" stroke="#191970" points="450.2362,-137.5001 440.2361,-141 450.2361,-144.5001 450.2362,-137.5001"/>
</g>
<!-- Node4 -->
<g id="node5" class="node">
<title>Node4</title>
<g id="a_node5"><a xlink:href="structpr_1_1microsurface__dielectric__bsdf.html" target="_top" xlink:title="Microsurface from dielectric BSDF. ">
<polygon fill="#ffffff" stroke="#000000" points="477,-66 477,-96 634,-96 634,-66 477,-66"/>
<text text-anchor="start" x="485" y="-84" font-family="Helvetica,sans-Serif" font-size="10.00" fill="#000000">pr::microsurface_dielectric</text>
<text text-anchor="middle" x="555.5" y="-73" font-family="Helvetica,sans-Serif" font-size="10.00" fill="#000000">_bsdf&lt; Tfloat, Tslope, Theight &gt;</text>
</a>
</g>
</g>
<!-- Node3&#45;&gt;Node4 -->
<g id="edge4" class="edge">
<title>Node3&#45;&gt;Node4</title>
<path fill="none" stroke="#191970" d="M450.4403,-81C459.1888,-81 468.042,-81 476.7039,-81"/>
<polygon fill="#191970" stroke="#191970" points="450.2362,-77.5001 440.2361,-81 450.2361,-84.5001 450.2362,-77.5001"/>
</g>
<!-- Node6 -->
<g id="node7" class="node">
<title>Node6</title>
<g id="a_node7"><a xlink:href="structpr_1_1microsurface__lambertian__bsdf.html" target="_top" xlink:title="Microsurface from Lambertian BSDF. ">
<polygon fill="#ffffff" stroke="#000000" points="477,-6 477,-36 634,-36 634,-6 477,-6"/>
<text text-anchor="start" x="485" y="-24" font-family="Helvetica,sans-Serif" font-size="10.00" fill="#000000">pr::microsurface_lambertian</text>
<text text-anchor="middle" x="555.5" y="-13" font-family="Helvetica,sans-Serif" font-size="10.00" fill="#000000">_bsdf&lt; Tfloat, Tslope, Theight &gt;</text>
</a>
</g>
</g>
<!-- Node5&#45;&gt;Node6 -->
<g id="edge6" class="edge">
<title>Node5&#45;&gt;Node6</title>
<path fill="none" stroke="#191970" d="M450.4403,-21C459.1888,-21 468.042,-21 476.7039,-21"/>
<polygon fill="#191970" stroke="#191970" points="450.2362,-17.5001 440.2361,-21 450.2361,-24.5001 450.2362,-17.5001"/>
</g>
</g>
</svg>
