<?xml version="1.0" encoding="UTF-8" standalone="no"?>
<!DOCTYPE svg PUBLIC "-//W3C//DTD SVG 1.1//EN"
 "http://www.w3.org/Graphics/SVG/1.1/DTD/svg11.dtd">
<!-- Generated by graphviz version 2.43.0 (0)
 -->
<!-- Title: pre::dense_matrix_view&lt; Tbase_iterator &gt; Pages: 1 -->
<svg width="159pt" height="117pt"
 viewBox="0.00 0.00 159.00 117.00" xmlns="http://www.w3.org/2000/svg" xmlns:xlink="http://www.w3.org/1999/xlink">
<g id="graph0" class="graph" transform="scale(1 1) rotate(0) translate(4 113)">
<title>pre::dense_matrix_view&lt; Tbase_iterator &gt;</title>
<polygon fill="white" stroke="transparent" points="-4,4 -4,-113 155,-113 155,4 -4,4"/>
<!-- Node1 -->
<g id="node1" class="node">
<title>Node1</title>
<g id="a_node1"><a xlink:title="Dense matrix view.">
<polygon fill="#bfbfbf" stroke="black" points="0,-78.5 0,-108.5 134,-108.5 134,-78.5 0,-78.5"/>
<text text-anchor="start" x="8" y="-96.5" font-family="Helvetica,sans-Serif" font-size="10.00">pre::dense_matrix_view</text>
<text text-anchor="middle" x="67" y="-85.5" font-family="Helvetica,sans-Serif" font-size="10.00">&lt; Tbase_iterator &gt;</text>
</a>
</g>
</g>
<!-- Node2 -->
<g id="node2" class="node">
<title>Node2</title>
<g id="a_node2"><a xlink:href="structpre_1_1dense__matrix__view.html" target="_top" xlink:title=" ">
<polygon fill="white" stroke="black" points="0,-0.5 0,-30.5 134,-30.5 134,-0.5 0,-0.5"/>
<text text-anchor="start" x="8" y="-18.5" font-family="Helvetica,sans-Serif" font-size="10.00">pre::dense_matrix_view</text>
<text text-anchor="middle" x="67" y="-7.5" font-family="Helvetica,sans-Serif" font-size="10.00">&lt; float_type * &gt;</text>
</a>
</g>
</g>
<!-- Node1&#45;&gt;Node2 -->
<g id="edge1" class="edge">
<title>Node1&#45;&gt;Node2</title>
<path fill="none" stroke="orange" stroke-dasharray="5,2" d="M67,-68.09C67,-55.76 67,-41.22 67,-30.73"/>
<polygon fill="orange" stroke="orange" points="63.5,-68.2 67,-78.2 70.5,-68.21 63.5,-68.2"/>
<text text-anchor="middle" x="109" y="-52" font-family="Helvetica,sans-Serif" font-size="10.00"> &lt; float_type * &gt;</text>
</g>
</g>
</svg>
